<svg width="400" height="64" viewBox="0 0 400 64" fill="none" xmlns="http://www.w3.org/2000/svg">
<rect width="400" height="64" rx="5" fill="#D50000"/>
<path fill-rule="evenodd" clip-rule="evenodd" d="M356.819 15.0474C356.436 15.0928 355.92 15.1742 355.674 15.2283C355.427 15.2824 355.023 15.3289 354.777 15.3318C354.53 15.3341 354.204 15.3999 354.052 15.4766C353.901 15.554 353.529 15.6616 353.226 15.7163C352.924 15.7703 352.579 15.8814 352.46 15.9629C352.34 16.0443 352.157 16.1106 352.052 16.1106C351.946 16.1106 351.676 16.1937 351.452 16.2944C350.58 16.6858 349.731 17.1016 349.349 17.3238C349.13 17.4512 348.883 17.5867 348.801 17.6251C348.719 17.6635 348.517 17.7984 348.353 17.9246C348.189 18.0514 347.965 18.2189 347.855 18.2974C346.561 19.2245 345.421 20.2842 344.469 21.4451C343.86 22.1872 343.822 22.2389 343.346 22.9816C343.197 23.2149 342.974 23.5551 342.85 23.7372C342.727 23.9192 342.626 24.1257 342.626 24.196C342.626 24.2664 342.543 24.4281 342.442 24.5555C342.341 24.6823 342.225 24.9172 342.185 25.0772C342.145 25.2371 342.055 25.4331 341.983 25.5134C341.912 25.5931 341.823 25.8333 341.784 26.0467C341.744 26.2596 341.655 26.4998 341.584 26.5795C341.513 26.6597 341.423 26.9424 341.383 27.2082C341.344 27.4745 341.254 27.8014 341.184 27.9352C341.113 28.0695 341.024 28.5063 340.984 28.9059C340.945 29.306 340.851 29.8946 340.775 30.2145C340.594 30.9764 340.595 33.0475 340.777 33.8012C340.855 34.1211 340.95 34.7103 340.99 35.1098C341.03 35.51 341.118 35.9241 341.187 36.0305C341.256 36.1375 341.344 36.4644 341.382 36.7575C341.421 37.0507 341.51 37.356 341.58 37.4363C341.65 37.5159 341.741 37.734 341.781 37.9207C341.823 38.1074 341.939 38.4122 342.042 38.5983C342.144 38.7838 342.228 38.995 342.228 39.0677C342.228 39.1398 342.317 39.3096 342.427 39.4457C342.536 39.5812 342.626 39.7493 342.626 39.8197C342.626 39.9401 342.938 40.4478 343.274 40.873C343.355 40.9771 343.423 41.1015 343.423 41.1498C343.423 41.1981 343.523 41.3574 343.647 41.504C343.77 41.6511 343.938 41.8698 344.021 41.9896C344.716 43.0051 347.104 45.3728 347.641 45.5787C347.711 45.6055 347.832 45.6811 347.911 45.7468C348.354 46.1167 348.692 46.354 348.776 46.354C348.828 46.354 348.973 46.4412 349.1 46.5482C349.226 46.6547 349.383 46.7419 349.449 46.7419C349.514 46.7419 349.648 46.8292 349.747 46.9356C349.847 47.0426 350.026 47.1299 350.146 47.1299C350.266 47.1299 350.467 47.2171 350.594 47.3235C350.72 47.43 350.884 47.5172 350.958 47.5172C351.032 47.5172 351.26 47.6044 351.464 47.7115C351.669 47.8179 351.915 47.9051 352.012 47.9051C352.109 47.9051 352.355 47.9924 352.56 48.0988C352.765 48.2058 353.059 48.2931 353.213 48.2931C353.368 48.2931 353.705 48.3762 353.962 48.4786C354.218 48.581 354.77 48.6885 355.188 48.7188C355.605 48.7485 356.076 48.8241 356.234 48.8857C356.62 49.0381 359.707 49.0381 360.093 48.8857C360.251 48.8241 360.721 48.7461 361.139 48.713C361.557 48.6798 362.113 48.5722 362.375 48.4728C362.637 48.3739 362.962 48.2931 363.097 48.2931C363.233 48.2931 363.51 48.2058 363.715 48.0988C363.919 47.9924 364.168 47.9051 364.268 47.9051C364.367 47.9051 364.626 47.8179 364.842 47.7115C365.058 47.6044 365.412 47.43 365.628 47.3235C365.845 47.2171 366.084 47.1299 366.161 47.1299C366.237 47.1299 366.403 47.0426 366.529 46.9356C366.656 46.8292 366.798 46.7419 366.844 46.7419C366.891 46.7419 367.217 46.5453 367.57 46.3057C367.923 46.0655 368.236 45.8695 368.267 45.8695C368.298 45.8695 368.406 45.7933 368.509 45.6997C368.611 45.6066 368.892 45.3786 369.131 45.1925C369.934 44.5714 372.107 42.3869 372.107 42.2013C372.107 42.1449 372.168 42.0641 372.243 42.021C372.318 41.9786 372.453 41.8128 372.545 41.6529C372.636 41.4929 372.799 41.2312 372.907 41.0713C373.015 40.9113 373.172 40.6368 373.256 40.4612C373.34 40.2855 373.474 40.1174 373.555 40.0872C373.635 40.0575 373.701 39.9348 373.701 39.8156C373.701 39.6964 373.79 39.498 373.9 39.3747C374.009 39.252 374.099 39.0816 374.1 38.9967C374.1 38.9112 374.189 38.7111 374.298 38.5512C374.407 38.3912 374.497 38.1726 374.497 38.065C374.497 37.9574 374.587 37.7067 374.697 37.5078C374.806 37.3089 374.898 37.0262 374.901 36.8791C374.903 36.7325 374.975 36.4376 375.06 36.2248C375.146 36.0113 375.255 35.489 375.304 35.0645C375.353 34.6399 375.448 34.138 375.515 33.9495C375.682 33.486 375.682 30.5297 375.515 30.0662C375.448 29.8777 375.353 29.3764 375.304 28.9512C375.255 28.5267 375.146 28.0044 375.06 27.7915C374.975 27.5781 374.903 27.2832 374.901 27.1366C374.898 26.9901 374.806 26.7068 374.697 26.5079C374.587 26.309 374.498 26.0671 374.498 25.9699C374.498 25.8199 374.318 25.4238 373.982 24.8346C373.937 24.755 373.854 24.5805 373.797 24.4473C373.645 24.0867 373.623 24.0483 373.303 23.5749C373.141 23.3347 372.963 23.0398 372.908 22.9188C372.772 22.6199 372.384 22.0895 372.232 21.9947C372.163 21.9522 372.107 21.8685 372.107 21.8091C372.107 21.7492 372.041 21.6317 371.96 21.5474C371.879 21.4625 371.599 21.1577 371.338 20.8698C370.565 20.0184 370.298 19.7613 369.646 19.2384C369.305 18.9657 368.955 18.6848 368.867 18.6138C368.779 18.5434 368.628 18.4201 368.531 18.3404C368.334 18.1776 368.108 18.0264 367.692 17.7804C367.538 17.6885 367.318 17.5367 367.204 17.4436C367.091 17.3506 366.944 17.2738 366.878 17.2738C366.813 17.2738 366.656 17.1865 366.529 17.0801C366.403 16.9737 366.246 16.8864 366.18 16.8864C366.115 16.8864 365.707 16.712 365.275 16.4991C364.842 16.2856 364.409 16.1112 364.313 16.1112C364.217 16.1112 363.971 16.0233 363.767 15.9169C363.562 15.8105 363.273 15.7232 363.124 15.7232C362.974 15.7232 362.624 15.636 362.346 15.529C362.068 15.4225 361.651 15.3353 361.418 15.3353C361.185 15.3353 360.75 15.2737 360.45 15.1986C359.758 15.0247 357.726 14.9404 356.819 15.0474ZM360.456 21.2025C360.593 21.2706 360.929 21.359 361.203 21.3979C361.476 21.4375 361.855 21.5509 362.046 21.6498C362.237 21.7486 362.446 21.8301 362.511 21.8301C362.648 21.8301 363.666 22.3122 363.741 22.4117C363.768 22.4483 363.924 22.5396 364.087 22.6147C364.746 22.9177 364.669 23.1358 363.503 24.2711C361.669 26.0554 361.602 26.0921 360.866 25.7164C359.472 25.005 356.858 25.0045 355.454 25.7146C355.252 25.817 355.039 25.9013 354.981 25.9013C354.841 25.9013 353.554 26.7725 353.452 26.936C353.409 27.0063 353.319 27.0657 353.253 27.068C353.188 27.0697 353.009 27.2553 352.856 27.4798C352.703 27.7043 352.43 28.0852 352.249 28.3266C352.068 28.5674 351.864 28.9274 351.796 29.1263C351.729 29.3252 351.637 29.4875 351.591 29.4875C351.546 29.4875 351.477 29.7166 351.438 29.9964C351.4 30.2767 351.303 30.6582 351.222 30.8449C351.053 31.2358 351.02 32.7631 351.175 33.044C351.229 33.1434 351.327 33.5069 351.391 33.8524C351.455 34.1973 351.567 34.5451 351.64 34.6254C351.713 34.705 351.804 34.8888 351.841 35.0331C351.878 35.1773 351.971 35.3466 352.048 35.4088C352.125 35.4704 352.187 35.5641 352.187 35.6164C352.187 35.6688 352.301 35.8491 352.441 36.0166C352.58 36.1846 352.771 36.4208 352.864 36.5423C353.106 36.8558 353.221 36.9686 353.579 37.2426C353.753 37.3758 353.989 37.5613 354.103 37.6544C354.217 37.7474 354.371 37.8242 354.447 37.8242C354.522 37.8242 354.608 37.8847 354.637 37.9585C354.666 38.0324 354.83 38.1202 355.001 38.1534C355.172 38.1865 355.382 38.2738 355.467 38.347C355.857 38.6786 358.983 39.056 359.29 38.8083C359.355 38.7559 359.7 38.6623 360.056 38.6C360.412 38.5378 360.77 38.4285 360.852 38.3575C360.935 38.286 361.173 38.1976 361.381 38.1598L361.76 38.0911L363.161 39.4445C364.335 40.5792 364.55 40.8317 364.493 41.0061C364.42 41.2312 363.469 41.8954 363.22 41.8954C363.136 41.8954 363.013 41.9594 362.946 42.0379C362.879 42.1164 362.661 42.2095 362.461 42.2444C362.261 42.2793 362.027 42.3671 361.941 42.4404C361.854 42.5131 361.563 42.6009 361.293 42.6352C361.024 42.6695 360.668 42.7684 360.504 42.8539C360.043 43.0947 356.16 43.0836 355.703 42.8405C355.528 42.7469 355.257 42.6707 355.102 42.6707C354.946 42.6707 354.648 42.5858 354.44 42.4823C354.231 42.3787 353.931 42.2665 353.773 42.2327C353.614 42.199 353.458 42.1304 353.427 42.0804C353.395 42.0303 353.215 41.9262 353.026 41.85C351.685 41.3045 350.096 39.9377 348.627 38.0661C348.585 38.0132 348.397 37.673 348.21 37.3106C348.023 36.9477 347.836 36.6313 347.796 36.6063C347.754 36.5819 347.69 36.4202 347.652 36.2475C347.614 36.0753 347.52 35.8636 347.442 35.7775C347.365 35.6914 347.26 35.371 347.208 35.0645C347.157 34.7586 347.058 34.4404 346.987 34.3578C346.77 34.1037 346.808 30.1406 347.033 29.6067C347.129 29.3793 347.208 29.074 347.208 28.9286C347.208 28.7826 347.292 28.529 347.396 28.365C347.499 28.2004 347.614 27.9282 347.652 27.7601C347.69 27.592 347.763 27.4292 347.814 27.3983C347.866 27.3669 347.974 27.2029 348.054 27.0337C348.134 26.8639 348.256 26.6376 348.324 26.5312C348.393 26.4247 348.571 26.1409 348.721 25.9013C348.871 25.6611 349.152 25.2906 349.343 25.0772C350.267 24.0506 350.553 23.7686 350.668 23.7686C350.737 23.7686 350.793 23.7273 350.793 23.6767C350.793 23.5127 352.223 22.5681 353.047 22.1872C353.218 22.1081 353.389 21.9952 353.426 21.9365C353.464 21.8778 353.571 21.8301 353.666 21.8301C353.761 21.8301 354.004 21.7475 354.207 21.6474C354.409 21.5468 354.788 21.4334 355.049 21.3956C355.31 21.3578 355.585 21.2781 355.66 21.2176C355.989 20.9542 359.929 20.942 360.456 21.2025ZM367.587 25.8786C367.648 25.9176 367.732 26.0589 367.774 26.1921C367.815 26.3253 367.933 26.5126 368.036 26.6074C368.139 26.7028 368.223 26.8487 368.223 26.9319C368.223 27.0145 368.313 27.193 368.422 27.3286C368.531 27.4641 368.621 27.6822 368.621 27.8136C368.621 27.9445 368.711 28.1626 368.821 28.2981C368.937 28.4423 369.02 28.6913 369.02 28.8989C369.02 29.0931 369.109 29.4241 369.219 29.6329C369.513 30.1935 369.52 33.7698 369.229 34.3764C369.125 34.5934 369.018 34.9755 368.993 35.2256C368.967 35.4757 368.873 35.7513 368.784 35.838C368.695 35.9252 368.621 36.0962 368.621 36.2184C368.621 36.3405 368.531 36.5516 368.422 36.6872C368.313 36.8227 368.223 37.0227 368.223 37.1309C368.223 37.2397 368.141 37.3851 368.04 37.4549C367.939 37.5247 367.812 37.7125 367.757 37.8725C367.554 38.4762 367.281 38.3465 365.845 36.9669L364.538 35.7112V35.2297C364.538 34.8952 364.599 34.6731 364.737 34.5021C364.862 34.3474 364.936 34.1083 364.936 33.8623C364.936 33.6459 365.026 33.2475 365.135 32.9771C365.245 32.7066 365.334 32.2704 365.334 32.0081C365.334 31.7453 365.245 31.3091 365.135 31.0386C365.026 30.7682 364.936 30.3698 364.936 30.1534C364.936 29.9074 364.862 29.6684 364.737 29.5142C364.222 28.8774 364.395 28.4854 365.808 27.0837C367.011 25.8897 367.3 25.6943 367.587 25.8786Z" fill="white"/>
<path d="M25 38.155V26.085H29.284C30.5873 26.085 31.6753 26.357 32.548 26.901C33.4207 27.4337 34.0723 28.159 34.503 29.077C34.945 29.9837 35.166 30.9923 35.166 32.103C35.166 33.327 34.9223 34.3923 34.435 35.299C33.959 36.2057 33.279 36.9083 32.395 37.407C31.511 37.9057 30.474 38.155 29.284 38.155H25ZM33.228 32.103C33.228 31.253 33.0693 30.505 32.752 29.859C32.446 29.2017 31.9983 28.6917 31.409 28.329C30.831 27.955 30.1227 27.768 29.284 27.768H26.904V36.472H29.284C30.134 36.472 30.848 36.2793 31.426 35.894C32.0153 35.5087 32.463 34.9873 32.769 34.33C33.075 33.6727 33.228 32.9303 33.228 32.103Z" fill="white"/>
<path d="M44.7339 38.24C43.8613 38.24 43.0736 38.07 42.3709 37.73C41.6683 37.39 41.0619 36.931 40.5519 36.353C40.0419 35.7637 39.6453 35.1063 39.3619 34.381C39.0899 33.6443 38.9539 32.8907 38.9539 32.12C38.9539 31.3153 39.1013 30.5503 39.3959 29.825C39.6906 29.0883 40.0986 28.4367 40.6199 27.87C41.1413 27.292 41.7533 26.8387 42.4559 26.51C43.1699 26.17 43.9406 26 44.7679 26C45.6293 26 46.4113 26.1757 47.1139 26.527C47.8279 26.8783 48.4343 27.3487 48.9329 27.938C49.4429 28.5273 49.8339 29.1847 50.1059 29.91C50.3893 30.6353 50.5309 31.3777 50.5309 32.137C50.5309 32.9417 50.3836 33.7123 50.0889 34.449C49.8056 35.1743 49.4033 35.826 48.8819 36.404C48.3606 36.9707 47.7429 37.4183 47.0289 37.747C46.3263 38.0757 45.5613 38.24 44.7339 38.24ZM40.8919 32.12C40.8919 32.6867 40.9826 33.2363 41.1639 33.769C41.3453 34.3017 41.6003 34.7777 41.9289 35.197C42.2689 35.605 42.6769 35.928 43.1529 36.166C43.6289 36.404 44.1616 36.523 44.7509 36.523C45.3629 36.523 45.9069 36.3983 46.3829 36.149C46.8589 35.8997 47.2556 35.5653 47.5729 35.146C47.9016 34.7153 48.1509 34.2393 48.3209 33.718C48.4909 33.1853 48.5759 32.6527 48.5759 32.12C48.5759 31.5533 48.4853 31.0093 48.3039 30.488C48.1339 29.9553 47.8789 29.485 47.5389 29.077C47.1989 28.6577 46.7909 28.329 46.3149 28.091C45.8503 27.853 45.3289 27.734 44.7509 27.734C44.1389 27.734 43.5949 27.8587 43.1189 28.108C42.6429 28.3573 42.2406 28.6917 41.9119 29.111C41.5833 29.5303 41.3283 30.0007 41.1469 30.522C40.9769 31.0433 40.8919 31.576 40.8919 32.12Z" fill="white"/>
<path d="M56.9562 29.621V38.155H55.0521V26.085H56.6161L63.4501 34.806V26.102H65.3711V38.155H63.7052L56.9562 29.621Z" fill="white"/>
<path d="M74.1194 26.085H75.9214L80.6134 38.155H78.6074L77.3324 34.874H72.6744L71.4164 38.155H69.3934L74.1194 26.085ZM76.9584 33.463L75.0204 28.176L73.0144 33.463H76.9584Z" fill="white"/>
<path d="M92.3675 27.768H88.3555V38.155H86.4345V27.768H82.4055V26.085H92.3675V27.768Z" fill="white"/>
<path d="M104.815 36.472V38.155H96.5361V26.085H104.662V27.768H98.4401V31.202H103.829V32.783H98.4401V36.472H104.815Z" fill="white"/>
<path d="M124.422 27.768H120.41V38.155H118.489V27.768H114.46V26.085H124.422V27.768Z" fill="white"/>
<path d="M133.29 38.24C132.417 38.24 131.63 38.07 130.927 37.73C130.224 37.39 129.618 36.931 129.108 36.353C128.598 35.7637 128.201 35.1063 127.918 34.381C127.646 33.6443 127.51 32.8907 127.51 32.12C127.51 31.3153 127.657 30.5503 127.952 29.825C128.247 29.0883 128.655 28.4367 129.176 27.87C129.697 27.292 130.309 26.8387 131.012 26.51C131.726 26.17 132.497 26 133.324 26C134.185 26 134.967 26.1757 135.67 26.527C136.384 26.8783 136.99 27.3487 137.489 27.938C137.999 28.5273 138.39 29.1847 138.662 29.91C138.945 30.6353 139.087 31.3777 139.087 32.137C139.087 32.9417 138.94 33.7123 138.645 34.449C138.362 35.1743 137.959 35.826 137.438 36.404C136.917 36.9707 136.299 37.4183 135.585 37.747C134.882 38.0757 134.117 38.24 133.29 38.24ZM129.448 32.12C129.448 32.6867 129.539 33.2363 129.72 33.769C129.901 34.3017 130.156 34.7777 130.485 35.197C130.825 35.605 131.233 35.928 131.709 36.166C132.185 36.404 132.718 36.523 133.307 36.523C133.919 36.523 134.463 36.3983 134.939 36.149C135.415 35.8997 135.812 35.5653 136.129 35.146C136.458 34.7153 136.707 34.2393 136.877 33.718C137.047 33.1853 137.132 32.6527 137.132 32.12C137.132 31.5533 137.041 31.0093 136.86 30.488C136.69 29.9553 136.435 29.485 136.095 29.077C135.755 28.6577 135.347 28.329 134.871 28.091C134.406 27.853 133.885 27.734 133.307 27.734C132.695 27.734 132.151 27.8587 131.675 28.108C131.199 28.3573 130.797 28.6917 130.468 29.111C130.139 29.5303 129.884 30.0007 129.703 30.522C129.533 31.0433 129.448 31.576 129.448 32.12Z" fill="white"/>
<path d="M155.373 38.24C154.501 38.24 153.713 38.07 153.01 37.73C152.308 37.39 151.701 36.931 151.191 36.353C150.681 35.7637 150.285 35.1063 150.001 34.381C149.729 33.6443 149.593 32.8907 149.593 32.12C149.593 31.3153 149.741 30.5503 150.035 29.825C150.33 29.0883 150.738 28.4367 151.259 27.87C151.781 27.292 152.393 26.8387 153.095 26.51C153.809 26.17 154.58 26 155.407 26C156.269 26 157.051 26.1757 157.753 26.527C158.467 26.8783 159.074 27.3487 159.572 27.938C160.082 28.5273 160.473 29.1847 160.745 29.91C161.029 30.6353 161.17 31.3777 161.17 32.137C161.17 32.9417 161.023 33.7123 160.728 34.449C160.445 35.1743 160.043 35.826 159.521 36.404C159 36.9707 158.382 37.4183 157.668 37.747C156.966 38.0757 156.201 38.24 155.373 38.24ZM151.531 32.12C151.531 32.6867 151.622 33.2363 151.803 33.769C151.985 34.3017 152.24 34.7777 152.568 35.197C152.908 35.605 153.316 35.928 153.792 36.166C154.268 36.404 154.801 36.523 155.39 36.523C156.002 36.523 156.546 36.3983 157.022 36.149C157.498 35.8997 157.895 35.5653 158.212 35.146C158.541 34.7153 158.79 34.2393 158.96 33.718C159.13 33.1853 159.215 32.6527 159.215 32.12C159.215 31.5533 159.125 31.0093 158.943 30.488C158.773 29.9553 158.518 29.485 158.178 29.077C157.838 28.6577 157.43 28.329 156.954 28.091C156.49 27.853 155.968 27.734 155.39 27.734C154.778 27.734 154.234 27.8587 153.758 28.108C153.282 28.3573 152.88 28.6917 152.551 29.111C152.223 29.5303 151.968 30.0007 151.786 30.522C151.616 31.0433 151.531 31.576 151.531 32.12Z" fill="white"/>
<path d="M170.724 38.24C169.76 38.24 168.944 38.0757 168.276 37.747C167.618 37.4183 167.086 36.9707 166.678 36.404C166.281 35.8373 165.986 35.1913 165.794 34.466C165.612 33.7407 165.522 32.987 165.522 32.205V26.085H167.426V32.205C167.426 32.7603 167.482 33.2987 167.596 33.82C167.709 34.33 167.89 34.789 168.14 35.197C168.389 35.605 168.723 35.928 169.143 36.166C169.573 36.404 170.1 36.523 170.724 36.523C171.358 36.523 171.885 36.404 172.305 36.166C172.735 35.9167 173.07 35.588 173.308 35.18C173.557 34.7607 173.738 34.296 173.852 33.786C173.965 33.276 174.022 32.749 174.022 32.205V26.085H175.943V32.205C175.943 33.0323 175.841 33.8143 175.637 34.551C175.444 35.2763 175.138 35.9167 174.719 36.472C174.311 37.016 173.778 37.4467 173.121 37.764C172.463 38.0813 171.664 38.24 170.724 38.24Z" fill="white"/>
<path d="M181.025 38.155V26.085H186.278C186.822 26.085 187.32 26.1983 187.774 26.425C188.227 26.6517 188.618 26.952 188.947 27.326C189.287 27.7 189.547 28.1193 189.729 28.584C189.921 29.0487 190.018 29.5247 190.018 30.012C190.018 30.5447 189.921 31.0547 189.729 31.542C189.536 32.0293 189.258 32.4487 188.896 32.8C188.544 33.1513 188.131 33.4063 187.655 33.565L190.494 38.155H188.352L185.734 33.956H182.929V38.155H181.025ZM182.929 32.273H186.261C186.612 32.273 186.924 32.171 187.196 31.967C187.468 31.763 187.683 31.491 187.842 31.151C188 30.7997 188.08 30.42 188.08 30.012C188.08 29.5927 187.989 29.2187 187.808 28.89C187.626 28.55 187.388 28.278 187.094 28.074C186.81 27.87 186.499 27.768 186.159 27.768H182.929V32.273Z" fill="white"/>
<path d="M200.799 32.035C200.799 31.2983 200.93 30.5787 201.19 29.876C201.451 29.162 201.831 28.516 202.329 27.938C202.839 27.3487 203.457 26.884 204.182 26.544C204.908 26.1927 205.729 26.017 206.647 26.017C207.735 26.017 208.676 26.2663 209.469 26.765C210.263 27.2523 210.852 27.8813 211.237 28.652L209.741 29.655C209.515 29.1677 209.226 28.7823 208.874 28.499C208.534 28.2157 208.16 28.0173 207.752 27.904C207.356 27.7907 206.965 27.734 206.579 27.734C205.945 27.734 205.389 27.8643 204.913 28.125C204.437 28.3743 204.035 28.7087 203.706 29.128C203.389 29.5473 203.145 30.0177 202.975 30.539C202.817 31.0603 202.737 31.5817 202.737 32.103C202.737 32.681 202.834 33.242 203.026 33.786C203.219 34.3187 203.485 34.7947 203.825 35.214C204.177 35.622 204.59 35.945 205.066 36.183C205.542 36.421 206.064 36.54 206.63 36.54C207.016 36.54 207.418 36.472 207.837 36.336C208.257 36.2 208.642 35.9903 208.993 35.707C209.356 35.4123 209.639 35.027 209.843 34.551L211.424 35.452C211.175 36.0527 210.784 36.5627 210.251 36.982C209.73 37.4013 209.141 37.7187 208.483 37.934C207.837 38.1493 207.197 38.257 206.562 38.257C205.712 38.257 204.936 38.0813 204.233 37.73C203.531 37.3673 202.924 36.8913 202.414 36.302C201.904 35.7013 201.508 35.0327 201.224 34.296C200.941 33.548 200.799 32.7943 200.799 32.035Z" fill="white"/>
<path d="M220.601 38.24C219.728 38.24 218.941 38.07 218.238 37.73C217.535 37.39 216.929 36.931 216.419 36.353C215.909 35.7637 215.512 35.1063 215.229 34.381C214.957 33.6443 214.821 32.8907 214.821 32.12C214.821 31.3153 214.968 30.5503 215.263 29.825C215.558 29.0883 215.966 28.4367 216.487 27.87C217.008 27.292 217.62 26.8387 218.323 26.51C219.037 26.17 219.808 26 220.635 26C221.496 26 222.278 26.1757 222.981 26.527C223.695 26.8783 224.301 27.3487 224.8 27.938C225.31 28.5273 225.701 29.1847 225.973 29.91C226.256 30.6353 226.398 31.3777 226.398 32.137C226.398 32.9417 226.251 33.7123 225.956 34.449C225.673 35.1743 225.27 35.826 224.749 36.404C224.228 36.9707 223.61 37.4183 222.896 37.747C222.193 38.0757 221.428 38.24 220.601 38.24ZM216.759 32.12C216.759 32.6867 216.85 33.2363 217.031 33.769C217.212 34.3017 217.467 34.7777 217.796 35.197C218.136 35.605 218.544 35.928 219.02 36.166C219.496 36.404 220.029 36.523 220.618 36.523C221.23 36.523 221.774 36.3983 222.25 36.149C222.726 35.8997 223.123 35.5653 223.44 35.146C223.769 34.7153 224.018 34.2393 224.188 33.718C224.358 33.1853 224.443 32.6527 224.443 32.12C224.443 31.5533 224.352 31.0093 224.171 30.488C224.001 29.9553 223.746 29.485 223.406 29.077C223.066 28.6577 222.658 28.329 222.182 28.091C221.717 27.853 221.196 27.734 220.618 27.734C220.006 27.734 219.462 27.8587 218.986 28.108C218.51 28.3573 218.108 28.6917 217.779 29.111C217.45 29.5303 217.195 30.0007 217.014 30.522C216.844 31.0433 216.759 31.576 216.759 32.12Z" fill="white"/>
<path d="M230.919 38.155V26.085H232.823V36.472H239.3V38.155H230.919Z" fill="white"/>
<path d="M243.397 38.155V26.085H245.301V36.472H251.778V38.155H243.397Z" fill="white"/>
<path d="M264.154 36.472V38.155H255.875V26.085H264.001V27.768H257.779V31.202H263.168V32.783H257.779V36.472H264.154Z" fill="white"/>
<path d="M267.687 32.035C267.687 31.2983 267.817 30.5787 268.078 29.876C268.339 29.162 268.718 28.516 269.217 27.938C269.727 27.3487 270.345 26.884 271.07 26.544C271.795 26.1927 272.617 26.017 273.535 26.017C274.623 26.017 275.564 26.2663 276.357 26.765C277.15 27.2523 277.74 27.8813 278.125 28.652L276.629 29.655C276.402 29.1677 276.113 28.7823 275.762 28.499C275.422 28.2157 275.048 28.0173 274.64 27.904C274.243 27.7907 273.852 27.734 273.467 27.734C272.832 27.734 272.277 27.8643 271.801 28.125C271.325 28.3743 270.923 28.7087 270.594 29.128C270.277 29.5473 270.033 30.0177 269.863 30.539C269.704 31.0603 269.625 31.5817 269.625 32.103C269.625 32.681 269.721 33.242 269.914 33.786C270.107 34.3187 270.373 34.7947 270.713 35.214C271.064 35.622 271.478 35.945 271.954 36.183C272.43 36.421 272.951 36.54 273.518 36.54C273.903 36.54 274.306 36.472 274.725 36.336C275.144 36.2 275.53 35.9903 275.881 35.707C276.244 35.4123 276.527 35.027 276.731 34.551L278.312 35.452C278.063 36.0527 277.672 36.5627 277.139 36.982C276.618 37.4013 276.028 37.7187 275.371 37.934C274.725 38.1493 274.085 38.257 273.45 38.257C272.6 38.257 271.824 38.0813 271.121 37.73C270.418 37.3673 269.812 36.8913 269.302 36.302C268.792 35.7013 268.395 35.0327 268.112 34.296C267.829 33.548 267.687 32.7943 267.687 32.035Z" fill="white"/>
<path d="M291.48 27.768H287.468V38.155H285.547V27.768H281.518V26.085H291.48V27.768Z" fill="white"/>
<path d="M295.649 38.155V26.085H297.553V38.155H295.649Z" fill="white"/>
<path d="M303.595 26.085L307.233 35.826L310.854 26.085H312.878L308.134 38.155H306.332L301.572 26.085H303.595Z" fill="white"/>
<path d="M325.181 36.472V38.155H316.902V26.085H325.028V27.768H318.806V31.202H324.195V32.783H318.806V36.472H325.181Z" fill="white"/>
</svg>
