<?xml version="1.0" encoding="UTF-8" standalone="no"?>
<svg
   xmlns:dc="http://purl.org/dc/elements/1.1/"
   xmlns:cc="http://creativecommons.org/ns#"
   xmlns:rdf="http://www.w3.org/1999/02/22-rdf-syntax-ns#"
   xmlns:svg="http://www.w3.org/2000/svg"
   xmlns="http://www.w3.org/2000/svg"
   xmlns:sodipodi="http://sodipodi.sourceforge.net/DTD/sodipodi-0.dtd"
   xmlns:inkscape="http://www.inkscape.org/namespaces/inkscape"
   width="512"
   height="512"
   viewBox="0 0 512 512"
   fill="none"
   version="1.1"
   id="svg4153"
   sodipodi:docname="plots.svg"
   inkscape:version="0.92.4 (5da689c313, 2019-01-14)">
  <metadata
     id="metadata4159">
    <rdf:RDF>
      <cc:Work
         rdf:about="">
        <dc:format>image/svg+xml</dc:format>
        <dc:type
           rdf:resource="http://purl.org/dc/dcmitype/StillImage" />
      </cc:Work>
    </rdf:RDF>
  </metadata>
  <defs
     id="defs4157" />
  <sodipodi:namedview
     pagecolor="#ffffff"
     bordercolor="#666666"
     borderopacity="1"
     objecttolerance="10"
     gridtolerance="10"
     guidetolerance="10"
     inkscape:pageopacity="0"
     inkscape:pageshadow="2"
     inkscape:window-width="1680"
     inkscape:window-height="993"
     id="namedview4155"
     showgrid="false"
     inkscape:zoom="0.4609375"
     inkscape:cx="-182.23729"
     inkscape:cy="256"
     inkscape:window-x="1776"
     inkscape:window-y="43"
     inkscape:window-maximized="1"
     inkscape:current-layer="svg4153" />
  <path
     d="M63.918 86.937C44.5931 86.937 28.8691 101.978 28.8691 120.467V392.106C28.8691 410.594 44.5931 425.638 63.918 425.638H447.219C466.543 425.638 482.267 410.594 482.267 392.106V120.467C482.267 101.978 466.543 86.937 447.219 86.937H63.918ZM63.918 99.6702H447.219C459.205 99.6702 468.957 108.999 468.957 120.467V141.263H468.928V141.383V141.701V142.019V142.335V142.653V142.971V143.289V143.607V143.925V144.243V144.561V144.877V145.195V145.513V145.831V146.147V146.503V146.996V147.368V147.683V148.001V148.319V148.637V148.955V149.273V149.591V149.909V150.225V150.543V150.861V151.179V151.497C468.928 151.603 468.928 151.709 468.928 151.815C468.928 151.921 468.927 152.027 468.928 152.133C468.928 152.221 468.927 152.31 468.928 152.398C468.928 152.415 468.927 152.432 468.928 152.449V152.556V152.86V152.874C468.931 152.924 468.93 152.974 468.928 153.022V153.192V153.507V153.83V153.997H468.957V311.041H468.912V311.43V311.874V312.324V312.399V312.624V312.773V313.073V313.222C468.912 313.234 468.912 313.242 468.912 313.253C468.912 313.255 468.912 313.258 468.912 313.26V313.523V313.654C468.912 313.685 468.919 313.717 468.912 313.747V313.972V314.421V314.87V315.319V315.768V316.218V316.667V317.116V317.565V318.014V318.466V318.913V319.364V319.811V320.258V320.563C468.959 320.748 468.877 321.108 468.912 321.31V322.206V323.098V323.774H468.957V392.108C468.957 403.575 459.205 412.904 447.219 412.904H149.537H63.918C51.9318 412.904 42.1777 403.573 42.1777 392.106V153.997H42.332V152.969V151.173V149.376V147.579V145.782V143.985V142.206V141.264H42.1777V120.467C42.1777 109 51.9318 99.6704 63.918 99.6704V99.6702ZM149.537 412.904L149.574 412.673H149.572L149.537 412.904ZM51.7226 141.263C51.7218 141.679 51.7186 142.095 51.7186 142.511C51.7226 142.42 51.7226 142.351 51.7304 142.244C51.7431 142.078 51.7638 141.914 51.787 141.748C51.8006 141.651 51.8699 141.562 51.867 141.464C51.865 141.397 51.8461 141.329 51.83 141.263H51.7226ZM104.918 141.263C104.904 141.319 104.871 141.441 104.857 141.495C104.899 141.418 104.941 141.34 104.982 141.263H104.918ZM48.5937 148.313V150.25C48.6108 150.143 48.634 150.036 48.6484 149.929C48.6555 149.398 48.6396 148.868 48.6269 148.337C48.6159 148.329 48.6047 148.321 48.5938 148.313L48.5937 148.313ZM236.66 153.879C236.556 153.908 236.462 153.953 236.365 153.997H236.603C236.622 153.957 236.639 153.918 236.66 153.879H236.66ZM410.205 316.418C410 316.424 409.795 316.433 409.59 316.44H410.562H415.068C413.447 316.434 411.826 316.407 410.205 316.418Z"
     fill="#36557c"
     id="path4137"
     style="fill:#36557c;fill-opacity:1" />
  <path
     fill-rule="evenodd"
     clip-rule="evenodd"
     d="M384.695 134.37H431.913C441.302 134.37 448.913 141.981 448.913 151.37V182.022C448.913 191.411 441.302 199.022 431.913 199.022H384.695C375.306 199.022 367.695 191.411 367.695 182.022V151.37C367.695 141.981 375.306 134.37 384.695 134.37ZM384.695 147.37C382.486 147.37 380.695 149.16 380.695 151.37V182.022C380.695 184.231 382.486 186.022 384.695 186.022H431.913C434.122 186.022 435.913 184.231 435.913 182.022V151.37C435.913 149.16 434.122 147.37 431.913 147.37H384.695Z"
     fill="#36557c"
     id="path4139"
     style="fill:#36557c;fill-opacity:1" />
  <path
     fill-rule="evenodd"
     clip-rule="evenodd"
     d="M384.695 222.348H431.913C441.302 222.348 448.913 229.959 448.913 239.348V270C448.913 279.389 441.302 287 431.913 287H384.695C375.306 287 367.695 279.389 367.695 270V239.348C367.695 229.959 375.306 222.348 384.695 222.348ZM384.695 235.348C382.486 235.348 380.695 237.139 380.695 239.348V270C380.695 272.209 382.486 274 384.695 274H431.913C434.122 274 435.913 272.209 435.913 270V239.348C435.913 237.139 434.122 235.348 431.913 235.348H384.695Z"
     fill="#36557c"
     id="path4141"
     style="fill:#36557c;fill-opacity:1" />
  <path
     fill-rule="evenodd"
     clip-rule="evenodd"
     d="M384.695 310.326H431.913C441.302 310.326 448.913 317.937 448.913 327.326V357.978C448.913 367.367 441.302 374.978 431.913 374.978H384.695C375.306 374.978 367.695 367.367 367.695 357.978V327.326C367.695 317.937 375.306 310.326 384.695 310.326ZM384.695 323.326C382.486 323.326 380.695 325.117 380.695 327.326V357.978C380.695 360.187 382.486 361.978 384.695 361.978H431.913C434.122 361.978 435.913 360.187 435.913 357.978V327.326C435.913 325.117 434.122 323.326 431.913 323.326H384.695Z"
     fill="#36557c"
     id="path4143"
     style="fill:#36557c;fill-opacity:1" />
  <path
     fill-rule="evenodd"
     clip-rule="evenodd"
     d="M72.5 234.304C72.5 225.192 79.8873 217.804 89 217.804H121.457C130.569 217.804 137.957 225.192 137.957 234.304V330.261C137.957 339.374 130.569 346.761 121.457 346.761H89C79.8873 346.761 72.5 339.374 72.5 330.261V234.304ZM89 230.804C87.067 230.804 85.5 232.371 85.5 234.304V330.261C85.5 332.194 87.067 333.761 89 333.761H121.457C123.39 333.761 124.957 332.194 124.957 330.261V234.304C124.957 232.371 123.39 230.804 121.457 230.804H89Z"
     fill="#36557c"
     id="path4145"
     style="fill:#36557c;fill-opacity:1" />
  <path
     fill-rule="evenodd"
     clip-rule="evenodd"
     d="M242.63 272.957C242.63 263.844 250.017 256.457 259.13 256.457H294.347C303.46 256.457 310.847 263.844 310.847 272.957V330.261C310.847 339.374 303.46 346.761 294.347 346.761H259.13C250.017 346.761 242.63 339.374 242.63 330.261V272.957ZM259.13 269.457C257.197 269.457 255.63 271.024 255.63 272.957V330.261C255.63 332.194 257.197 333.761 259.13 333.761H294.347C296.28 333.761 297.847 332.194 297.847 330.261V272.957C297.847 271.024 296.28 269.457 294.347 269.457H259.13Z"
     fill="#36557c"
     id="path4147"
     style="fill:#36557c;fill-opacity:1" />
  <rect
     x="336"
     y="97"
     width="13"
     height="320"
     rx="4"
     fill="#36557c"
     id="rect4149"
     style="fill:#36557c;fill-opacity:1" />
  <path
     fill-rule="evenodd"
     clip-rule="evenodd"
     d="M156.565 180.087C156.565 170.974 163.953 163.587 173.065 163.587H210.065C219.178 163.587 226.565 170.974 226.565 180.087V331.261C226.565 340.374 219.178 347.761 210.065 347.761H173.065C163.953 347.761 156.565 340.374 156.565 331.261V180.087ZM173.065 176.587C171.132 176.587 169.565 178.154 169.565 180.087V331.261C169.565 333.194 171.132 334.761 173.065 334.761H210.065C211.998 334.761 213.565 333.194 213.565 331.261V180.087C213.565 178.154 211.998 176.587 210.065 176.587H173.065Z"
     fill="#36557c"
     id="path4151"
     style="fill:#36557c;fill-opacity:1" />
</svg>
