<?xml version="1.0" encoding="UTF-8" standalone="no"?>
<!-- Generator: Adobe Illustrator 19.0.0, SVG Export Plug-In . SVG Version: 6.00 Build 0)  -->

<svg
   xmlns:dc="http://purl.org/dc/elements/1.1/"
   xmlns:cc="http://creativecommons.org/ns#"
   xmlns:rdf="http://www.w3.org/1999/02/22-rdf-syntax-ns#"
   xmlns:svg="http://www.w3.org/2000/svg"
   xmlns="http://www.w3.org/2000/svg"
   xmlns:sodipodi="http://sodipodi.sourceforge.net/DTD/sodipodi-0.dtd"
   xmlns:inkscape="http://www.inkscape.org/namespaces/inkscape"
   version="1.1"
   id="Capa_1"
   x="0px"
   y="0px"
   viewBox="0 0 511 510.99961"
   xml:space="preserve"
   width="512"
   height="512"
   sodipodi:docname="console.svg"
   inkscape:version="0.92.4 (5da689c313, 2019-01-14)"><metadata
     id="metadata57"><rdf:RDF><cc:Work
         rdf:about=""><dc:format>image/svg+xml</dc:format><dc:type
           rdf:resource="http://purl.org/dc/dcmitype/StillImage" /><dc:title /></cc:Work></rdf:RDF></metadata><defs
     id="defs55" /><sodipodi:namedview
     pagecolor="#ffffff"
     bordercolor="#666666"
     borderopacity="1"
     objecttolerance="10"
     gridtolerance="10"
     guidetolerance="10"
     inkscape:pageopacity="0"
     inkscape:pageshadow="2"
     inkscape:window-width="1680"
     inkscape:window-height="993"
     id="namedview53"
     showgrid="false"
     inkscape:zoom="0.4609375"
     inkscape:cx="-133.42373"
     inkscape:cy="187.42226"
     inkscape:window-x="1776"
     inkscape:window-y="43"
     inkscape:window-maximized="1"
     inkscape:current-layer="g20" /><g
     id="g20"
     transform="translate(0,-5.4424772e-5)"><path
       d="m 86.661189,134.38867 c -2.929,-2.929 -7.678,-2.929 -10.606,0 -2.929,2.929 -2.929,7.678 0,10.606 l 50.697021,50.697 -50.697021,50.697 c -2.929,2.929 -2.929,7.678 0,10.606 1.464,1.464 3.384,2.197 5.303,2.197 1.919,0 3.839,-0.732 5.303,-2.197 l 56.000021,-56 c 2.929,-2.929 2.929,-7.678 0,-10.606 z"
       id="path16"
       inkscape:connector-curvature="0"
       style="fill:#36557c;fill-opacity:1" /><path
       d="m 233.35821,244.19167 h -80 c -4.142,0 -7.5,3.358 -7.5,7.5 0,4.142 3.358,7.5 7.5,7.5 h 80 c 4.142,0 7.5,-3.358 7.5,-7.5 0,-4.142 -3.358,-7.5 -7.5,-7.5 z"
       id="path18"
       inkscape:connector-curvature="0"
       style="fill:#36557c;fill-opacity:1" /><path
       id="path54"
       style="fill:#36557c;fill-opacity:1;stroke-width:0.86616766"
       d="m 64.791906,86.767031 c -19.287104,0 -34.980378,15.011959 -34.980378,33.464349 v 271.10823 c 0,18.45249 15.693274,33.46691 34.980378,33.46656 H 447.34393 c 19.28707,0 34.98036,-15.01407 34.98036,-33.46656 V 120.23138 c 0,-18.45239 -15.69329,-33.464349 -34.98036,-33.464349 z m 0,12.708388 H 447.34393 c 11.96277,0 21.69582,9.310901 21.69582,20.755961 v 20.75598 h -0.0293 v 0.11984 0.31738 0.31737 0.31516 0.31738 0.31738 0.31736 0.31739 0.31737 0.31739 0.31736 0.31517 0.31736 0.31739 0.31737 0.31516 0.3551 0.49271 0.37066 0.31514 0.31739 0.31736 0.31739 0.31737 0.31738 0.31737 0.31739 0.31514 0.31739 0.31737 0.31738 0.31737 c 0,0.10566 1e-5,0.21168 0,0.31739 -2e-5,0.10566 -8e-5,0.21168 0,0.31736 0,0.0879 -1.6e-4,0.17606 0,0.26412 3e-5,0.0172 -7e-5,0.0337 0,0.051 v 0.10646 0.30406 0.0133 c 0.003,0.0501 0.002,0.1003 0,0.14869 v 0.16868 0.31515 0.32183 0.16645 h 0.0293 v 156.73732 h -0.0448 v 0.38841 0.44387 0.44833 0.0755 0.22417 0.1487 0.29962 0.1487 c 4.2e-4,0.0118 -3.4e-4,0.0198 0,0.031 2e-5,0.002 0,0.005 0,0.007 v 0.26189 0.13094 c 0,0.0311 0.007,0.063 0,0.0931 v 0.22416 0.44831 0.44832 0.44834 0.44832 0.44832 0.44832 0.44832 0.44832 0.44832 0.45054 0.44611 0.45054 0.44611 0.4461 0.30405 c 0.0468,0.18429 -0.035,0.54434 0,0.74572 v 0.89443 0.89 0.6747 h 0.0448 v 68.2004 c 0,11.44508 -9.73305,20.75598 -21.69582,20.75598 H 150.24383 64.791906 c -11.962798,0 -21.697783,-9.31311 -21.697783,-20.7582 v -237.6438 h 0.153995 v -1.02537 -1.79328 -1.79329 -1.79329 -1.79328 -1.7933 -1.77553 -0.94102 h -0.153995 v -20.75598 c 0,-11.44506 9.734985,-20.75595 21.697783,-20.755961 z m 85.451924,312.622391 0.037,-0.23083 h -0.002 z M 52.620398,140.98736 c -8.9e-4,0.41506 -0.004,0.8299 -0.004,1.24508 0.004,-0.0908 0.004,-0.15952 0.0117,-0.26632 0.0127,-0.16605 0.0334,-0.32992 0.0565,-0.49493 0.0136,-0.097 0.0828,-0.18621 0.0799,-0.28408 -0.002,-0.0669 -0.0209,-0.13402 -0.037,-0.19975 z m 53.091462,0 c -0.0144,0.0551 -0.0465,0.17759 -0.0604,0.23081 0.0419,-0.0763 0.0831,-0.15443 0.12475,-0.23081 z m -56.214256,7.03553 v 1.93312 c 0.017,-0.10634 0.04015,-0.21301 0.05458,-0.31959 0.0071,-0.52991 -0.0088,-1.05905 -0.02144,-1.58911 -0.01107,-0.008 -0.02216,-0.0163 -0.03313,-0.0245 z m 187.699076,5.55521 c -0.10398,0.0295 -0.19809,0.0742 -0.29434,0.11762 h 0.23781 c 0.0189,-0.0395 0.0356,-0.0781 0.0565,-0.11762 z m 173.20589,162.2215 c -0.20466,0.006 -0.40922,0.0151 -0.61403,0.0222 h 0.97075 4.49706 c -1.61781,-0.006 -3.23582,-0.0328 -4.85378,-0.0222 z"
       inkscape:connector-curvature="0" /></g><g
     id="g22"
     transform="translate(0,-5.4424772e-5)" /><g
     id="g24"
     transform="translate(0,-5.4424772e-5)" /><g
     id="g26"
     transform="translate(0,-5.4424772e-5)" /><g
     id="g28"
     transform="translate(0,-5.4424772e-5)" /><g
     id="g30"
     transform="translate(0,-5.4424772e-5)" /><g
     id="g32"
     transform="translate(0,-5.4424772e-5)" /><g
     id="g34"
     transform="translate(0,-5.4424772e-5)" /><g
     id="g36"
     transform="translate(0,-5.4424772e-5)" /><g
     id="g38"
     transform="translate(0,-5.4424772e-5)" /><g
     id="g40"
     transform="translate(0,-5.4424772e-5)" /><g
     id="g42"
     transform="translate(0,-5.4424772e-5)" /><g
     id="g44"
     transform="translate(0,-5.4424772e-5)" /><g
     id="g46"
     transform="translate(0,-5.4424772e-5)" /><g
     id="g48"
     transform="translate(0,-5.4424772e-5)" /><g
     id="g50"
     transform="translate(0,-5.4424772e-5)" /></svg>