<?xml version="1.0" encoding="UTF-8" standalone="no"?>
<!-- Generator: Adobe Illustrator 19.0.0, SVG Export Plug-In . SVG Version: 6.00 Build 0)  -->

<svg
   xmlns:dc="http://purl.org/dc/elements/1.1/"
   xmlns:cc="http://creativecommons.org/ns#"
   xmlns:rdf="http://www.w3.org/1999/02/22-rdf-syntax-ns#"
   xmlns:svg="http://www.w3.org/2000/svg"
   xmlns="http://www.w3.org/2000/svg"
   xmlns:sodipodi="http://sodipodi.sourceforge.net/DTD/sodipodi-0.dtd"
   xmlns:inkscape="http://www.inkscape.org/namespaces/inkscape"
   version="1.1"
   id="Capa_1"
   x="0px"
   y="0px"
   viewBox="0 0 511 511"
   style="enable-background:new 0 0 511 511;"
   xml:space="preserve"
   width="512px"
   height="512px"
   sodipodi:docname="debugger.svg"
   inkscape:version="0.92.4 (5da689c313, 2019-01-14)"><metadata
     id="metadata51"><rdf:RDF><cc:Work
         rdf:about=""><dc:format>image/svg+xml</dc:format><dc:type
           rdf:resource="http://purl.org/dc/dcmitype/StillImage" /></cc:Work></rdf:RDF></metadata><defs
     id="defs49" /><sodipodi:namedview
     pagecolor="#ffffff"
     bordercolor="#666666"
     borderopacity="1"
     objecttolerance="10"
     gridtolerance="10"
     guidetolerance="10"
     inkscape:pageopacity="0"
     inkscape:pageshadow="2"
     inkscape:window-width="1680"
     inkscape:window-height="993"
     id="namedview47"
     showgrid="false"
     inkscape:zoom="0.4609375"
     inkscape:cx="121.31636"
     inkscape:cy="334.75044"
     inkscape:window-x="1776"
     inkscape:window-y="43"
     inkscape:window-maximized="1"
     inkscape:current-layer="g14" /><g
     id="g14"><path
       id="path2"
       style="fill:#36557c;stroke-width:1.22089934;fill-opacity:1"
       d="m 255.02719,31.937503 c -123.53303,0 -224.035427,100.502247 -224.035427,224.035307 0,58.35708 22.441326,111.56165 59.131327,151.47186 0.2322,0.10662 0.43654,0.23882 0.53549,0.46884 0.0199,0.0463 0.0239,0.088 0.0404,0.13328 l 12.60166,12.60163 c 39.93683,36.82721 93.24665,59.35976 151.7265,59.35976 123.53313,0 224.03542,-100.50234 224.03542,-224.03537 0,-123.53306 -100.50229,-224.035307 -224.03537,-224.035307 z m 0,18.313422 c 113.43503,0 205.72195,92.286885 205.72195,205.721885 0,113.43498 -92.28692,205.72194 -205.72195,205.72194 -113.43498,0 -205.722003,-92.28696 -205.722003,-205.72194 0,-113.435 92.287023,-205.721885 205.722003,-205.721885 z M 46.185119,438.10268 c -0.04423,-0.006 -0.08505,-0.005 -0.06422,0.01 0.04496,0.0299 0.08249,0.0484 0.126129,0.0762 0.0061,-0.0135 0.01279,-0.0269 0.01901,-0.0405 0.01097,-0.0228 -0.03668,-0.0387 -0.08091,-0.0452 z M -94.324868,652.79929 c -0.361307,0.47462 -0.710919,0.95775 -1.06858,1.43508 0.304292,-0.0901 0.605073,-0.19042 0.906747,-0.28797 0.01699,-0.37697 0.06755,-0.76036 0.161833,-1.14711 z"
       inkscape:connector-curvature="0" /><path
       d="m 361.67797,244.40933 c -0.51522,-2.57609 -2.11093,-4.80668 -4.38303,-6.12403 -2.27209,-1.31857 -4.99958,-1.59693 -7.49144,-0.76672 l -19.24625,6.41582 c -1.42601,-7.74538 -3.59189,-15.13549 -6.40362,-22.05432 l 13.10635,-6.55379 c 1.77275,-0.88637 3.20853,-2.32215 4.0949,-4.0949 l 19.53439,-39.06878 c 2.26233,-4.52343 0.42853,-10.02358 -4.0949,-12.28468 -4.52343,-2.26233 -10.02358,-0.42854 -12.28469,4.09489 l -18.16942,36.33885 -10.54002,5.27062 c -7.9737,-12.59846 -18.37454,-22.67942 -30.32714,-29.09525 l 16.813,-33.62601 c 2.26233,-4.52343 0.42854,-10.02358 -4.0949,-12.28469 -4.52099,-2.26232 -10.02236,-0.42853 -12.28469,4.0949 l -17.71769,35.43416 c -4.28169,-0.92056 -8.67327,-1.42723 -13.16129,-1.42723 -4.48803,0 -8.88082,0.50667 -13.1613,1.42723 l -17.71769,-35.43416 c -2.2611,-4.52343 -7.76003,-6.35844 -12.28469,-4.0949 -4.52343,2.26111 -6.35722,7.76126 -4.09489,12.28469 l 16.813,33.62601 c -11.9526,6.41461 -22.35345,16.49679 -30.32714,29.09525 l -10.54002,-5.27062 -18.16943,-36.33885 c -2.2611,-4.52343 -7.76125,-6.35722 -12.28469,-4.09489 -4.52343,2.2611 -6.35722,7.76125 -4.09489,12.28468 l 19.53439,39.06878 c 0.88637,1.77275 2.32215,3.20853 4.09489,4.0949 l 13.10636,6.55379 c -2.81173,6.91883 -4.97761,14.30894 -6.40362,22.05432 l -19.24626,-6.41582 c -2.49307,-0.83021 -5.21934,-0.55063 -7.49144,0.76672 -2.27087,1.31857 -3.8678,3.54794 -4.38302,6.12403 l -9.7672,48.83598 c -0.99137,4.95929 2.22448,9.78306 7.18377,10.77443 0.60679,0.12087 1.20991,0.17948 1.80571,0.17948 4.27559,0 8.09823,-3.00952 8.96995,-7.36325 l 7.73196,-38.66466 13.26385,4.42088 c -0.0269,1.04753 -0.0635,2.0914 -0.0635,3.14626 0,10.98199 1.48583,21.53178 4.1828,31.38321 -0.53109,0.3443 -1.03532,0.74597 -1.50048,1.21114 l -19.53439,19.53439 c -2.97167,2.97166 -3.53817,7.583 -1.37718,11.18588 l 29.30159,48.83597 c 1.71658,2.86179 4.74929,4.44774 7.86015,4.44651 1.60304,0 3.22805,-0.42121 4.7029,-1.30636 4.33663,-2.60173 5.74311,-8.22642 3.14015,-12.56305 l -25.62301,-42.70584 9.97475,-9.97475 c 13.58739,28.15272 38.2642,47.01562 66.39861,47.01562 28.1344,0 52.81122,-18.8629 66.39983,-47.0144 l 9.97475,9.97475 -25.62302,42.70584 c -2.60173,4.33663 -1.19526,9.96132 3.14016,12.56305 1.47484,0.88516 3.09986,1.30637 4.7029,1.30637 3.11085,0 6.14357,-1.58473 7.86015,-4.44652 l 29.30159,-48.83597 c 2.16221,-3.60288 1.59449,-8.21544 -1.37718,-11.18588 l -19.53439,-19.53439 c -0.46516,-0.46517 -0.96939,-0.86684 -1.50048,-1.21114 2.69696,-9.85143 4.1828,-20.40122 4.1828,-31.38321 0,-1.05486 -0.0366,-2.09873 -0.0635,-3.14626 l 13.26385,-4.42088 7.73196,38.66466 c 0.8705,4.35251 4.69435,7.36325 8.96994,7.36325 0.59458,0 1.19893,-0.0586 1.80571,-0.17947 4.9593,-0.9926 8.17515,-5.81637 7.18378,-10.77444 z M 245.87078,343.5427 c -28.31754,-5.87131 -50.05687,-38.52182 -50.05687,-77.80303 0,-12.26027 2.11948,-23.87469 5.8945,-34.23158 12.79991,7.70265 27.96836,12.42509 44.16237,13.71803 z M 209.81762,214.96368 c 10.87089,-17.09137 27.09909,-27.97202 45.20991,-27.97202 18.11082,0 34.33901,10.88065 45.2099,27.97202 -12.53864,7.88091 -28.5898,12.31766 -45.2099,12.31766 -16.62011,0 -32.67127,-4.43675 -45.20991,-12.31766 z m 54.36665,128.57902 v -98.31536 c 16.19401,-1.29416 31.36247,-6.0166 44.16237,-13.71803 3.77503,10.35689 5.89451,21.97009 5.89451,34.23158 0,39.27999 -21.73934,71.9305 -50.05688,77.80181 z"
       id="path12"
       inkscape:connector-curvature="0"
       style="fill:#36557c;stroke-width:1.22089934;fill-opacity:1" /></g><g
     id="g16" /><g
     id="g18" /><g
     id="g20" /><g
     id="g22" /><g
     id="g24" /><g
     id="g26" /><g
     id="g28" /><g
     id="g30" /><g
     id="g32" /><g
     id="g34" /><g
     id="g36" /><g
     id="g38" /><g
     id="g40" /><g
     id="g42" /><g
     id="g44" /></svg>