<?xml version="1.0" encoding="UTF-8" standalone="no"?>
<!-- Generator: Adobe Illustrator 19.0.0, SVG Export Plug-In . SVG Version: 6.00 Build 0)  -->

<svg
   xmlns:dc="http://purl.org/dc/elements/1.1/"
   xmlns:cc="http://creativecommons.org/ns#"
   xmlns:rdf="http://www.w3.org/1999/02/22-rdf-syntax-ns#"
   xmlns:svg="http://www.w3.org/2000/svg"
   xmlns="http://www.w3.org/2000/svg"
   xmlns:sodipodi="http://sodipodi.sourceforge.net/DTD/sodipodi-0.dtd"
   xmlns:inkscape="http://www.inkscape.org/namespaces/inkscape"
   version="1.1"
   id="Capa_1"
   x="0px"
   y="0px"
   viewBox="0 0 511 511"
   style="enable-background:new 0 0 511 511;"
   xml:space="preserve"
   width="512px"
   height="512px"
   sodipodi:docname="editor.svg"
   inkscape:version="0.92.4 (5da689c313, 2019-01-14)"><metadata
     id="metadata71"><rdf:RDF><cc:Work
         rdf:about=""><dc:format>image/svg+xml</dc:format><dc:type
           rdf:resource="http://purl.org/dc/dcmitype/StillImage" /></cc:Work></rdf:RDF></metadata><defs
     id="defs69" /><sodipodi:namedview
     pagecolor="#ffffff"
     bordercolor="#666666"
     borderopacity="1"
     objecttolerance="10"
     gridtolerance="10"
     guidetolerance="10"
     inkscape:pageopacity="0"
     inkscape:pageshadow="2"
     inkscape:window-width="1680"
     inkscape:window-height="993"
     id="namedview67"
     showgrid="false"
     inkscape:zoom="0.65186406"
     inkscape:cx="168.58214"
     inkscape:cy="232.21444"
     inkscape:window-x="1776"
     inkscape:window-y="43"
     inkscape:window-maximized="1"
     inkscape:current-layer="Capa_1" /><path
     id="path2"
     style="fill:#36557c;fill-opacity:1;stroke-width:1"
     d="m 108.10562,24.554136 c -21.78,0 -39.500824,17.720824 -39.500824,39.500824 v 383.99853 c 0,21.78047 17.720824,39.50083 39.500824,39.50083 h 143.99945 c 4.142,0 7.50048,-3.35848 7.50095,-7.50095 0,-4.14199 -3.35895,-7.49899 -7.50095,-7.49899 H 108.10562 c -13.509,0 -24.500881,-10.99142 -24.500881,-24.50089 v -45.83608 c -0.03196,-0.54549 -0.03844,-1.1193 0,-1.75047 V 64.05496 c 0,-13.509 10.991881,-24.500881 24.500881,-24.500881 h 216.50015 v 40.50082 c 0,21.780001 17.71887,39.498881 39.49887,39.498881 h 40.50082 v 31.64705 c 1.67183,0.001 3.34358,0.003 5.01558,0.002 3.32825,-0.007 6.65645,-0.0417 9.98437,0.0215 v -39.16944 c 0,-0.25146 -0.014,-0.50248 -0.039,-0.75049 -0.018,-0.18199 -0.0489,-0.35806 -0.0799,-0.53606 -0.011,-0.063 -0.0173,-0.12803 -0.0292,-0.19102 -0.042,-0.21 -0.095,-0.41689 -0.154,-0.61989 -0.009,-0.03 -0.0144,-0.0597 -0.0233,-0.0896 -0.063,-0.207 -0.13832,-0.40919 -0.21833,-0.60819 -0.011,-0.0269 -0.0183,-0.0559 -0.0292,-0.0818 -0.078,-0.189 -0.16821,-0.37165 -0.26121,-0.55165 -0.019,-0.037 -0.0345,-0.0742 -0.0546,-0.11111 -0.089,-0.167 -0.18845,-0.32833 -0.29045,-0.48733 -0.03,-0.048 -0.0567,-0.0972 -0.0877,-0.14424 -0.10099,-0.15101 -0.21213,-0.2956 -0.32359,-0.4386 -0.039,-0.05 -0.0731,-0.1011 -0.11306,-0.1501 -0.15599,-0.189 -0.32017,-0.3728 -0.49317,-0.5458 L 337.41079,26.752958 c -0.173,-0.173001 -0.35581,-0.338176 -0.54581,-0.493176 -0.049,-0.04 -0.10109,-0.07406 -0.1501,-0.11306 -0.143,-0.112 -0.2876,-0.224535 -0.43859,-0.325535 -0.047,-0.032 -0.0982,-0.05772 -0.1462,-0.08772 -0.159,-0.101001 -0.31838,-0.200448 -0.48537,-0.290448 -0.036,-0.02 -0.0742,-0.03558 -0.11112,-0.05458 -0.181,-0.093 -0.36365,-0.183209 -0.55166,-0.261208 -0.027,-0.011 -0.0559,-0.01824 -0.0818,-0.02924 -0.199,-0.08 -0.40118,-0.155323 -0.60818,-0.218322 -0.03,-0.009 -0.0616,-0.01539 -0.0916,-0.02339 -0.203,-0.059 -0.40793,-0.113944 -0.61793,-0.155944 -0.063,-0.013 -0.12803,-0.01629 -0.19103,-0.02729 -0.17801,-0.031 -0.35601,-0.06387 -0.53801,-0.08187 -0.24941,-0.02486 -0.49757,-0.03703 -0.74857,-0.03703 z m 231.50008,25.60614 54.39356,54.393554 h -29.89462 c -13.509,0 -24.49894,-10.989932 -24.49894,-24.498931 z m 79.85935,119.559004 c 0.0462,0.0183 0.0941,0.0342 0.14036,0.0526 v -0.0507 c -0.0589,-3.3e-4 -0.0865,-0.002 -0.14036,-0.002 z"
     inkscape:connector-curvature="0" /><g
     id="g36" /><g
     id="g38" /><g
     id="g40" /><g
     id="g42" /><g
     id="g44" /><g
     id="g46" /><g
     id="g48" /><g
     id="g50" /><g
     id="g52" /><g
     id="g54" /><g
     id="g56" /><g
     id="g58" /><g
     id="g60" /><g
     id="g62" /><g
     id="g64" /><path
     id="path2-9"
     style="fill:#36557c;fill-opacity:1;stroke-width:1"
     d="m 449.94842,137.92991 c -6.277,0 -12.17987,2.44502 -16.61787,6.88301 L 230.30208,347.84331 c -0.88499,0.88501 -1.53584,1.97832 -1.89082,3.17932 l -23.71532,80.2843 c -0.77799,2.63498 -0.0541,5.48389 1.88889,7.42687 1.427,1.42702 3.34307,2.19687 5.30407,2.19687 0.709,0 1.42475,-0.10003 2.12475,-0.30604 l 80.28429,-23.71725 c 1.201,-0.355 2.29333,-1.00268 3.17933,-1.88889 L 500.50573,211.98807 c 4.43803,-4.43798 6.88298,-10.33891 6.88301,-16.61591 0,-6.27701 -2.44498,-12.17889 -6.88301,-16.61787 l -33.94139,-33.94137 c -4.439,-4.43799 -10.33892,-6.88301 -16.61592,-6.88301 z m -0.002,15.00384 c 2.17662,1.2e-4 4.35466,0.83032 6.01168,2.48732 l 33.93943,33.93941 c 3.31402,3.314 3.31402,8.70639 0,12.0214 l -13.72509,13.72704 -45.96278,-45.96279 13.72703,-13.72506 c 1.65751,-1.6575 3.83309,-2.48745 6.00973,-2.48732 z m -30.34101,26.81858 17.67634,17.6783 -173.3931,173.3931 -17.67635,-17.67635 98.80275,-98.80469 c 0.0489,-0.44358 0.24048,-0.91433 0.65497,-1.34892 h 0.002 c 0.22396,-0.23483 0.61544,-0.67437 0.89279,-0.83626 0.0756,-0.0441 0.15715,-0.0751 0.23781,-0.10915 0.0259,-0.0314 0.0611,-0.0703 0.076,-0.0935 0.11932,-0.65004 0.69946,-1.05763 1.24756,-1.37037 0.0229,-0.25296 0.53448,-0.45251 0.96101,-0.65302 0.006,-0.0149 0.0101,-0.0299 0.0156,-0.0448 -0.0413,0.0159 -0.0521,0.0179 -0.078,0.0272 -0.0371,0.0137 -0.13608,0.0777 -0.10721,0.0507 0.0729,-0.0681 0.153,-0.12779 0.23002,-0.19103 1.18285,-3.07495 3.26579,-4.84236 5.49705,-5.29043 0.0266,-0.0516 0.0449,-0.10753 0.0741,-0.15789 0.71553,-1.23566 1.73384,-2.08627 2.76802,-3.02923 0.17446,-0.15906 0.21639,-0.19685 0.2963,-0.26901 0.007,-0.0137 0.0186,-0.0401 0.0253,-0.0526 -0.0141,0.0106 -0.002,0.002 -0.0175,0.0137 0.17065,-0.28315 0.1276,-0.21642 0.0175,-0.0137 0.16944,-0.1276 0.13755,-0.0943 -0.0253,0.0526 -0.13626,0.25293 -0.34051,0.66822 -0.45809,1.00585 l 1.09161,-1.09162 c 0.0413,-0.19296 0.0879,-0.38337 0.16374,-0.55555 -0.0965,0.10387 -0.18523,0.2157 -0.2846,0.31579 0.50657,-1.10257 0.54124,-0.84708 1.40741,-1.04678 l 0.17933,-0.17934 c -0.0972,0.004 -0.17532,0.003 -0.17154,-0.0176 0.0137,-0.0746 0.0994,-0.11538 0.14815,-0.17349 0.46136,-0.5884 0.95554,-1.10752 1.58284,-1.52241 0.37026,-0.24488 0.37821,-0.23615 0.38012,-0.22611 l 0.52826,-0.52827 c 0.15551,-0.1632 0.31407,-0.32412 0.45029,-0.50097 0.0155,-0.0202 -0.0482,0.0185 -0.0721,0.0272 0.14021,-0.16797 0.28085,-0.33689 0.42105,-0.50487 0.17533,-0.12871 0.0623,-0.0418 0.1501,-0.10526 -2.3e-4,3.1e-4 0.004,-0.004 0.004,-0.004 0.12102,-0.16375 0.26113,-0.32543 0.4386,-0.42495 0.0607,-0.034 0.13023,-0.0487 0.19493,-0.0741 z m 28.28254,28.28449 17.6783,17.6783 -173.39311,173.3931 -17.67829,-17.6783 90.8593,-90.8593 c 0.6787,-1.01607 0.96417,-1.07482 4.21636,-4.23585 0.0694,-0.0674 0.13745,-0.12155 0.20663,-0.18713 z m -100.51614,43.77956 c 0.0669,-0.0304 -0.14901,0.0254 -0.20857,0.0683 -0.008,0.006 -0.0121,0.0156 -0.0195,0.0214 0.0767,-0.0289 0.1538,-0.0559 0.22807,-0.0897 z m -108.14968,115.55511 38.725,38.72501 -54.95886,16.23385 z"
     inkscape:connector-curvature="0" /><path
     id="path2-1"
     style="fill:#36557c;fill-opacity:1;stroke-width:1"
     d="m 234.38779,24.667195 c -0.16207,0.01154 -0.32244,0.02708 -0.48148,0.04874 0.13464,-0.01405 0.35161,-0.03514 0.48148,-0.04874 z m 148.47312,14.288446 c 0.18007,0.149754 0.50875,0.433323 0.80116,0.684207 0.0576,0.01121 0.11414,0.02543 0.17154,0.03704 -0.0187,-0.02178 -0.038,-0.04233 -0.0565,-0.06432 l -0.63742,-0.590641 c -0.0905,-0.01996 -0.19286,-0.05006 -0.27875,-0.06628 z m -32.28838,0.247561 c -0.11982,0.0258 -0.23711,0.0522 -0.35673,0.07798 l 0.58285,-0.002 c -0.0703,-0.02218 -0.15744,-0.05477 -0.22612,-0.07602 z m 65.08942,64.333088 c 0.008,0.17287 0.0176,0.34565 0.0254,0.51852 0.0747,0.0135 0.14505,0.0258 0.22028,0.039 -0.0844,-0.18909 -0.17331,-0.38421 -0.24562,-0.55751 z M 75.54629,233.13424 c -4.141969,0.0128 -7.490374,3.38038 -7.477554,7.52239 l 0.450291,145.82401 c 0.628398,-0.61641 1.422434,-1.00086 2.298236,-1.1345 0.654817,-0.79385 1.515741,-1.58154 2.625721,-2.32748 0.545169,-0.36637 1.02323,-1.23874 1.61013,-1.2885 0.08387,-0.007 0.170476,0.003 0.259259,0.0331 2.926108,1.00103 6.542937,1.87728 8.206596,4.43858 L 83.068678,240.60985 c -0.01281,-4.142 -3.380398,-7.48844 -7.522388,-7.47561 z m 328.75508,81.88858 0.40936,132.59403 c 0.0418,13.50902 -10.914,24.53315 -24.42292,24.57496 l -191.25462,0.59259 c -0.33188,0.38119 -0.64766,0.76633 -0.89474,1.16569 -1.91681,0.55329 -3.67758,1.09471 -5.69393,1.43274 -3.78199,0.634 -9.31906,0.92972 -12.94927,1.45028 -0.22834,0.0327 -0.45429,0.0798 -0.68226,0.11502 -0.0151,0.85059 -0.0659,1.69085 -0.19299,2.51071 0.075,0.0445 0.15137,0.0856 0.22613,0.1306 0.9992,0.60166 1.91043,1.33935 2.86354,2.01169 0.2231,0.15739 0.91694,0.37306 0.66471,0.47758 -0.35243,0.14604 -0.71277,0.26904 -1.07017,0.40156 1.18084,1.59107 2.09201,3.42098 3.23585,5.04481 -0.24825,0.0981 -0.49338,0.20538 -0.74073,0.30604 l 206.53527,-0.63937 c 21.77989,-0.0674 39.44348,-17.84179 39.37606,-39.62168 l -0.40934,-132.54725 h -6.50291 z"
     inkscape:connector-curvature="0" /></svg>