<?xml version="1.0" encoding="UTF-8" standalone="no"?>
<!-- Generator: Adobe Illustrator 19.0.0, SVG Export Plug-In . SVG Version: 6.00 Build 0)  -->

<svg
   xmlns:dc="http://purl.org/dc/elements/1.1/"
   xmlns:cc="http://creativecommons.org/ns#"
   xmlns:rdf="http://www.w3.org/1999/02/22-rdf-syntax-ns#"
   xmlns:svg="http://www.w3.org/2000/svg"
   xmlns="http://www.w3.org/2000/svg"
   xmlns:sodipodi="http://sodipodi.sourceforge.net/DTD/sodipodi-0.dtd"
   xmlns:inkscape="http://www.inkscape.org/namespaces/inkscape"
   version="1.1"
   id="Capa_1"
   x="0px"
   y="0px"
   viewBox="0 0 511 511"
   style="enable-background:new 0 0 511 511;"
   xml:space="preserve"
   width="512px"
   height="512px"
   sodipodi:docname="help.svg"
   inkscape:version="0.92.4 (5da689c313, 2019-01-14)"><metadata
     id="metadata59"><rdf:RDF><cc:Work
         rdf:about=""><dc:format>image/svg+xml</dc:format><dc:type
           rdf:resource="http://purl.org/dc/dcmitype/StillImage" /></cc:Work></rdf:RDF></metadata><defs
     id="defs57" /><sodipodi:namedview
     pagecolor="#ffffff"
     bordercolor="#666666"
     borderopacity="1"
     objecttolerance="10"
     gridtolerance="10"
     guidetolerance="10"
     inkscape:pageopacity="0"
     inkscape:pageshadow="2"
     inkscape:window-width="1680"
     inkscape:window-height="993"
     id="namedview55"
     showgrid="false"
     inkscape:zoom="0.4609375"
     inkscape:cx="-170.06014"
     inkscape:cy="101.32393"
     inkscape:window-x="1776"
     inkscape:window-y="43"
     inkscape:window-maximized="1"
     inkscape:current-layer="g22" /><g
     id="g22"><path
       d="M327.5,0C226.318,0,144,82.318,144,183.5c0,47.899,18.455,91.563,48.619,124.275l-23.391,23.391   c-0.468,0.468-0.853,0.986-1.172,1.532C163.131,329.642,157.443,328,151.5,328c-8.417,0-16.327,3.278-22.272,9.228L9.229,457.227   C3.278,463.176,0,471.086,0,479.5s3.278,16.324,9.226,22.27C15.173,507.722,23.083,511,31.5,511s16.327-3.278,22.272-9.228   l119.999-119.999c5.951-5.949,9.229-13.859,9.229-22.273c0-5.943-1.642-11.631-4.698-16.556c0.546-0.319,1.065-0.703,1.533-1.172   l23.391-23.391C235.937,348.545,279.601,367,327.5,367C428.682,367,511,284.682,511,183.5S428.682,0,327.5,0z M43.163,491.167   C40.05,494.284,35.908,496,31.5,496s-8.55-1.716-11.667-4.835C16.716,488.049,15,483.906,15,479.5s1.716-8.549,4.834-11.666   l106.697-106.697l23.331,23.331L43.163,491.167z M163.166,371.166l-2.697,2.697l-23.331-23.331l2.699-2.699   c3.113-3.116,7.255-4.833,11.663-4.833s8.55,1.716,11.667,4.835c3.117,3.116,4.833,7.258,4.833,11.665   S166.284,368.049,163.166,371.166z M327.5,352C234.589,352,159,276.411,159,183.5S234.589,15,327.5,15S496,90.589,496,183.5   S420.411,352,327.5,352z"
       fill="#bf0023"
       id="path2"
       style="fill:#36557c;fill-opacity:1" /><path
       d="M473.064,141.375c-9.877-34.188-31.68-63.969-61.392-83.858c-3.442-2.305-8.1-1.382-10.404,2.061   c-2.304,3.442-1.382,8.1,2.061,10.404c26.779,17.926,46.427,44.759,55.325,75.556c0.949,3.284,3.946,5.42,7.202,5.42   c0.689,0,1.39-0.096,2.085-0.297C471.92,149.512,474.214,145.354,473.064,141.375z"
       fill="#bf0023"
       id="path14"
       style="fill:#36557c;fill-opacity:1" /><path
       d="M312.324,319.167c-29.982-3.314-57.389-16.145-79.259-37.105c-2.99-2.867-7.738-2.765-10.604,0.225   c-2.866,2.99-2.766,7.738,0.225,10.604c23.926,22.931,55.175,37.558,87.989,41.185c0.28,0.031,0.558,0.046,0.833,0.046   c3.772,0,7.021-2.839,7.445-6.676C319.409,323.328,316.44,319.622,312.324,319.167z"
       fill="#bf0023"
       id="path16"
       style="fill:#36557c;fill-opacity:1" /><path
       d="M206.171,246.107c-1.902-3.68-6.428-5.12-10.107-3.217c-3.679,1.902-5.12,6.428-3.217,10.107   c2.601,5.029,5.519,9.969,8.675,14.683c1.447,2.161,3.821,3.329,6.239,3.329c1.434,0,2.884-0.411,4.166-1.269   c3.442-2.304,4.364-6.963,2.06-10.405C211.143,255.088,208.513,250.638,206.171,246.107z"
       fill="#bf0023"
       id="path18"
       style="fill:#36557c;fill-opacity:1" /><path
       d="M357.843,50.383c4.93,1.119,9.851,2.53,14.625,4.195c0.817,0.285,1.65,0.42,2.47,0.42c3.102,0,6.003-1.938,7.082-5.032   c1.364-3.911-0.701-8.188-4.612-9.551c-5.304-1.85-10.77-3.417-16.246-4.66c-4.038-0.917-8.057,1.614-8.974,5.654   C351.272,45.448,353.804,49.466,357.843,50.383z"
       fill="#bf0023"
       id="path20"
       style="fill:#36557c;fill-opacity:1" /></g><g
     id="g24" /><g
     id="g26" /><g
     id="g28" /><g
     id="g30" /><g
     id="g32" /><g
     id="g34" /><g
     id="g36" /><g
     id="g38" /><g
     id="g40" /><g
     id="g42" /><g
     id="g44" /><g
     id="g46" /><g
     id="g48" /><g
     id="g50" /><g
     id="g52" /></svg>