<?xml version="1.0" encoding="UTF-8" standalone="no"?>
<!-- Generator: Adobe Illustrator 19.0.0, SVG Export Plug-In . SVG Version: 6.00 Build 0)  -->

<svg
   xmlns:dc="http://purl.org/dc/elements/1.1/"
   xmlns:cc="http://creativecommons.org/ns#"
   xmlns:rdf="http://www.w3.org/1999/02/22-rdf-syntax-ns#"
   xmlns:svg="http://www.w3.org/2000/svg"
   xmlns="http://www.w3.org/2000/svg"
   xmlns:sodipodi="http://sodipodi.sourceforge.net/DTD/sodipodi-0.dtd"
   xmlns:inkscape="http://www.inkscape.org/namespaces/inkscape"
   version="1.1"
   id="Capa_1"
   x="0px"
   y="0px"
   viewBox="0 0 479 479"
   style="enable-background:new 0 0 479 479;"
   xml:space="preserve"
   width="512px"
   height="512px"
   sodipodi:docname="profiler.svg"
   inkscape:version="0.92.2 (5c3e80d, 2017-08-06)"><metadata
     id="metadata55"><rdf:RDF><cc:Work
         rdf:about=""><dc:format>image/svg+xml</dc:format><dc:type
           rdf:resource="http://purl.org/dc/dcmitype/StillImage" /></cc:Work></rdf:RDF></metadata><defs
     id="defs53" /><sodipodi:namedview
     pagecolor="#ffffff"
     bordercolor="#666666"
     borderopacity="1"
     objecttolerance="10"
     gridtolerance="10"
     guidetolerance="10"
     inkscape:pageopacity="0"
     inkscape:pageshadow="2"
     inkscape:window-width="1366"
     inkscape:window-height="705"
     id="namedview51"
     showgrid="false"
     inkscape:zoom="1"
     inkscape:cx="214.131"
     inkscape:cy="238.5702"
     inkscape:window-x="-8"
     inkscape:window-y="-8"
     inkscape:window-maximized="1"
     inkscape:current-layer="Capa_1" /><g
     id="g20" /><g
     id="g22" /><g
     id="g24" /><g
     id="g26" /><g
     id="g28" /><g
     id="g30" /><g
     id="g32" /><g
     id="g34" /><g
     id="g36" /><g
     id="g38" /><g
     id="g40" /><g
     id="g42" /><g
     id="g44" /><g
     id="g46" /><g
     id="g48" /><path
     style="fill:#bf0023;stroke-width:0.00390625"
     d=""
     id="path1032"
     inkscape:connector-curvature="0"
     transform="scale(0.93554688)" /><path
     style="fill:#bf0023;stroke-width:0.00390625"
     d=""
     id="path1058"
     inkscape:connector-curvature="0"
     transform="scale(0.93554688)" /><path
     style="fill:#bf0023;stroke-width:0.00390625"
     d=""
     id="path1061"
     inkscape:connector-curvature="0"
     transform="scale(0.93554688)" /><path
     style="fill:#bf0023;stroke-width:0.00390625"
     d=""
     id="path1085"
     inkscape:connector-curvature="0"
     transform="scale(0.93554688)" /><path
     style="fill:#bf0023;stroke-width:0.00390625"
     d=""
     id="path1087"
     inkscape:connector-curvature="0"
     transform="scale(0.93554688)" /><path
     style="fill:#bf0023;stroke-width:0.00390625"
     d=""
     id="path1099"
     inkscape:connector-curvature="0"
     transform="scale(0.93554688)" /><path
     style="fill:#bf0023;stroke-width:0.00390625"
     d=""
     id="path1101"
     inkscape:connector-curvature="0"
     transform="scale(0.93554688)" /><path
     style="fill:#bf0023;stroke-width:0.00390625"
     d=""
     id="path1103"
     inkscape:connector-curvature="0"
     transform="scale(0.93554688)" /><path
     style="fill:#bf0023;stroke-width:0.00390625"
     d=""
     id="path1301"
     inkscape:connector-curvature="0"
     transform="scale(0.93554688)" /><path
     style="fill:#bf0023;stroke-width:0.00390625"
     d=""
     id="path1303"
     inkscape:connector-curvature="0"
     transform="scale(0.93554688)" /><path
     style="fill:#bf0023;stroke-width:0.00390625"
     d=""
     id="path1327"
     inkscape:connector-curvature="0"
     transform="scale(0.93554688)" /><path
     style="fill:#bf0023;stroke-width:0.00390625"
     d=""
     id="path1329"
     inkscape:connector-curvature="0"
     transform="scale(0.93554688)" /><path
     style="fill:#bf0023;stroke-width:0.00390625"
     d=""
     id="path1331"
     inkscape:connector-curvature="0"
     transform="scale(0.93554688)" /><path
     style="fill:#bf0023;stroke-width:0.00390625"
     d=""
     id="path1333"
     inkscape:connector-curvature="0"
     transform="scale(0.93554688)" /><path
     style="fill:#bf0023;stroke-width:0.0078125"
     d=""
     id="path1475"
     inkscape:connector-curvature="0"
     transform="scale(0.93554688)" /><path
     style="fill:#bf0023;stroke-width:0.015625"
     d=""
     id="path1489"
     inkscape:connector-curvature="0"
     transform="scale(0.93554688)" /><path
     style="fill:#bf0023;stroke-width:0.015625"
     d=""
     id="path1491"
     inkscape:connector-curvature="0"
     transform="scale(0.93554688)" /><path
     style="fill:#bf0023;stroke-width:0.00552427"
     d=""
     id="path1509"
     inkscape:connector-curvature="0"
     transform="scale(0.93554688)" /><path
     style="fill:#bf0023;stroke-width:0.00552427"
     d=""
     id="path1511"
     inkscape:connector-curvature="0"
     transform="scale(0.93554688)" /><path
     style="fill:#bf0023;stroke-width:0.00552427"
     d=""
     id="path1513"
     inkscape:connector-curvature="0"
     transform="scale(0.93554688)" /><path
     style="fill:#ee1c24;fill-opacity:1;stroke:#ce4333;stroke-opacity:1"
     id="path2"
     d="m 278.24647,289.05655 82.667,-114.158 c 2.161,-2.984 1.834,-7.097 -0.771,-9.702 -2.605,-2.606 -6.718,-2.933 -9.702,-0.771 l -114.158,82.667 c -20.593,1.323 -36.944,18.487 -36.944,39.407 0,21.78 17.72,39.5 39.5,39.5 20.92,0 38.085,-16.351 39.408,-36.943 z m -4.004,-20.046 c -3.846,-7.754 -10.162,-14.07 -17.915,-17.915 l 64.944,-47.028 z m -59.904,17.489 c 0,-13.509 10.991,-24.5 24.5,-24.5 13.509,0 24.5,10.991 24.5,24.5 0,13.509 -10.991,24.5 -24.5,24.5 -13.509,0 -24.5,-10.991 -24.5,-24.5 z"
     inkscape:connector-curvature="0" /><path
     style="fill:#ee1c24;fill-opacity:1;stroke:#ce4333;stroke-opacity:1"
     id="path4"
     d="m 478.33447,286.42355 c -0.002,-3.423 -0.071,-6.855 -0.216,-10.297 -1.172,-27.675 -7.203,-54.697 -17.614,-79.992 -0.094,-0.433 -0.221,-0.864 -0.397,-1.288 -0.192,-0.464 -0.428,-0.898 -0.697,-1.301 -11.622,-27.317 -28.374,-52.56 -49.682,-74.34 -0.053,-0.055 -0.108,-0.107 -0.162,-0.162 -0.349,-0.683 -0.805,-1.326 -1.377,-1.897 -0.573,-0.573 -1.217,-1.03 -1.902,-1.379 -21.872,-21.487 -47.282,-38.378 -74.83,-50.044 -0.308,-0.183 -0.626,-0.354 -0.967,-0.495 -0.317,-0.131 -0.638,-0.23 -0.96,-0.316 -23.8,-9.832 -49.156,-15.785 -75.185,-17.426 -5.086,-0.32 -10.151,-0.465 -15.199,-0.474 -0.103,-0.002 -0.204,-0.013 -0.308,-0.013 -0.107,0 -0.212,0.012 -0.318,0.016 -28.356,0.024 -56.064,4.941 -82.563,14.714 -30.191,11.137 -57.451001,28.006 -81.024001,50.14 -1.796,1.687 -3.553,3.404 -5.291,5.137 -0.051,0.049 -0.106,0.091 -0.156,0.141 -0.063,0.063 -0.117,0.131 -0.177,0.195 -20.95,20.971 -37.631,45.286 -49.619,72.397 -13.5050004,30.544 -20.35200036,63.098 -20.35200036,96.76 0,48.145 14.27200036,94.6 41.27400036,134.344 7.299,10.742 19.504,17.156 32.647,17.156 h 13.579 c 4.142,0 7.5,-3.358 7.5,-7.5 0,-4.142 -3.358,-7.5 -7.5,-7.5 h -13.579 c -8.17,0 -15.736,-3.958 -20.24,-10.586 -7.179,-10.567 -13.396,-21.642 -18.621,-33.114 l 22.534,-9.334 c 3.827,-1.585 5.644,-5.973 4.059,-9.799 -1.585,-3.827 -5.973,-5.644 -9.799,-4.059 l -22.543,9.338 c -8.562,-22.745 -13.369,-46.817 -14.181,-71.446 h 24.37 c 4.142,0 7.5,-3.358 7.5,-7.5 0,-4.142 -3.358,-7.5 -7.5,-7.5 h -24.364 c 0.8,-24.642 5.541,-48.597 14.146,-71.457 l 22.572,9.35 c 0.938,0.389 1.911,0.573 2.867,0.573 2.943,0 5.736,-1.744 6.932,-4.632 1.585,-3.827 -0.232,-8.214 -4.059,-9.799 l -22.556,-9.343 c 10.16,-22.358 23.749,-42.659 40.508,-60.539 l 17.229,17.229 c 1.464,1.464 3.384,2.197 5.303,2.197 1.919,0 3.839001,-0.732 5.303001,-2.197 2.929,-2.929 2.929,-7.678 0,-10.606 l -17.232001,-17.234 c 18.176001,-17.009 38.575001,-30.621 60.502001,-40.602 l 9.384,22.654 c 1.197,2.888 3.989,4.632 6.932,4.632 0.957,0 1.929,-0.184 2.867,-0.573 3.827,-1.585 5.644,-5.973 4.059,-9.799 l -9.384,-22.655 c 22.665,-8.508 46.727,-13.287 71.491,-14.075 v 24.376 c 0,4.142 3.358,7.5 7.5,7.5 4.142,0 7.5,-3.358 7.5,-7.5 v -24.367 c 2.351,0.077 4.704,0.178 7.064,0.327 22.176,1.398 43.836,6.136 64.354,13.917 l -9.31,22.477 c -1.585,3.827 0.232,8.214 4.059,9.799 0.938,0.389 1.911,0.573 2.867,0.573 2.943,0 5.736,-1.744 6.932,-4.632 l 9.289,-22.425 c 21.952,10.066 42.347,23.734 60.35,40.619 l -16.987,16.987 c -2.929,2.929 -2.929,7.678 0,10.606 1.464,1.464 3.384,2.197 5.303,2.197 1.919,0 3.839,-0.732 5.303,-2.197 l 16.984,-16.984 c 16.872,18.031 30.513,38.436 40.569,60.369 l -22.372,9.267 c -3.827,1.585 -5.644,5.973 -4.059,9.799 1.197,2.888 3.989,4.632 6.932,4.632 0.957,0 1.929,-0.184 2.867,-0.573 l 22.424,-9.289 c 8.356,22.019 13.215,45.332 14.224,69.158 0.032,0.747 0.048,1.492 0.073,2.238 h -24.366 c -4.142,0 -7.5,3.358 -7.5,7.5 0,4.142 3.358,7.5 7.5,7.5 h 24.373 c -0.802,24.664 -5.584,48.709 -14.158,71.456 l -22.57,-9.349 c -3.826,-1.584 -8.214,0.232 -9.799,4.059 -1.585,3.827 0.232,8.214 4.059,9.799 l 22.544,9.338 c -5.224,11.45 -11.437,22.521 -18.633,33.112 -4.502,6.63 -12.068,10.587 -20.237,10.587 h -13.579 c -4.142,0 -7.5,3.358 -7.5,7.5 0,4.142 3.358,7.5 7.5,7.5 h 13.579 c 13.144,0 25.347,-6.413 32.646,-17.154 27.098,-39.884 41.265,-86.095 41.271,-134.246 0,-0.034 0.005,-0.066 0.005,-0.1 -0.001,-0.026 -0.005,-0.051 -0.005,-0.076 z"
     inkscape:connector-curvature="0" /><path
     inkscape:connector-curvature="0"
     id="path1138"
     d="m 71.097101,437.89203 c -8.303483,-0.47314 -16.17127,-3.46846 -22.556461,-8.5874 -3.656871,-2.93167 -5.867515,-5.46312 -9.3463,-10.70263 -5.765961,-8.68428 -10.257038,-16.47333 -14.969068,-25.96142 -1.651082,-3.32461 -4.40929,-9.18475 -4.829933,-10.26178 -0.04535,-0.1161 1.624127,-0.14608 8.11222,-0.14569 l 8.169311,4.8e-4 1.721378,3.47858 c 2.555667,5.16452 4.914232,9.53072 7.785604,14.41278 2.778795,4.72466 6.912452,11.17027 8.587198,13.39002 2.282391,3.02512 5.802337,5.81263 9.281962,7.35057 2.054864,0.90821 3.653768,1.38618 6.186602,1.84941 1.339371,0.24496 1.808334,0.25979 10.291015,0.3255 6.641583,0.0515 8.970894,0.10517 9.216903,0.21254 0.392115,0.17115 0.559485,0.18541 0.313981,0.0268 -0.113838,-0.0735 4.35047,-0.114 12.717587,-0.11516 l 12.89301,-0.002 v 0.29085 0.29086 l 3.94684,-0.058 c 2.17076,-0.0319 13.65606,-0.10961 25.52288,-0.17269 11.86684,-0.0631 24.58881,-0.14684 28.27106,-0.18609 l 6.69501,-0.0714 v 7.08677 7.08678 H 146.89 c -21.66867,0 -32.21789,0.0387 -32.21789,0.11842 0,0.0792 -4.23185,0.11917 -12.77606,0.12069 -10.492117,0.002 -12.995574,0.0326 -14.003971,0.17141 -0.970107,0.13361 -2.701029,0.16596 -8.244506,0.15407 -3.859131,-0.008 -7.706843,-0.0543 -8.550472,-0.10245 z m 19.137733,-0.63953 c 0.319456,-0.16188 0.580829,-0.32064 0.580829,-0.3528 0,-0.0524 -1.157337,0.49402 -1.276631,0.60273 -0.137972,0.12573 0.179548,0.0117 0.695802,-0.24993 z m 2.332578,-1.85074 0.370127,-0.48616 -0.408713,0.44757 c -0.224794,0.24617 -0.610126,0.63149 -0.856289,0.85629 l -0.447572,0.40872 0.486159,-0.37013 c 0.267386,-0.20358 0.652715,-0.5889 0.856288,-0.85629 z m 0.766369,-1.01982 c 0.248995,-0.48151 0.128291,-0.42909 -0.167903,0.0729 -0.135102,0.22897 -0.192545,0.38352 -0.127655,0.34341 0.06493,-0.0401 0.197886,-0.22745 0.295558,-0.41633 z m 0.747763,-1.74673 c -9.35e-4,-0.0965 -0.105146,0.0877 -0.230724,0.4093 -0.125579,0.32159 -0.22411,0.61102 -0.218956,0.64319 0.01993,0.12438 0.451944,-0.88677 0.44968,-1.05249 z m 0.08841,-0.48971 c -0.03733,-0.0933 -0.06502,-0.0656 -0.07063,0.0706 -0.0047,0.12328 0.02255,0.19235 0.06146,0.15348 0.03883,-0.0388 0.04303,-0.13972 0.0094,-0.22413 z m 0.118103,-0.64826 c -0.02966,-0.11379 -0.05585,-0.049 -0.05828,0.14395 -0.0028,0.19296 0.02189,0.28605 0.05389,0.20688 0.032,-0.0792 0.03396,-0.23705 0.0047,-0.35083 z m 0.119816,-1.287 c -0.02685,-0.17776 -0.04958,-0.0601 -0.05052,0.26151 -9.36e-4,0.3216 0.02114,0.46704 0.04884,0.32321 0.02779,-0.14384 0.02844,-0.40696 0.0019,-0.58472 z m -0.119816,-0.93493 c -0.02966,-0.11378 -0.05585,-0.049 -0.05828,0.14395 -0.0028,0.19296 0.02189,0.28606 0.05389,0.20688 0.032,-0.0792 0.03396,-0.23705 0.0047,-0.35083 z m -0.118103,-0.63811 c -0.03733,-0.0933 -0.06502,-0.0656 -0.07063,0.0706 -0.0047,0.12327 0.02255,0.19235 0.06146,0.15348 0.03883,-0.0388 0.04303,-0.13972 0.0094,-0.22414 z m -0.541879,-1.487 c -0.331679,-0.65016 -0.417852,-0.61142 -0.09915,0.0446 0.139939,0.28802 0.27448,0.50362 0.299001,0.47911 0.02451,-0.0245 -0.0654,-0.26018 -0.199852,-0.52368 z m -0.477577,-0.83747 c -0.0711,-0.13277 -0.454446,-0.57125 -0.85196,-0.97439 -0.645006,-0.65413 -0.658957,-0.66276 -0.12969,-0.0802 0.326185,0.35903 0.687453,0.79751 0.80282,0.97439 0.245394,0.37624 0.366276,0.43043 0.17883,0.0802 z M 91.1676,424.31605 c -0.304425,-0.25323 -1.329979,-0.80436 -1.488256,-0.79977 -0.05038,0.002 0.247617,0.18543 0.66221,0.40882 0.414593,0.2234 0.806645,0.459 0.871229,0.52359 0.06458,0.0646 0.146366,0.11568 0.181741,0.11353 0.03537,-0.002 -0.06674,-0.11291 -0.226924,-0.24617 z"
     style="fill:#ee1c24;fill-opacity:1;stroke:#ce4333;stroke-width:0.01169434;stroke-miterlimit:4;stroke-dasharray:none;stroke-opacity:1" /><path
     inkscape:connector-curvature="0"
     id="path1142"
     d="m 71.812368,437.93621 c -11.485207,-0.45703 -22.215186,-5.80689 -29.249627,-14.58356 -3.221777,-4.01971 -9.965214,-14.84073 -14.657223,-23.52006 -2.207642,-4.08371 -7.700244,-15.34054 -8.492214,-17.40439 -0.06972,-0.18167 0.506208,-0.19558 8.095118,-0.19558 h 8.170175 l 1.852252,3.71295 c 4.536457,9.0936 9.100028,16.98842 14.351408,24.82741 1.924219,2.87238 2.738507,3.89709 4.273109,5.37731 3.391707,3.27151 7.512328,5.43571 12.122866,6.36705 2.180971,0.44057 3.427147,0.49465 11.882548,0.5157 4.205713,0.0105 7.688072,0.0445 7.738573,0.0758 0.0505,0.0312 17.343517,0.0647 38.428927,0.0743 30.16439,0.0138 35.58234,0.0365 25.41487,0.10656 -21.79645,0.15023 -35.12856,0.28052 -32.91955,0.32169 2.26905,0.0423 40.59404,-0.16607 52.82916,-0.28722 l 7.45514,-0.0738 v 7.08755 7.08755 l -32.01325,0.0596 c -37.33944,0.0695 -58.304662,0.20737 -59.494929,0.39118 -0.727315,0.11232 -13.274493,0.16004 -15.787353,0.0601 z m 18.184692,-0.5648 c 0.160797,-0.092 0.239734,-0.16712 0.175415,-0.16712 -0.06432,0 -0.248505,0.0752 -0.409302,0.16712 -0.160797,0.0919 -0.239734,0.16713 -0.175415,0.16713 0.06432,0 0.248505,-0.0752 0.409302,-0.16713 z m 0.818603,-0.476 c 0,-0.0322 -0.105249,-0.002 -0.233886,0.0667 -0.128638,0.0689 -0.233887,0.15149 -0.233887,0.18364 0,0.0322 0.105249,0.002 0.233887,-0.0667 0.128637,-0.0689 0.233886,-0.15149 0.233886,-0.18365 z m 0.833521,-0.60572 c 0.145463,-0.18548 0.141327,-0.18962 -0.04416,-0.0442 -0.194797,0.15277 -0.256746,0.24881 -0.160497,0.24881 0.02429,0 0.116376,-0.0921 0.204651,-0.20465 z m 2.637722,-4.7289 c -0.03733,-0.0933 -0.06502,-0.0656 -0.07063,0.0706 -0.0047,0.12328 0.02255,0.19235 0.06146,0.15349 0.03883,-0.0388 0.04304,-0.13973 0.0094,-0.22414 z m 0.116944,-1.16944 c -0.03733,-0.0933 -0.06502,-0.0656 -0.07063,0.0706 -0.0047,0.12327 0.02255,0.19235 0.06147,0.15348 0.03883,-0.0388 0.04303,-0.13972 0.0094,-0.22413 z m -0.116944,-1.05249 c -0.03733,-0.0933 -0.06502,-0.0656 -0.07063,0.0706 -0.0047,0.12327 0.02255,0.19235 0.06146,0.15348 0.03883,-0.0388 0.04304,-0.13972 0.0094,-0.22413 z m -0.717452,-2.30607 c -0.256882,-0.49676 -0.340221,-0.45821 -0.09971,0.0461 0.106961,0.22431 0.215241,0.38707 0.240613,0.36169 0.02535,-0.0254 -0.03808,-0.2089 -0.140903,-0.40783 z m -0.882697,-1.33533 c 0,-0.0209 -0.144717,-0.16566 -0.321594,-0.32159 l -0.321594,-0.28351 0.283507,0.32159 c 0.26498,0.30058 0.359681,0.37522 0.359681,0.28351 z m -1.382342,-1.28148 c -0.06853,-0.0826 -0.351255,-0.275 -0.628272,-0.4276 -0.610493,-0.3363 -0.537264,-0.23092 0.15615,0.2247 0.585629,0.38479 0.643848,0.40981 0.472122,0.2029 z m 24.505285,-0.75382 c -0.24263,-0.0253 -0.611,-0.0249 -0.81861,9.4e-4 -0.2076,0.0258 -0.009,0.0466 0.44115,0.046 0.45023,-4.7e-4 0.62009,-0.0216 0.37746,-0.047 z"
     style="fill:#ee1c24;fill-opacity:1;stroke:#ce4333;stroke-width:0.01169434;stroke-miterlimit:4;stroke-dasharray:none;stroke-opacity:1" /><path
     inkscape:connector-curvature="0"
     id="path1144"
     d="m 70.81835,437.89075 c -11.561046,-0.70476 -22.359886,-6.51798 -29.165466,-15.70031 -2.977795,-4.01774 -8.451568,-12.80309 -12.400116,-19.90203 -2.212722,-3.97818 -6.764255,-13.01645 -8.636593,-17.15023 -0.689097,-1.5214 -1.252904,-2.79754 -1.252904,-2.83587 0,-0.0384 3.672824,-0.0697 8.161831,-0.0697 h 8.161831 l 1.613535,3.24518 c 4.502337,9.05519 9.251094,17.30218 14.494511,25.17206 1.583812,2.37715 2.507514,3.58293 3.701536,4.8319 3.406118,3.56286 7.752728,5.96272 12.66515,6.9927 1.352661,0.28361 2.153261,0.37133 4.293892,0.4705 1.649828,0.0764 19.336779,0.15068 47.420533,0.1991 43.02723,0.0742 44.136,0.0813 28.18335,0.18106 -9.13328,0.0572 -19.47399,0.14005 -22.97937,0.18429 -5.22176,0.0659 -5.69721,0.0836 -2.63123,0.0981 2.0582,0.01 15.00383,-0.0588 28.76807,-0.15247 13.76423,-0.0936 25.67052,-0.17137 26.45843,-0.17278 l 1.43256,-0.003 v 7.07507 7.07507 l -15.5827,2.4e-4 c -8.57049,1.1e-4 -20.95041,0.0303 -27.51093,0.0671 -34.21445,0.19173 -47.451984,0.30009 -48.297606,0.39537 -1.121435,0.12635 -14.820024,0.1249 -16.898314,-0.002 z m 22.70152,-10.90002 c -0.115493,-0.11463 -0.128928,-0.10119 -0.06549,0.0655 0.04388,0.11534 0.1093,0.18024 0.145309,0.14424 0.03602,-0.036 7.5e-5,-0.13037 -0.0799,-0.20971 z"
     style="fill:#ee1c24;fill-opacity:1;stroke:#ce4333;stroke-width:0.01169434;stroke-miterlimit:4;stroke-dasharray:none;stroke-opacity:1" /><path
     inkscape:connector-curvature="0"
     id="path1146"
     d="m 71.461538,437.93725 c -5.526147,-0.33262 -10.360898,-1.53288 -15.185523,-3.76992 -2.412048,-1.1184 -5.417761,-2.99255 -7.618432,-4.75033 -3.833673,-3.06213 -6.031559,-5.58651 -9.727586,-11.17263 -5.370643,-8.11709 -9.84068,-15.8573 -14.256811,-24.68675 -2.40866,-4.81578 -5.309915,-10.97045 -5.309915,-11.26435 0,-0.0334 3.67515,-0.0606 8.167,-0.0606 h 8.167001 l 1.373,2.7774 c 4.417641,8.93633 9.187463,17.25874 14.33096,25.00475 2.105792,3.17128 2.753382,4.03719 4.047187,5.41159 3.105226,3.29867 7.371114,5.75651 11.920102,6.86791 2.278824,0.55675 3.325809,0.62548 10.540952,0.6919 3.721665,0.0342 8.950581,0.0874 11.619814,0.1181 2.669232,0.0307 20.666823,0.0649 39.994623,0.0761 l 35.14148,0.0203 -18.24316,0.14437 c -10.03374,0.0794 -19.87014,0.14982 -21.85866,0.15648 -1.98852,0.007 -3.58509,0.0426 -3.54793,0.0797 0.0613,0.0613 22.26825,-0.0577 48.06437,-0.25763 l 10.02789,-0.0777 v 7.07591 7.0759 l -28.50494,0.0788 c -33.98858,0.094 -59.722045,0.269 -62.301579,0.42377 -1.649829,0.099 -15.311247,0.12901 -16.839843,0.0371 z"
     style="fill:#ee1c24;fill-opacity:1;stroke:#ce4333;stroke-width:0.01169434;stroke-miterlimit:4;stroke-dasharray:none;stroke-opacity:1" /><path
     inkscape:connector-curvature="0"
     id="path1206"
     d=""
     style="fill:#ce4333;fill-opacity:1;stroke:#ce4333;stroke-width:0.00206729;stroke-miterlimit:4;stroke-dasharray:none;stroke-opacity:1" /><path
     inkscape:connector-curvature="0"
     id="path1296"
     d=""
     style="fill:#ce4333;fill-opacity:1;stroke:#ce4333;stroke-width:0.00206729;stroke-miterlimit:4;stroke-dasharray:none;stroke-opacity:1" /><path
     inkscape:connector-curvature="0"
     id="path1298"
     d=""
     style="fill:#ce4333;fill-opacity:1;stroke:#ce4333;stroke-width:0.00206729;stroke-miterlimit:4;stroke-dasharray:none;stroke-opacity:1" /><path
     id="path2-3"
     style="fill:#ee1c24;fill-opacity:1;stroke-width:1.06073797"
     d="m 157.11013,63.635189 c -2.27635,1.438866 -4.53297,2.86571 -6.11877,3.880913 0.0278,0.07637 0.0526,0.153466 0.0807,0.229768 0.0832,0.225483 0.2233,0.36088 0.40563,0.425426 1.86182,-0.991692 2.82787,-1.428121 0.96666,-0.123862 1.29299,-0.497051 3.17045,-2.105237 4.66777,-3.525491 -5.6e-4,-0.295645 -0.002,-0.591108 -0.002,-0.886754 z M 72.385287,422.84725 c -0.09691,1.76395 0.258125,-0.639 0.175415,1.09188 -0.0093,3.67981 0.744292,10.80143 0.538043,14.4678 l 324.902365,0.16865 c -0.0406,-5.43484 0.0426,-10.29506 0.01,-15.7298 z"
     inkscape:connector-curvature="0"
     sodipodi:nodetypes="cccccccccccccc" /></svg>