<?xml version="1.0" encoding="UTF-8" standalone="no"?>
<!-- Generator: Adobe Illustrator 19.0.0, SVG Export Plug-In . SVG Version: 6.00 Build 0)  -->

<svg
   xmlns:dc="http://purl.org/dc/elements/1.1/"
   xmlns:cc="http://creativecommons.org/ns#"
   xmlns:rdf="http://www.w3.org/1999/02/22-rdf-syntax-ns#"
   xmlns:svg="http://www.w3.org/2000/svg"
   xmlns="http://www.w3.org/2000/svg"
   xmlns:sodipodi="http://sodipodi.sourceforge.net/DTD/sodipodi-0.dtd"
   xmlns:inkscape="http://www.inkscape.org/namespaces/inkscape"
   version="1.1"
   id="Capa_1"
   x="0px"
   y="0px"
   viewBox="0 0 511 511"
   style="enable-background:new 0 0 511 511;"
   xml:space="preserve"
   width="512px"
   height="512px"
   sodipodi:docname="projects.svg"
   inkscape:version="0.92.2 (5c3e80d, 2017-08-06)"><metadata
     id="metadata93"><rdf:RDF><cc:Work
         rdf:about=""><dc:format>image/svg+xml</dc:format><dc:type
           rdf:resource="http://purl.org/dc/dcmitype/StillImage" /></cc:Work></rdf:RDF></metadata><defs
     id="defs91" /><sodipodi:namedview
     pagecolor="#ffffff"
     bordercolor="#666666"
     borderopacity="1"
     objecttolerance="10"
     gridtolerance="10"
     guidetolerance="10"
     inkscape:pageopacity="0"
     inkscape:pageshadow="2"
     inkscape:window-width="1366"
     inkscape:window-height="705"
     id="namedview89"
     showgrid="false"
     inkscape:zoom="0.3535534"
     inkscape:cx="-598.60655"
     inkscape:cy="263.10132"
     inkscape:window-x="-8"
     inkscape:window-y="-8"
     inkscape:window-maximized="1"
     inkscape:current-layer="g56"
     showguides="true"
     inkscape:guide-bbox="true" /><g
     id="g56"><path
       d="m 44.12632,194.9609 h 30.80986 c 2.278829,0 4.12632,-3.358 4.12632,-7.5 0,-4.142 -1.847491,-7.5 -4.12632,-7.5 H 44.12632 c -2.278829,0 -4.12632,3.358 -4.12632,7.5 0,4.142 1.847491,7.5 4.12632,7.5 z"
       id="path12"
       inkscape:connector-curvature="0"
       style="fill:#ee1c24;stroke-width:0.74173856;fill-opacity:1" /><path
       d="M 105.18684,217.96481 H 61.78191 c -3.210414,0 -5.81316,3.358 -5.81316,7.5 0,4.142 2.602746,7.5 5.81316,7.5 h 43.40493 c 3.21041,0 5.81316,-3.358 5.81316,-7.5 0,-4.142 -2.60275,-7.5 -5.81316,-7.5 z"
       id="path14"
       inkscape:connector-curvature="0"
       style="fill:#ee1c24;stroke-width:0.88039082;fill-opacity:1" /><path
       d="M 105.39769,257.96481 H 63.567149 c -3.093967,0 -5.602305,3.358 -5.602305,7.5 0,4.142 2.508338,7.5 5.602305,7.5 h 41.830541 c 3.09397,0 5.60231,-3.358 5.60231,-7.5 0,-4.142 -2.50834,-7.5 -5.60231,-7.5 z"
       id="path16"
       inkscape:connector-curvature="0"
       style="fill:#ee1c24;stroke-width:0.86427659;fill-opacity:1" /><path
       d="M 94.573806,297.96481 H 46.445725 c -3.559759,0 -6.445725,3.358 -6.445725,7.5 0,4.142 2.885966,7.5 6.445725,7.5 h 48.128081 c 3.559759,0 6.445724,-3.358 6.445724,-7.5 0,-4.142 -2.885965,-7.5 -6.445724,-7.5 z"
       id="path18"
       inkscape:connector-curvature="0"
       style="fill:#ee1c24;stroke-width:0.92705446;fill-opacity:1" /><path
       d="m 231.5,194.9609 h 56 c 4.142,0 7.5,-3.358 7.5,-7.5 0,-4.142 -3.358,-7.5 -7.5,-7.5 h -56 c -4.142,0 -7.5,3.358 -7.5,7.5 0,4.142 3.358,7.5 7.5,7.5 z"
       id="path20"
       inkscape:connector-curvature="0"
       style="fill:#ee1c24;fill-opacity:1" /><path
       d="m 231.5,232.96481 h 120 c 4.142,0 7.5,-3.358 7.5,-7.5 0,-4.142 -3.358,-7.5 -7.5,-7.5 h -120 c -4.142,0 -7.5,3.358 -7.5,7.5 0,4.142 3.358,7.5 7.5,7.5 z"
       id="path22"
       inkscape:connector-curvature="0"
       style="fill:#ee1c24;fill-opacity:1" /><path
       d="m 231.5,272.96481 h 88 c 4.142,0 7.5,-3.358 7.5,-7.5 0,-4.142 -3.358,-7.5 -7.5,-7.5 h -88 c -4.142,0 -7.5,3.358 -7.5,7.5 0,4.142 3.358,7.5 7.5,7.5 z"
       id="path24"
       inkscape:connector-curvature="0"
       style="fill:#ee1c24;fill-opacity:1" /><path
       d="m 423.5,297.96481 h -192 c -4.142,0 -7.5,3.358 -7.5,7.5 0,4.142 3.358,7.5 7.5,7.5 h 192 c 4.142,0 7.5,-3.358 7.5,-7.5 0,-4.142 -3.358,-7.5 -7.5,-7.5 z"
       id="path26"
       inkscape:connector-curvature="0"
       style="fill:#ee1c24;fill-opacity:1" /><path
       d="m 231.5,392.96481 h 16 c 4.142,0 7.5,-3.358 7.5,-7.5 0,-4.142 -3.358,-7.5 -7.5,-7.5 h -16 c -4.142,0 -7.5,3.358 -7.5,7.5 0,4.142 3.358,7.5 7.5,7.5 z"
       id="path32"
       inkscape:connector-curvature="0"
       style="fill:#ee1c24;fill-opacity:1" /><path
       d="m 263.5,336.12497 h -32 c -4.142,0 -7.5,3.358 -7.5,7.5 0,4.142 3.358,7.5 7.5,7.5 h 32 c 4.142,0 7.5,-3.358 7.5,-7.5 0,-4.142 -3.358,-7.5 -7.5,-7.5 z"
       id="path34"
       inkscape:connector-curvature="0"
       style="fill:#ee1c24;fill-opacity:1" /><path
       d="m 399.5,377.96481 h -120 c -4.142,0 -7.5,3.358 -7.5,7.5 0,4.142 3.358,7.5 7.5,7.5 h 120 c 4.142,0 7.5,-3.358 7.5,-7.5 0,-4.142 -3.358,-7.5 -7.5,-7.5 z"
       id="path36"
       inkscape:connector-curvature="0"
       style="fill:#ee1c24;fill-opacity:1" /><path
       d="m 343.5,336.12497 h -48 c -4.142,0 -7.5,3.358 -7.5,7.5 0,4.142 3.358,7.5 7.5,7.5 h 48 c 4.142,0 7.5,-3.358 7.5,-7.5 0,-4.142 -3.358,-7.5 -7.5,-7.5 z"
       id="path38"
       inkscape:connector-curvature="0"
       style="fill:#ee1c24;fill-opacity:1" /><path
       d="m 199.5,179.9609 h -16 c -4.142,0 -7.5,3.358 -7.5,7.5 0,4.142 3.358,7.5 7.5,7.5 h 16 c 4.142,0 7.5,-3.358 7.5,-7.5 0,-4.142 -3.358,-7.5 -7.5,-7.5 z"
       id="path40"
       inkscape:connector-curvature="0"
       style="fill:#ee1c24;fill-opacity:1" /><path
       d="m 199.5,217.96481 h -16 c -4.142,0 -7.5,3.358 -7.5,7.5 0,4.142 3.358,7.5 7.5,7.5 h 16 c 4.142,0 7.5,-3.358 7.5,-7.5 0,-4.142 -3.358,-7.5 -7.5,-7.5 z"
       id="path42"
       inkscape:connector-curvature="0"
       style="fill:#ee1c24;fill-opacity:1" /><path
       d="m 199.5,297.96481 h -16 c -4.142,0 -7.5,3.358 -7.5,7.5 0,4.142 3.358,7.5 7.5,7.5 h 16 c 4.142,0 7.5,-3.358 7.5,-7.5 0,-4.142 -3.358,-7.5 -7.5,-7.5 z"
       id="path46"
       inkscape:connector-curvature="0"
       style="fill:#ee1c24;fill-opacity:1" /><path
       d="M 105.39769,337.96481 H 63.567149 c -3.093967,0 -5.602305,3.358 -5.602305,7.5 0,4.142 2.508338,7.5 5.602305,7.5 h 41.830541 c 3.09397,0 5.60231,-3.358 5.60231,-7.5 0,-4.142 -2.50834,-7.5 -5.60231,-7.5 z"
       id="path48"
       inkscape:connector-curvature="0"
       style="fill:#ee1c24;stroke-width:0.86427659;fill-opacity:1" /><path
       d="M 107.50624,377.96481 H 81.419537 c -1.929485,0 -3.493756,3.358 -3.493756,7.5 0,4.142 1.564271,7.5 3.493756,7.5 h 26.086703 c 1.92949,0 3.49376,-3.358 3.49376,-7.5 0,-4.142 -1.56427,-7.5 -3.49376,-7.5 z"
       id="path50"
       inkscape:connector-curvature="0"
       style="fill:#ee1c24;stroke-width:0.68252039;fill-opacity:1" /><path
       id="path54"
       style="fill:#ee1c24;stroke-width:1;fill-opacity:1"
       d="M 39.500824,55.999786 C 17.720824,55.999786 0,73.720611 0,95.500611 V 415.4994 c 0,21.77999 17.720824,39.50121 39.500824,39.50081 H 471.49918 c 21.78,0 39.50082,-17.72082 39.50082,-39.50081 V 95.500611 c 0,-21.78 -17.72082,-39.500825 -39.50082,-39.500825 z m 0,14.999943 H 471.49918 c 13.509,0 24.50088,10.991882 24.50088,24.500882 v 24.498939 h -0.0331 v 0.14035 0.37426 0.37427 0.37427 0.37427 0.37426 0.37427 0.37427 0.37427 0.37427 0.37426 0.37427 0.37427 0.37427 0.37426 0.37232 0.4191 0.5809 0.43664 0.37427 0.37427 0.37427 0.37426 0.37427 0.37427 0.37427 0.37426 0.37427 0.37427 0.37427 0.37426 0.37427 c 0,0.12477 1e-5,0.2495 0,0.37427 -2e-5,0.12476 -9e-5,0.24951 0,0.37427 0,0.10381 -1.8e-4,0.20795 0,0.31189 4e-5,0.0202 -8e-5,0.0401 0,0.0605 v 0.1267 0.35868 0.0156 c 0.003,0.0592 0.002,0.11843 0,0.17543 v 0.19884 0.37232 0.38011 0.19688 h 0.0331 v 185.00124 h -0.0507 v 0.45809 0.52437 0.53021 0.0877 0.2651 0.17545 0.35282 0.17738 c 4.7e-4,0.014 -4e-4,0.0218 0,0.0351 2e-5,0.003 0,0.005 0,0.008 v 0.30995 0.154 c 0,0.0367 0.008,0.0731 0,0.10915 v 0.26511 0.53022 0.52825 0.53022 0.52826 0.53021 0.52827 0.53021 0.52826 0.53022 0.5302 0.52827 0.53021 0.52827 0.52436 0.35867 c 0.0528,0.21751 -0.0395,0.6434 0,0.8811 v 1.05652 1.05068 0.79532 h 0.0507 v 80.49871 c 0,13.50901 -10.99188,24.50089 -24.50088,24.50089 H 150.99942 V 335.00068 h 0.0877 c -0.002,-0.0219 -0.008,-0.0386 -0.008,-0.0624 v -0.59649 -0.37037 -0.37427 -0.37426 -0.44444 -0.36842 -0.37232 -0.37427 -0.37427 -0.37427 -0.37427 -0.37426 -0.37427 -0.37427 -0.50682 -0.36257 -0.37817 -0.37426 -0.37427 -0.37427 -0.37427 -0.37426 -0.37427 -0.37427 -0.37427 -0.37426 -0.37427 -0.37427 -0.37427 -0.37427 -0.50681 -0.36842 -0.37232 -0.37427 -0.37427 -0.37427 -0.37426 -0.37427 -0.18519 h -0.0799 V 134.99949 h 0.0254 v -2.64327 -2.09746 -2.115 -2.11694 -2.11696 -2.11695 c 0,-0.17596 0.0109,-0.3072 0.0292,-0.42495 -0.0147,-0.14769 -0.0292,-0.29521 -0.0292,-0.45809 l 0.22811,-50.034381 -15.56783,0.0266 -0.046,19.910153 v 0.292388 0.518526 l 0.12476,29.814984 v 0.61988 0.61793 0.51656 0.67252 0.62962 0.82652 c 0,0.17642 1e-5,0.35182 0,0.52825 v 0.53022 c -4e-5,0.17607 -4.5e-4,0.35221 0,0.52826 3.3e-4,0.1749 -8e-5,0.34948 -0.002,0.52437 0.003,0.19808 0.0187,0.39758 -0.0117,0.59453 -0.007,0.0409 -0.006,0.0501 -0.008,0.0468 0.0915,0.15727 0.10854,0.16818 0.10721,0.33528 -1.3e-4,0.19225 0.0165,0.38509 0,0.577 -0.0104,0.0935 -0.0161,0.15017 -0.0195,0.15009 -0.0187,-4.4e-4 -0.0129,-0.0351 -0.0234,-0.0507 -0.007,-0.0103 -0.0155,-0.0197 -0.0233,-0.0292 0.0556,0.10611 0.10545,0.21589 0.15789,0.32359 v 0.52826 0.53021 0.52827 0.53021 0.52826 0.53021 0.52827 0.52826 0.52631 0.84211 c 0,0.007 -0.002,0.0122 -0.002,0.0195 h 0.0604 V 440.00028 H 39.500824 c -13.508999,0 -24.500881,-10.99188 -24.500881,-24.50088 V 134.99949 h 0.173488 v -1.21052 -2.11695 -2.11696 -2.11695 -2.11694 -2.115 -2.09747 -1.10915 H 14.999943 V 95.500611 c 0,-13.509 10.991882,-24.500882 24.500881,-24.500882 z M 25.756238,119.99955 c -0.0011,0.48992 -0.0043,0.97971 -0.0039,1.46978 0.0054,-0.10731 0.0045,-0.18975 0.01364,-0.3158 0.01429,-0.19599 0.03815,-0.39001 0.06433,-0.58478 0.01539,-0.11454 0.09295,-0.21976 0.08966,-0.33529 -0.0023,-0.079 -0.0247,-0.15633 -0.04289,-0.23391 z m 59.954936,0 c -0.01621,0.065 -0.05254,0.20812 -0.06823,0.27095 0.0473,-0.09 0.09329,-0.18079 0.14035,-0.27095 z m 49.999806,8.01751 c 0.0102,0.0183 0.0129,0.0221 0.0215,0.037 -0.003,-0.009 -0.004,-0.0139 -0.0137,-0.0273 -0.002,-0.003 -0.005,-0.006 -0.008,-0.01 z m -113.481045,0.28459 v 2.28265 c 0.01917,-0.12555 0.0461,-0.25042 0.06238,-0.37622 0.0078,-0.62549 -0.01089,-1.25154 -0.02534,-1.87718 -0.01246,-0.01 -0.02463,-0.0195 -0.03704,-0.0292 z m 133.340625,1.97466 c -0.0145,0.036 -0.0497,0.0889 -0.0702,0.1306 0.004,0.008 0.0121,0.0296 0.0156,0.037 0.0229,-0.0437 0.0436,-0.0856 0.0663,-0.12866 -0.003,-0.0132 -0.008,-0.0258 -0.0117,-0.039 z m 78.61958,4.58283 c -0.11743,0.035 -0.22465,0.0891 -0.33333,0.14035 h 0.269 c 0.0213,-0.0466 0.0408,-0.0937 0.0644,-0.14035 z m 195.5938,191.47685 c -0.23111,0.006 -0.46266,0.0169 -0.69395,0.0254 h 1.0955 5.07795 c -1.82694,-0.006 -3.65243,-0.0378 -5.4795,-0.0254 z m -277.08277,3.89278 c -8.6e-4,5.9e-4 -0.003,0.007 -0.004,0.008 -0.003,0.0859 -0.0104,0.18896 0.002,0.12671 9.9e-4,0.0158 3.6e-4,0.0293 0.002,0.0448 -1e-5,-0.0598 1e-5,-0.11955 0,-0.17934 z m 0,0.67836 c -0.0104,0.11453 -0.0211,0.22793 -0.0663,0.34892 -0.0155,0.0415 -0.0222,0.12966 -0.0585,0.12086 v 0.59844 0.74853 0.74659 0.74269 0.78752 h 0.12281 c 5.3e-4,-0.23602 6.5e-4,-0.4229 0.002,-0.67641 -7e-5,-0.004 7e-5,-0.006 0,-0.01 -0.008,-0.39901 -1.9e-4,-0.89032 0,-1.49902 2.3e-4,-0.6362 7e-5,-1.27228 0,-1.90837 z"
       inkscape:connector-curvature="0"
       sodipodi:nodetypes="ssscsssssssscccccccccccccccccccccccccccccccccsccccccccccccccccccccccccscsccccccccccccccccccccccsscccscccccccccccccccccccccccccccccccccccccccccccccccscscccccccccccsccccccccsccccccccccccscccsscccccccccccssccccccccccccccccccccccccccccccccccccccccccccccccccccccccc" /><path
       inkscape:connector-curvature="0"
       style="fill:#ee1c24;stroke-width:1.4950335;fill-opacity:1"
       d="m 195.02658,117.28515 h 125.16701 c 9.25788,0 16.76344,-3.358 16.76344,-7.5 0,-4.142 -7.50556,-7.49999 -16.76344,-7.49999 H 195.02658 c -9.25789,0 -16.76343,3.35799 -16.76343,7.49999 0,4.142 7.50554,7.5 16.76343,7.5 z"
       id="path20-9" /><path
       inkscape:connector-curvature="0"
       style="fill:#ee1c24;stroke-width:1.4774425;fill-opacity:1"
       d="M 194.11619,156.73509 H 316.355 c 9.04131,0 16.37127,-3.358 16.37127,-7.5 0,-4.142 -7.32996,-7.5 -16.37127,-7.5 H 194.11619 c -9.04131,0 -16.37127,3.358 -16.37127,7.5 0,4.142 7.32996,7.5 16.37127,7.5 z"
       id="path20-0" /><path
       d="M 85.642948,140.2314 H 37.51487 c -3.559759,0 -6.445725,3.358 -6.445725,7.5 0,4.142 2.885966,7.5 6.445725,7.5 h 48.128078 c 3.55976,0 6.445724,-3.358 6.445724,-7.5 0,-4.142 -2.885964,-7.5 -6.445724,-7.5 z"
       id="path18-7"
       inkscape:connector-curvature="0"
       style="fill:#ee1c24;stroke-width:0.92705441;fill-opacity:1" /><path
       inkscape:connector-curvature="0"
       style="fill:#ee1c24;stroke-width:1;fill-opacity:1"
       d="m 366.97849,102.13224 h -16 c -4.142,0 -7.5,3.358 -7.5,7.5 0,4.14199 3.358,7.5 7.5,7.5 h 16 c 4.142,0 7.5,-3.35801 7.5,-7.5 0,-4.142 -3.358,-7.5 -7.5,-7.5 z"
       id="path40-6" /><path
       d="M 86.088382,102.91077 H 37.960289 c -3.559759,0 -6.445725,3.358 -6.445725,7.5 0,4.142 2.885966,7.5 6.445725,7.5 h 48.128093 c 3.559764,0 6.445732,-3.358 6.445732,-7.5 0,-4.142 -2.885968,-7.5 -6.445732,-7.5 z"
       id="path18-7-0"
       inkscape:connector-curvature="0"
       style="fill:#ee1c24;stroke-width:0.92705435;fill-opacity:1" /></g><g
     id="g58" /><g
     id="g60" /><g
     id="g62" /><g
     id="g64" /><g
     id="g66" /><g
     id="g68" /><g
     id="g70" /><g
     id="g72" /><g
     id="g74" /><g
     id="g76" /><g
     id="g78" /><g
     id="g80" /><g
     id="g82" /><g
     id="g84" /><g
     id="g86" /></svg>