<?xml version="1.0" encoding="UTF-8" standalone="no"?>
<!-- Created with Inkscape (http://www.inkscape.org/) -->

<svg
   xmlns:dc="http://purl.org/dc/elements/1.1/"
   xmlns:cc="http://creativecommons.org/ns#"
   xmlns:rdf="http://www.w3.org/1999/02/22-rdf-syntax-ns#"
   xmlns:svg="http://www.w3.org/2000/svg"
   xmlns="http://www.w3.org/2000/svg"
   xmlns:sodipodi="http://sodipodi.sourceforge.net/DTD/sodipodi-0.dtd"
   xmlns:inkscape="http://www.inkscape.org/namespaces/inkscape"
   width="121.18088mm"
   height="73.726677mm"
   viewBox="0 0 429.38106 261.23626"
   id="svg24018"
   version="1.1"
   inkscape:version="0.91 r13725"
   sodipodi:docname="body-background2.svg">
  <defs
     id="defs24020">
    <clipPath
       clipPathUnits="userSpaceOnUse"
       id="clipPath10350">
      <path
         d="m 659.539,1173.511 364.46,0 0,217.998 -364.46,0 0,-217.998 z"
         id="path10352"
         inkscape:connector-curvature="0" />
    </clipPath>
    <clipPath
       clipPathUnits="userSpaceOnUse"
       id="clipPath10358">
      <path
         d="m 680.494,1505.22 367.356,0 0,-322.7 -367.356,0 0,322.7 z"
         id="path10360"
         inkscape:connector-curvature="0" />
    </clipPath>
  </defs>
  <sodipodi:namedview
     id="base"
     pagecolor="#ffffff"
     bordercolor="#666666"
     borderopacity="1.0"
     inkscape:pageopacity="0.0"
     inkscape:pageshadow="2"
     inkscape:zoom="0.35"
     inkscape:cx="572.54768"
     inkscape:cy="56.332395"
     inkscape:document-units="px"
     inkscape:current-layer="layer1"
     showgrid="false"
     fit-margin-top="0"
     fit-margin-left="0"
     fit-margin-right="0"
     fit-margin-bottom="0"
     inkscape:window-width="1366"
     inkscape:window-height="712"
     inkscape:window-x="0"
     inkscape:window-y="0"
     inkscape:window-maximized="1" />
  <metadata
     id="metadata24023">
    <rdf:RDF>
      <cc:Work
         rdf:about="">
        <dc:format>image/svg+xml</dc:format>
        <dc:type
           rdf:resource="http://purl.org/dc/dcmitype/StillImage" />
        <dc:title></dc:title>
      </cc:Work>
    </rdf:RDF>
  </metadata>
  <g
     inkscape:label="Layer 1"
     inkscape:groupmode="layer"
     id="layer1"
     transform="translate(666.11911,-327.45835)">
    <g
       transform="matrix(1.25,0,0,-1.25,-1516.7368,2066.8446)"
       id="g10346">
      <g
         id="g10348"
         clip-path="url(#clipPath10350)">
        <g
           id="g10354">
          <g
             id="g10356" />
          <g
             id="g10362">
            <g
               clip-path="url(#clipPath10358)"
               id="g10364"
               style="opacity:0.30000299">
              <g
                 transform="translate(759.0073,1477.9092)"
                 id="g10366">
                <path
                   d="m 0,0 3.855,-20.223 17.92,8.651 L 0,0 Z m 3.246,-21.072 c -0.043,0.051 -0.072,0.113 -0.086,0.181 L -0.951,0.676 c -0.029,0.152 0.031,0.306 0.156,0.4 0.125,0.092 0.293,0.106 0.43,0.031 l 23.222,-12.339 c 0.135,-0.073 0.219,-0.213 0.215,-0.368 -0.002,-0.15 -0.092,-0.287 -0.228,-0.355 L 3.732,-21.178 c -0.113,-0.054 -0.244,-0.054 -0.357,0.002 -0.049,0.026 -0.094,0.061 -0.129,0.104 z"
                   style="fill:none;stroke:#820d07;stroke-width:1;stroke-linecap:butt;stroke-linejoin:miter;stroke-miterlimit:10;stroke-dasharray:none;stroke-opacity:1"
                   id="path10368"
                   inkscape:connector-curvature="0" />
              </g>
              <g
                 transform="translate(800.3276,1476.1807)"
                 id="g10370">
                <path
                   d="M 0,0 -40.088,1.988 -18.646,-9.406 0,0 Z m -42.186,2.221 c -0.084,0.099 -0.115,0.236 -0.08,0.367 0.051,0.182 0.221,0.305 0.411,0.295 L 1.566,0.73 C 1.75,0.721 1.904,0.59 1.941,0.41 1.979,0.23 1.893,0.049 1.729,-0.035 l -20.2,-10.186 c -0.117,-0.06 -0.254,-0.058 -0.371,0.004 L -42.064,2.125 c -0.049,0.023 -0.09,0.057 -0.122,0.096 z"
                   style="fill:none;stroke:#820d07;stroke-width:1;stroke-linecap:butt;stroke-linejoin:miter;stroke-miterlimit:10;stroke-dasharray:none;stroke-opacity:1"
                   id="path10372"
                   inkscape:connector-curvature="0" />
              </g>
              <g
                 transform="translate(801.9507,1476.0928)"
                 id="g10374">
                <path
                   d="M 0,0 -18.082,-9.119 32.299,-3.422 0,0 Z m -20.586,-10.031 c -0.033,0.041 -0.06,0.088 -0.076,0.14 -0.057,0.19 0.031,0.391 0.205,0.477 L -0.258,0.775 c 0.069,0.036 0.147,0.049 0.225,0.041 l 36.084,-3.824 c 0.203,-0.021 0.361,-0.193 0.359,-0.4 0.002,-0.205 -0.152,-0.379 -0.357,-0.403 l -56.283,-6.363 c -0.139,-0.015 -0.27,0.041 -0.356,0.143 z"
                   style="fill:none;stroke:#820d07;stroke-width:1;stroke-linecap:butt;stroke-linejoin:miter;stroke-miterlimit:10;stroke-dasharray:none;stroke-opacity:1"
                   id="path10376"
                   inkscape:connector-curvature="0" />
              </g>
              <g
                 transform="translate(837.7456,1472.2529)"
                 id="g10378">
                <path
                   d="M 0,0 -54.76,-6.191 32.613,-54.072 0,0 Z m -56.381,-6.191 c -0.076,0.089 -0.109,0.212 -0.086,0.336 0.035,0.171 0.176,0.302 0.352,0.322 L 0.168,0.832 C 0.324,0.848 0.475,0.771 0.559,0.639 l 33.519,-55.577 c 0.094,-0.154 0.072,-0.355 -0.055,-0.486 -0.125,-0.133 -0.324,-0.162 -0.486,-0.074 l -89.801,49.211 c -0.045,0.023 -0.086,0.057 -0.117,0.096 z"
                   style="fill:none;stroke:#820d07;stroke-width:1;stroke-linecap:butt;stroke-linejoin:miter;stroke-miterlimit:10;stroke-dasharray:none;stroke-opacity:1"
                   id="path10380"
                   inkscape:connector-curvature="0" />
              </g>
              <g
                 transform="translate(838.5425,1472.4951)"
                 id="g10382">
                <path
                   d="M 0,0 32.115,-53.248 20.291,8.74 0,0 Z m 32.625,-55.646 c -0.014,0.015 -0.025,0.033 -0.035,0.05 L -0.93,-0.02 c -0.06,0.1 -0.074,0.221 -0.039,0.331 0.035,0.111 0.117,0.201 0.225,0.248 L 20.434,9.68 c 0.113,0.049 0.242,0.045 0.349,-0.012 0.108,-0.061 0.184,-0.162 0.207,-0.283 l 12.328,-64.627 c 0.069,-0.16 0.03,-0.354 -0.111,-0.471 -0.174,-0.144 -0.437,-0.111 -0.576,0.059 l -0.006,0.008 z"
                   style="fill:none;stroke:#820d07;stroke-width:1;stroke-linecap:butt;stroke-linejoin:miter;stroke-miterlimit:10;stroke-dasharray:none;stroke-opacity:1"
                   id="path10384"
                   inkscape:connector-curvature="0" />
              </g>
              <g
                 transform="translate(758.1265,1478.21)"
                 id="g10386">
                <path
                   d="M 0,0 -52.764,-7.092 3.924,-20.578 0,0 Z m -55.283,-7.24 c -0.063,0.076 -0.098,0.176 -0.092,0.279 0.008,0.193 0.156,0.354 0.35,0.379 L 0.271,0.852 C 0.484,0.879 0.682,0.738 0.723,0.525 l 4.111,-21.564 c 0.025,-0.135 -0.018,-0.273 -0.117,-0.369 -0.098,-0.094 -0.238,-0.131 -0.373,-0.1 l -59.41,14.133 c -0.088,0.021 -0.163,0.07 -0.217,0.135 z"
                   style="fill:none;stroke:#820d07;stroke-width:1;stroke-linecap:butt;stroke-linejoin:miter;stroke-miterlimit:10;stroke-dasharray:none;stroke-opacity:1"
                   id="path10388"
                   inkscape:connector-curvature="0" />
              </g>
              <g
                 transform="translate(703.4292,1470.749)"
                 id="g10390">
                <path
                   d="M 0,0 -15.717,-51.838 57.982,-13.795 0,0 Z m -16.691,-52.895 c -0.086,0.106 -0.116,0.247 -0.077,0.377 L -0.662,0.598 c 0.062,0.203 0.271,0.324 0.48,0.273 l 59.411,-14.133 c 0.166,-0.039 0.287,-0.177 0.306,-0.343 0.022,-0.168 -0.064,-0.331 -0.215,-0.409 l -75.515,-38.98 c -0.145,-0.072 -0.319,-0.055 -0.444,0.051 -0.019,0.013 -0.037,0.031 -0.052,0.048 z"
                   style="fill:none;stroke:#820d07;stroke-width:1;stroke-linecap:butt;stroke-linejoin:miter;stroke-miterlimit:10;stroke-dasharray:none;stroke-opacity:1"
                   id="path10392"
                   inkscape:connector-curvature="0" />
              </g>
              <g
                 transform="translate(762.4507,1456.583)"
                 id="g10394">
                <path
                   d="M 0,0 -74.408,-38.412 72.961,-93.83 0,0 Z m -75.713,-38.729 c -0.053,0.067 -0.086,0.149 -0.092,0.237 -0.009,0.158 0.076,0.308 0.217,0.383 L -0.072,0.871 C 0.102,0.959 0.283,0.928 0.432,0.76 l 74.045,-95.225 c 0.109,-0.142 0.113,-0.34 0.005,-0.486 -0.107,-0.147 -0.296,-0.201 -0.466,-0.139 l -149.561,56.244 c -0.066,0.026 -0.123,0.067 -0.168,0.117 z"
                   style="fill:none;stroke:#820d07;stroke-width:1;stroke-linecap:butt;stroke-linejoin:miter;stroke-miterlimit:10;stroke-dasharray:none;stroke-opacity:1"
                   id="path10396"
                   inkscape:connector-curvature="0" />
              </g>
              <g
                 transform="translate(763.189,1456.9482)"
                 id="g10398">
                <path
                   d="M 0,0 70.941,-91.232 18.311,8.838 0,0 Z m 73.121,-95.352 c 0,0 -0.006,0.012 -0.012,0.016 0,0 -0.005,0.008 -0.009,0.012 L -0.943,-0.102 c -0.077,0.098 -0.102,0.221 -0.075,0.34 0.028,0.119 0.108,0.219 0.217,0.272 l 19.112,9.224 c 0.197,0.094 0.431,0.016 0.533,-0.173 L 73.758,-94.855 c 0.125,-0.17 0.097,-0.411 -0.069,-0.547 -0.169,-0.143 -0.425,-0.121 -0.568,0.05 z"
                   style="fill:none;stroke:#820d07;stroke-width:1;stroke-linecap:butt;stroke-linejoin:miter;stroke-miterlimit:10;stroke-dasharray:none;stroke-opacity:1"
                   id="path10400"
                   inkscape:connector-curvature="0" />
              </g>
              <g
                 transform="translate(782.6577,1465.3213)"
                 id="g10402">
                <path
                   d="M 0,0 53.982,-102.643 88.248,-48.361 0,0 Z m 53.641,-103.709 c -0.018,0.021 -0.036,0.045 -0.047,0.07 L -1.338,0.811 c -0.084,0.158 -0.055,0.351 0.074,0.474 0.125,0.125 0.319,0.152 0.477,0.067 l 89.801,-49.211 c 0.097,-0.055 0.168,-0.147 0.197,-0.254 0.027,-0.108 0.01,-0.221 -0.049,-0.317 l -34.808,-55.136 c -0.02,-0.08 -0.065,-0.153 -0.133,-0.209 -0.172,-0.147 -0.424,-0.149 -0.575,0.058 0,0 -0.003,0.006 -0.005,0.008 z"
                   style="fill:none;stroke:#820d07;stroke-width:1;stroke-linecap:butt;stroke-linejoin:miter;stroke-miterlimit:10;stroke-dasharray:none;stroke-opacity:1"
                   id="path10404"
                   inkscape:connector-curvature="0" />
              </g>
              <g
                 transform="translate(903.978,1383.1318)"
                 id="g10406">
                <path
                   d="M 0,0 -66.645,-21.451 -38.877,-51.545 0,0 Z m -67.68,-21.52 c -0.084,0.1 -0.113,0.235 -0.08,0.362 0.035,0.133 0.135,0.24 0.268,0.281 L 0.967,1.16 C 1.135,1.213 1.312,1.152 1.42,1.01 1.523,0.865 1.52,0.672 1.412,0.531 l -39.933,-52.947 c -0.073,-0.096 -0.184,-0.156 -0.303,-0.162 -0.121,-0.004 -0.237,0.043 -0.317,0.131 l -28.525,30.914 -0.014,0.013 z"
                   style="fill:none;stroke:#820d07;stroke-width:1;stroke-linecap:butt;stroke-linejoin:miter;stroke-miterlimit:10;stroke-dasharray:none;stroke-opacity:1"
                   id="path10408"
                   inkscape:connector-curvature="0" />
              </g>
              <g
                 transform="translate(871.5503,1416.4678)"
                 id="g10410">
                <path
                   d="m 0,0 -34.008,-53.871 66.77,21.49 L 0,0 Z m -35.252,-54.855 c 0,0 -0.006,0.007 -0.01,0.011 -0.103,0.133 -0.113,0.319 -0.021,0.463 L -0.414,0.855 c 0.066,0.104 0.174,0.172 0.295,0.186 0.121,0.014 0.244,-0.027 0.33,-0.113 l 33.592,-33.201 c 0.103,-0.098 0.142,-0.243 0.109,-0.381 -0.033,-0.137 -0.135,-0.248 -0.269,-0.291 L -34.818,-54.98 c -0.159,-0.051 -0.328,0 -0.434,0.125 z"
                   style="fill:none;stroke:#820d07;stroke-width:1;stroke-linecap:butt;stroke-linejoin:miter;stroke-miterlimit:10;stroke-dasharray:none;stroke-opacity:1"
                   id="path10412"
                   inkscape:connector-curvature="0" />
              </g>
              <g
                 transform="translate(836.2046,1361.5908)"
                 id="g10414">
                <path
                   d="M 0,0 -147.447,55.449 -0.137,-85.236 0,0 Z m -149.467,56.264 c -0.111,0.134 -0.125,0.326 -0.031,0.474 0.103,0.164 0.305,0.233 0.484,0.164 L 0.545,0.658 C 0.703,0.598 0.809,0.447 0.809,0.279 L 0.67,-86.178 c -0.002,-0.162 -0.098,-0.308 -0.246,-0.371 -0.149,-0.064 -0.32,-0.033 -0.438,0.078 l -149.422,142.703 -0.031,0.032 z"
                   style="fill:none;stroke:#820d07;stroke-width:1;stroke-linecap:butt;stroke-linejoin:miter;stroke-miterlimit:10;stroke-dasharray:none;stroke-opacity:1"
                   id="path10416"
                   inkscape:connector-curvature="0" />
              </g>
              <g
                 transform="translate(837.0112,1360.8408)"
                 id="g10418">
                <path
                   d="M 0,0 -0.133,-83.76 27.633,-29.949 0,0 Z m -0.852,-85.688 c -0.058,0.071 -0.093,0.163 -0.091,0.26 l 0.136,86.459 c 0,0.166 0.102,0.317 0.258,0.375 0.154,0.061 0.33,0.022 0.444,-0.101 l 28.523,-30.914 c 0.117,-0.11 0.141,-0.309 0.062,-0.459 L -0.131,-85.512 c -0.015,-0.092 -0.062,-0.177 -0.139,-0.242 -0.173,-0.144 -0.423,-0.15 -0.576,0.059 l -0.006,0.007 z"
                   style="fill:none;stroke:#820d07;stroke-width:1;stroke-linecap:butt;stroke-linejoin:miter;stroke-miterlimit:10;stroke-dasharray:none;stroke-opacity:1"
                   id="path10420"
                   inkscape:connector-curvature="0" />
              </g>
              <g
                 transform="translate(836.9468,1275.4561)"
                 id="g10422">
                <path
                   d="M 0,0 14.867,-19.174 27.342,52.984 0,0 Z m 14.801,-20.402 -0.008,0.007 -15.588,20.104 c -0.096,0.125 -0.111,0.293 -0.039,0.432 l 28.662,55.547 c 0.09,0.177 0.299,0.261 0.486,0.197 0.188,-0.063 0.303,-0.254 0.27,-0.451 L 15.508,-20.211 c -0.028,-0.158 -0.145,-0.285 -0.301,-0.324 -0.15,-0.037 -0.309,0.014 -0.406,0.133 z"
                   style="fill:none;stroke:#820d07;stroke-width:1;stroke-linecap:butt;stroke-linejoin:miter;stroke-miterlimit:10;stroke-dasharray:none;stroke-opacity:1"
                   id="path10424"
                   inkscape:connector-curvature="0" />
              </g>
              <g
                 transform="translate(808.2925,1493.8271)"
                 id="g10426">
                <path
                   d="M 0,0 -47.557,-14.875 -6.687,-16.902 0,0 Z m -50.15,-15.426 c -0.049,0.059 -0.08,0.129 -0.092,0.209 -0.024,0.194 0.094,0.377 0.281,0.436 L 0.566,1.023 C 0.717,1.068 0.879,1.025 0.982,0.912 1.092,0.799 1.119,0.633 1.062,0.488 l -7.105,-17.957 c -0.062,-0.16 -0.223,-0.263 -0.396,-0.254 l -43.422,2.153 c -0.116,0.007 -0.219,0.06 -0.289,0.144 z"
                   style="fill:none;stroke:#820d07;stroke-width:1;stroke-linecap:butt;stroke-linejoin:miter;stroke-miterlimit:10;stroke-dasharray:none;stroke-opacity:1"
                   id="path10428"
                   inkscape:connector-curvature="0" />
              </g>
              <g
                 transform="translate(809.1616,1493.8232)"
                 id="g10430">
                <path
                   d="M 0,0 -6.717,-16.971 27.385,-20.586 0,0 Z m -7.598,-17.574 c -0.013,0.015 -0.025,0.031 -0.035,0.049 -0.064,0.107 -0.076,0.24 -0.029,0.357 l 7.105,17.957 c 0.045,0.117 0.145,0.205 0.266,0.24 0.121,0.035 0.25,0.01 0.352,-0.066 l 28.978,-21.781 c 0.145,-0.108 0.199,-0.301 0.133,-0.471 -0.067,-0.168 -0.238,-0.272 -0.418,-0.252 l -36.084,3.824 c -0.106,0.01 -0.201,0.063 -0.268,0.143 z"
                   style="fill:none;stroke:#820d07;stroke-width:1;stroke-linecap:butt;stroke-linejoin:miter;stroke-miterlimit:10;stroke-dasharray:none;stroke-opacity:1"
                   id="path10432"
                   inkscape:connector-curvature="0" />
              </g>
              <g
                 transform="translate(857.8843,1481.7041)"
                 id="g10434">
                <path
                   d="M 0,0 -47.059,11.877 -19.871,-8.557 0,0 Z m -49.215,12.502 c -0.099,0.117 -0.123,0.287 -0.055,0.432 0.084,0.173 0.278,0.263 0.465,0.218 L 1.352,0.492 C 1.52,0.449 1.641,0.307 1.654,0.133 1.668,-0.041 1.57,-0.201 1.412,-0.27 l -21.178,-9.123 c -0.134,-0.056 -0.287,-0.037 -0.402,0.049 l -28.978,21.782 c -0.026,0.019 -0.049,0.041 -0.069,0.064 z"
                   style="fill:none;stroke:#820d07;stroke-width:1;stroke-linecap:butt;stroke-linejoin:miter;stroke-miterlimit:10;stroke-dasharray:none;stroke-opacity:1"
                   id="path10436"
                   inkscape:connector-curvature="0" />
              </g>
              <g
                 transform="translate(859.6772,1481.124)"
                 id="g10438">
                <path
                   d="M 0,0 12.063,-63.242 55.512,-24.629 0,0 Z m 11.49,-64.275 c -0.043,0.052 -0.074,0.115 -0.086,0.183 L -0.937,0.605 c -0.028,0.149 0.027,0.299 0.144,0.393 0.119,0.094 0.279,0.113 0.416,0.053 l 56.789,-25.196 c 0.125,-0.054 0.215,-0.171 0.236,-0.306 0.02,-0.137 -0.029,-0.274 -0.13,-0.365 l -44.45,-39.502 c -0.109,-0.096 -0.259,-0.127 -0.398,-0.08 -0.072,0.023 -0.133,0.068 -0.18,0.123 z"
                   style="fill:none;stroke:#820d07;stroke-width:1;stroke-linecap:butt;stroke-linejoin:miter;stroke-miterlimit:10;stroke-dasharray:none;stroke-opacity:1"
                   id="path10440"
                   inkscape:connector-curvature="0" />
              </g>
              <g
                 transform="translate(889.8823,1498.0479)"
                 id="g10442">
                <path
                   d="M 0,0 -29.832,-16.207 25.014,-40.539 0,0 Z m -31.057,-16.502 c -0.054,0.068 -0.089,0.152 -0.091,0.244 -0.006,0.153 0.074,0.295 0.209,0.369 L -0.051,0.893 c 0.19,0.101 0.43,0.043 0.537,-0.145 l 25.901,-41.975 c 0.093,-0.15 0.076,-0.343 -0.039,-0.476 -0.116,-0.135 -0.307,-0.176 -0.469,-0.106 l -56.789,25.198 c -0.059,0.025 -0.108,0.062 -0.147,0.109 z"
                   style="fill:none;stroke:#820d07;stroke-width:1;stroke-linecap:butt;stroke-linejoin:miter;stroke-miterlimit:10;stroke-dasharray:none;stroke-opacity:1"
                   id="path10444"
                   inkscape:connector-curvature="0" />
              </g>
              <g
                 transform="translate(915.3628,1455.5674)"
                 id="g10446">
                <path
                   d="M 0,0 -43.295,-38.475 -10.576,-70.813 0,0 Z m -44.195,-38.719 c -0.063,0.076 -0.096,0.172 -0.094,0.272 0.004,0.109 0.053,0.217 0.137,0.289 L 0.295,1.344 C 0.422,1.455 0.605,1.479 0.756,1.398 0.904,1.314 0.988,1.15 0.963,0.982 L -9.895,-71.719 c -0.023,-0.15 -0.126,-0.275 -0.271,-0.324 -0.145,-0.047 -0.303,-0.012 -0.412,0.096 l -33.59,33.201 c -0.01,0.01 -0.02,0.017 -0.027,0.027 z"
                   style="fill:none;stroke:#820d07;stroke-width:1;stroke-linecap:butt;stroke-linejoin:miter;stroke-miterlimit:10;stroke-dasharray:none;stroke-opacity:1"
                   id="path10448"
                   inkscape:connector-curvature="0" />
              </g>
              <g
                 transform="translate(890.5601,1498.4854)"
                 id="g10450">
                <path
                   d="M 0,0 23.428,-37.969 6.82,5.182 0,0 Z m 25.055,-42.135 c -0.012,0.014 -0.024,0.031 -0.034,0.047 l -25.9,41.975 c -0.109,0.177 -0.066,0.408 0.1,0.533 L 6.76,6.15 C 6.861,6.227 6.992,6.252 7.113,6.217 7.236,6.182 7.334,6.094 7.381,5.975 l 18.342,-47.657 c 0.103,-0.168 0.07,-0.39 -0.086,-0.519 -0.172,-0.143 -0.426,-0.119 -0.569,0.051 -0.004,0.005 -0.007,0.011 -0.013,0.015 z"
                   style="fill:none;stroke:#820d07;stroke-width:1;stroke-linecap:butt;stroke-linejoin:miter;stroke-miterlimit:10;stroke-dasharray:none;stroke-opacity:1"
                   id="path10452"
                   inkscape:connector-curvature="0" />
              </g>
              <g
                 transform="translate(898.2964,1503.5361)"
                 id="g10454">
                <path
                   d="M 0,0 17.715,-46.027 36.178,-16.516 0,0 Z m 17.318,-47.186 c -0.027,0.036 -0.048,0.073 -0.066,0.116 L -1.109,0.635 c -0.059,0.152 -0.02,0.324 0.099,0.437 0.119,0.114 0.295,0.141 0.444,0.073 l 37.498,-17.118 c 0.105,-0.047 0.185,-0.138 0.218,-0.252 0.034,-0.111 0.018,-0.23 -0.043,-0.33 L 18.033,-47.041 c -0.019,-0.08 -0.064,-0.154 -0.133,-0.211 -0.173,-0.144 -0.42,-0.125 -0.574,0.059 l -0.008,0.007 z"
                   style="fill:none;stroke:#820d07;stroke-width:1;stroke-linecap:butt;stroke-linejoin:miter;stroke-miterlimit:10;stroke-dasharray:none;stroke-opacity:1"
                   id="path10456"
                   inkscape:connector-curvature="0" />
              </g>
              <g
                 transform="translate(916.2632,1456.1338)"
                 id="g10458">
                <path
                   d="M 0,0 -10.682,-71.529 97.975,-18.869 0,0 Z m -11.504,-72.484 c -0.072,0.086 -0.107,0.203 -0.09,0.316 L -0.736,0.535 c 0.015,0.11 0.076,0.207 0.166,0.27 0.09,0.064 0.201,0.088 0.308,0.068 l 99.58,-19.18 c 0.174,-0.033 0.303,-0.172 0.327,-0.343 0.021,-0.172 -0.069,-0.34 -0.225,-0.416 L -11.02,-72.59 c -0.132,-0.064 -0.293,-0.051 -0.414,0.039 -0.027,0.018 -0.048,0.041 -0.07,0.067 z"
                   style="fill:none;stroke:#820d07;stroke-width:1;stroke-linecap:butt;stroke-linejoin:miter;stroke-miterlimit:10;stroke-dasharray:none;stroke-opacity:1"
                   id="path10460"
                   inkscape:connector-curvature="0" />
              </g>
              <g
                 transform="translate(935.189,1486.6416)"
                 id="g10462">
                <path
                   d="M 0,0 -18.609,-29.748 78.238,-48.4 0,0 Z m -19.574,-30.291 c -0.024,0.029 -0.043,0.062 -0.059,0.1 -0.053,0.119 -0.043,0.261 0.028,0.373 L -0.471,0.768 c 0.117,0.189 0.366,0.246 0.555,0.13 l 80.445,-49.765 c 0.164,-0.1 0.235,-0.309 0.164,-0.49 -0.07,-0.182 -0.261,-0.286 -0.453,-0.25 l -99.58,19.177 c -0.092,0.02 -0.176,0.069 -0.234,0.139 z"
                   style="fill:none;stroke:#820d07;stroke-width:1;stroke-linecap:butt;stroke-linejoin:miter;stroke-miterlimit:10;stroke-dasharray:none;stroke-opacity:1"
                   id="path10464"
                   inkscape:connector-curvature="0" />
              </g>
              <g
                 transform="translate(687.8394,1416.8018)"
                 id="g10466">
                <path
                   d="m 0,0 60.252,-213.602 87.771,72.235 L 0,0 Z m 59.723,-214.564 c -0.037,0.043 -0.065,0.093 -0.078,0.15 L -1.18,1.203 c -0.049,0.176 0.026,0.363 0.182,0.457 0.156,0.092 0.353,0.07 0.486,-0.055 L 148.91,-141.098 c 0.082,-0.08 0.129,-0.191 0.125,-0.306 -0.004,-0.116 -0.058,-0.225 -0.148,-0.297 l -88.598,-72.916 c -0.105,-0.088 -0.248,-0.115 -0.377,-0.074 -0.076,0.023 -0.142,0.068 -0.189,0.127 z"
                   style="fill:none;stroke:#820d07;stroke-width:1;stroke-linecap:butt;stroke-linejoin:miter;stroke-miterlimit:10;stroke-dasharray:none;stroke-opacity:1"
                   id="path10468"
                   inkscape:connector-curvature="0" />
              </g>
              <g
                 transform="translate(681.8511,1429.5791)"
                 id="g10470">
                <path
                   d="M 0,0 5.107,-10.369 19.668,37.646 0,0 Z m 4.887,-11.725 c -0.02,0.026 -0.037,0.053 -0.051,0.082 l -5.65,11.469 c -0.057,0.115 -0.057,0.252 0.003,0.365 l 21.756,41.645 c 0.096,0.185 0.319,0.266 0.51,0.187 0.195,-0.078 0.295,-0.291 0.234,-0.492 L 5.584,-11.582 c -0.049,-0.158 -0.188,-0.272 -0.354,-0.285 -0.132,-0.01 -0.259,0.045 -0.343,0.142 z"
                   style="fill:none;stroke:#820d07;stroke-width:1;stroke-linecap:butt;stroke-linejoin:miter;stroke-miterlimit:10;stroke-dasharray:none;stroke-opacity:1"
                   id="path10472"
                   inkscape:connector-curvature="0" />
              </g>
              <g
                 transform="translate(1015.4253,1435.3936)"
                 id="g10474">
                <path
                   d="m 0,0 -33.199,-136.148 53.41,10.332 L 0,0 Z m -34.051,-136.924 c -0.082,0.1 -0.113,0.231 -0.082,0.356 L -0.311,2.133 C -0.266,2.32 -0.094,2.449 0.098,2.441 0.289,2.434 0.449,2.291 0.48,2.102 l 20.59,-128.176 c 0.035,-0.215 -0.109,-0.418 -0.322,-0.459 l -54.412,-10.528 c -0.137,-0.027 -0.275,0.02 -0.369,0.118 -0.006,0.007 -0.014,0.013 -0.018,0.019 z"
                   style="fill:none;stroke:#820d07;stroke-width:1;stroke-linecap:butt;stroke-linejoin:miter;stroke-miterlimit:10;stroke-dasharray:none;stroke-opacity:1"
                   id="path10476"
                   inkscape:connector-curvature="0" />
              </g>
              <g
                 transform="translate(1014.9116,1436.6943)"
                 id="g10478">
                <path
                   d="M 0,0 -109.184,-52.916 -33.439,-137.127 0,0 Z m -110.152,-53.045 c -0.078,0.094 -0.11,0.217 -0.088,0.336 0.025,0.125 0.107,0.23 0.22,0.285 L 0.42,1.1 C 0.559,1.168 0.727,1.148 0.85,1.051 0.969,0.951 1.025,0.793 0.986,0.641 l -33.822,-138.702 c -0.035,-0.146 -0.148,-0.259 -0.293,-0.294 -0.144,-0.038 -0.299,0.007 -0.398,0.121 l -76.616,85.177 c -0.003,0.004 -0.007,0.008 -0.009,0.012 z"
                   style="fill:none;stroke:#820d07;stroke-width:1;stroke-linecap:butt;stroke-linejoin:miter;stroke-miterlimit:10;stroke-dasharray:none;stroke-opacity:1"
                   id="path10480"
                   inkscape:connector-curvature="0" />
              </g>
              <g
                 transform="translate(747.9507,1201.2236)"
                 id="g10482">
                <path
                   d="m 0,0 -4.467,-16.736 8.516,6.72 L 0,0 Z m -5.48,-18.064 c -0.084,0.099 -0.116,0.234 -0.081,0.363 l 5.092,19.078 c 0.045,0.168 0.192,0.287 0.365,0.297 C 0.068,1.687 0.23,1.588 0.295,1.424 L 4.91,-9.994 c 0.069,-0.168 0.018,-0.358 -0.123,-0.469 l -9.707,-7.66 c -0.137,-0.107 -0.328,-0.113 -0.473,-0.02 -0.033,0.024 -0.064,0.049 -0.087,0.079 z"
                   style="fill:none;stroke:#820d07;stroke-width:1;stroke-linecap:butt;stroke-linejoin:miter;stroke-miterlimit:10;stroke-dasharray:none;stroke-opacity:1"
                   id="path10484"
                   inkscape:connector-curvature="0" />
              </g>
              <g
                 transform="translate(748.3784,1202.3193)"
                 id="g10486">
                <path
                   d="M 0,0 4.285,-10.602 73.273,41.703 0,0 Z m 3.799,-11.5 c -0.028,0.031 -0.049,0.068 -0.065,0.107 L -0.881,0.025 c -0.076,0.188 -0.002,0.403 0.174,0.502 l 78.92,44.916 c 0.185,0.106 0.424,0.047 0.537,-0.129 0.115,-0.177 0.076,-0.416 -0.094,-0.544 L 4.352,-11.563 c -0.1,-0.076 -0.231,-0.101 -0.35,-0.068 -0.08,0.022 -0.152,0.068 -0.203,0.131 z"
                   style="fill:none;stroke:#820d07;stroke-width:1;stroke-linecap:butt;stroke-linejoin:miter;stroke-miterlimit:10;stroke-dasharray:none;stroke-opacity:1"
                   id="path10488"
                   inkscape:connector-curvature="0" />
              </g>
              <g
                 transform="translate(835.6206,1274.1904)"
                 id="g10490">
                <path
                   d="M 0,0 -83.859,-69.018 -9.162,-26.504 0,0 Z m -88.059,-71.953 c -0.009,0.01 -0.015,0.019 -0.023,0.029 -0.119,0.174 -0.086,0.408 0.076,0.539 L 0.592,1.533 C 0.732,1.648 0.932,1.656 1.08,1.553 1.229,1.451 1.291,1.262 1.23,1.09 l -9.679,-28 c -0.031,-0.094 -0.096,-0.172 -0.18,-0.221 l -78.92,-44.914 c -0.172,-0.098 -0.387,-0.057 -0.51,0.092 z"
                   style="fill:none;stroke:#820d07;stroke-width:1;stroke-linecap:butt;stroke-linejoin:miter;stroke-miterlimit:10;stroke-dasharray:none;stroke-opacity:1"
                   id="path10492"
                   inkscape:connector-curvature="0" />
              </g>
              <g
                 transform="translate(836.6089,1274.5752)"
                 id="g10494">
                <path
                   d="m 0,0 -9.176,-26.541 23.949,7.49 L 0,0 Z m -10.129,-27.422 c -0.09,0.108 -0.117,0.256 -0.07,0.391 l 9.679,28 c 0.047,0.138 0.17,0.242 0.317,0.267 0.144,0.024 0.289,-0.047 0.385,-0.152 l 15.586,-20.098 c 0.08,-0.105 0.105,-0.242 0.066,-0.369 -0.041,-0.127 -0.139,-0.226 -0.266,-0.263 l -25.265,-7.903 c -0.147,-0.045 -0.305,-0.006 -0.41,0.104 -0.008,0.008 -0.016,0.015 -0.022,0.023 z"
                   style="fill:none;stroke:#820d07;stroke-width:1;stroke-linecap:butt;stroke-linejoin:miter;stroke-miterlimit:10;stroke-dasharray:none;stroke-opacity:1"
                   id="path10496"
                   inkscape:connector-curvature="0" />
              </g>
              <g
                 transform="translate(981.9956,1298.2002)"
                 id="g10498">
                <path
                   d="M 0,0 -6.885,-37.242 63.451,-20.949 0,0 Z m -7.703,-38.033 c -0.076,0.092 -0.109,0.213 -0.086,0.332 l 7.08,38.305 c 0.022,0.113 0.092,0.212 0.191,0.273 0.1,0.059 0.221,0.072 0.332,0.035 l 65.258,-21.547 c 0.172,-0.056 0.287,-0.219 0.278,-0.402 -0.008,-0.18 -0.137,-0.334 -0.313,-0.375 l -72.34,-16.756 c -0.131,-0.031 -0.271,0.008 -0.369,0.102 -0.012,0.009 -0.021,0.021 -0.031,0.033 z"
                   style="fill:none;stroke:#820d07;stroke-width:1;stroke-linecap:butt;stroke-linejoin:miter;stroke-miterlimit:10;stroke-dasharray:none;stroke-opacity:1"
                   id="path10500"
                   inkscape:connector-curvature="0" />
              </g>
              <g
                 transform="translate(1035.8276,1308.792)"
                 id="g10502">
                <path
                   d="M 0,0 -52.547,-10.164 10.473,-30.973 0,0 Z m -54.453,-10.322 c -0.065,0.078 -0.102,0.179 -0.094,0.285 0.012,0.183 0.147,0.336 0.326,0.371 L 0.191,0.859 C 0.391,0.898 0.584,0.785 0.65,0.592 L 11.496,-31.48 c 0.049,-0.145 0.012,-0.305 -0.096,-0.415 -0.107,-0.107 -0.267,-0.146 -0.414,-0.097 l -65.257,21.545 c -0.073,0.025 -0.137,0.068 -0.182,0.125 z"
                   style="fill:none;stroke:#820d07;stroke-width:1;stroke-linecap:butt;stroke-linejoin:miter;stroke-miterlimit:10;stroke-dasharray:none;stroke-opacity:1"
                   id="path10504"
                   inkscape:connector-curvature="0" />
              </g>
              <g
                 transform="translate(981.1987,1298.3213)"
                 id="g10506">
                <path
                   d="M 0,0 -50.268,-0.467 -6.867,-37.139 0,0 Z m -51.668,-0.332 c -0.09,0.109 -0.119,0.26 -0.07,0.394 0.058,0.161 0.207,0.268 0.377,0.268 L 0.48,0.812 C 0.602,0.812 0.717,0.76 0.795,0.666 0.871,0.574 0.904,0.453 0.883,0.334 l -7.082,-38.305 c -0.026,-0.14 -0.125,-0.258 -0.262,-0.304 -0.135,-0.049 -0.285,-0.022 -0.396,0.07 l -44.762,37.824 c -0.018,0.014 -0.035,0.031 -0.049,0.049 z"
                   style="fill:none;stroke:#820d07;stroke-width:1;stroke-linecap:butt;stroke-linejoin:miter;stroke-miterlimit:10;stroke-dasharray:none;stroke-opacity:1"
                   id="path10508"
                   inkscape:connector-curvature="0" />
              </g>
              <g
                 transform="translate(865.439,1330.3506)"
                 id="g10510">
                <path
                   d="M 0,0 -12.842,-74.277 63.537,-32.119 0,0 Z m -13.691,-75.297 c -0.077,0.09 -0.11,0.209 -0.09,0.328 L -0.703,0.676 c 0.021,0.127 0.101,0.236 0.217,0.293 0.113,0.056 0.248,0.056 0.363,0 l 64.707,-32.711 c 0.133,-0.069 0.219,-0.203 0.223,-0.354 0.002,-0.148 -0.08,-0.287 -0.209,-0.359 l -77.786,-42.936 c -0.134,-0.076 -0.302,-0.066 -0.427,0.024 -0.031,0.021 -0.055,0.045 -0.076,0.07 z"
                   style="fill:none;stroke:#820d07;stroke-width:1;stroke-linecap:butt;stroke-linejoin:miter;stroke-miterlimit:10;stroke-dasharray:none;stroke-opacity:1"
                   id="path10512"
                   inkscape:connector-curvature="0" />
              </g>
              <g
                 transform="translate(904.9058,1383.0205)"
                 id="g10514">
                <path
                   d="M 0,0 -39.16,-51.92 24.289,-83.994 0,0 Z m -40.082,-52.32 c -0.041,0.047 -0.07,0.103 -0.084,0.166 -0.027,0.115 0,0.238 0.072,0.334 L -0.16,1.131 C -0.066,1.252 0.086,1.312 0.236,1.283 0.387,1.256 0.51,1.145 0.551,0.998 L 25.322,-84.66 c 0.045,-0.154 -0.006,-0.32 -0.131,-0.422 -0.121,-0.104 -0.296,-0.123 -0.437,-0.051 l -64.709,32.711 c -0.049,0.024 -0.092,0.059 -0.127,0.102 z"
                   style="fill:none;stroke:#820d07;stroke-width:1;stroke-linecap:butt;stroke-linejoin:miter;stroke-miterlimit:10;stroke-dasharray:none;stroke-opacity:1"
                   id="path10516"
                   inkscape:connector-curvature="0" />
              </g>
              <g
                 transform="translate(905.9468,1382.3291)"
                 id="g10518">
                <path
                   d="M 0,0 24.195,-83.674 74.838,-83.205 0,0 Z m 23.584,-84.34 c -0.035,0.041 -0.063,0.092 -0.078,0.147 L -1.266,1.467 c -0.052,0.179 0.028,0.373 0.192,0.465 0.164,0.089 0.371,0.056 0.496,-0.084 L 76.037,-83.33 c 0.119,-0.125 0.135,-0.287 0.07,-0.434 -0.064,-0.144 -0.209,-0.238 -0.367,-0.24 l -51.842,-0.48 c -0.125,-0.002 -0.238,0.054 -0.314,0.144 z"
                   style="fill:none;stroke:#820d07;stroke-width:1;stroke-linecap:butt;stroke-linejoin:miter;stroke-miterlimit:10;stroke-dasharray:none;stroke-opacity:1"
                   id="path10520"
                   inkscape:connector-curvature="0" />
              </g>
            </g>
          </g>
        </g>
      </g>
    </g>
  </g>
</svg>
