<?xml version="1.0" encoding="UTF-8" standalone="no"?>
<!-- Created with Inkscape (http://www.inkscape.org/) -->

<svg
   xmlns:dc="http://purl.org/dc/elements/1.1/"
   xmlns:cc="http://creativecommons.org/ns#"
   xmlns:rdf="http://www.w3.org/1999/02/22-rdf-syntax-ns#"
   xmlns:svg="http://www.w3.org/2000/svg"
   xmlns="http://www.w3.org/2000/svg"
   xmlns:sodipodi="http://sodipodi.sourceforge.net/DTD/sodipodi-0.dtd"
   xmlns:inkscape="http://www.inkscape.org/namespaces/inkscape"
   width="121.15659mm"
   height="73.781296mm"
   viewBox="0 0 429.29499 261.42979"
   id="svg24861"
   version="1.1"
   inkscape:version="0.91 r13725"
   sodipodi:docname="body-background.png3.svg">
  <defs
     id="defs24863">
    <clipPath
       clipPathUnits="userSpaceOnUse"
       id="clipPath8042">
      <path
         d="m 3.342,821.84 364.46,-0.659 0.395,217.998 -364.46,0.659 L 3.342,821.84 Z"
         id="path8044"
         inkscape:connector-curvature="0" />
    </clipPath>
    <clipPath
       clipPathUnits="userSpaceOnUse"
       id="clipPath8050">
      <path
         d="m -20.2964,1030.33 367.0744,0 0,-322.427 -367.0744,0 0,322.427 z"
         id="path8052"
         inkscape:connector-curvature="0" />
    </clipPath>
  </defs>
  <sodipodi:namedview
     id="base"
     pagecolor="#ffffff"
     bordercolor="#666666"
     borderopacity="1.0"
     inkscape:pageopacity="0.0"
     inkscape:pageshadow="2"
     inkscape:zoom="0.35"
     inkscape:cx="212.50464"
     inkscape:cy="-163.57085"
     inkscape:document-units="px"
     inkscape:current-layer="layer1"
     showgrid="false"
     fit-margin-top="0"
     fit-margin-left="0"
     fit-margin-right="0"
     fit-margin-bottom="0"
     inkscape:window-width="1366"
     inkscape:window-height="712"
     inkscape:window-x="0"
     inkscape:window-y="0"
     inkscape:window-maximized="1" />
  <metadata
     id="metadata24866">
    <rdf:RDF>
      <cc:Work
         rdf:about="">
        <dc:format>image/svg+xml</dc:format>
        <dc:type
           rdf:resource="http://purl.org/dc/dcmitype/StillImage" />
        <dc:title></dc:title>
      </cc:Work>
    </rdf:RDF>
  </metadata>
  <g
     inkscape:label="Layer 1"
     inkscape:groupmode="layer"
     id="layer1"
     transform="translate(306.07607,-107.36157)">
    <g
       transform="matrix(1.25,0,0,-1.25,-310.25357,1395.2676)"
       id="g8038">
      <g
         id="g8040"
         clip-path="url(#clipPath8042)">
        <g
           id="g8046">
          <g
             id="g8048" />
          <g
             id="g8054">
            <g
               clip-path="url(#clipPath8050)"
               id="g8056"
               style="opacity:0.30000299">
              <g
                 transform="translate(268.1792,734.9619)"
                 id="g8058">
                <path
                   d="M 0,0 -3.82,20.229 -21.756,11.611 0,0 Z m -3.209,21.078 c 0.043,-0.051 0.072,-0.115 0.086,-0.183 L 0.949,-0.678 C 0.979,-0.832 0.917,-0.986 0.792,-1.08 0.668,-1.17 0.5,-1.184 0.361,-1.109 l -23.2,12.382 c -0.134,0.073 -0.218,0.213 -0.213,0.368 0.003,0.15 0.091,0.287 0.228,0.353 l 19.129,9.19 c 0.113,0.054 0.244,0.052 0.357,-0.004 0.049,-0.026 0.094,-0.061 0.129,-0.102 z"
                   style="fill:none;stroke:#820d07;stroke-width:1;stroke-linecap:butt;stroke-linejoin:miter;stroke-miterlimit:10;stroke-dasharray:none;stroke-opacity:1"
                   id="path8060"
                   inkscape:connector-curvature="0" />
              </g>
              <g
                 transform="translate(226.8608,736.7646)"
                 id="g8062">
                <path
                   d="M 0,0 40.084,-2.061 18.664,9.373 0,0 Z m 42.182,-2.299 c 0.083,-0.099 0.115,-0.234 0.079,-0.365 -0.052,-0.184 -0.221,-0.305 -0.409,-0.295 l -43.419,2.23 c -0.185,0.01 -0.339,0.143 -0.375,0.321 -0.037,0.179 0.049,0.363 0.213,0.445 l 20.217,10.151 c 0.117,0.06 0.256,0.058 0.371,-0.004 L 42.061,-2.201 c 0.048,-0.024 0.088,-0.059 0.121,-0.098 z"
                   style="fill:none;stroke:#820d07;stroke-width:1;stroke-linecap:butt;stroke-linejoin:miter;stroke-miterlimit:10;stroke-dasharray:none;stroke-opacity:1"
                   id="path8064"
                   inkscape:connector-curvature="0" />
              </g>
              <g
                 transform="translate(225.2388,736.8545)"
                 id="g8066">
                <path
                   d="M 0,0 18.097,9.086 -32.294,3.48 0,0 Z m 20.603,9.994 c 0.035,-0.041 0.06,-0.088 0.076,-0.14 0.056,-0.19 -0.032,-0.391 -0.205,-0.477 L 0.255,-0.775 C 0.187,-0.811 0.109,-0.824 0.032,-0.814 l -36.078,3.886 c -0.203,0.024 -0.36,0.196 -0.359,0.403 0,0.205 0.154,0.379 0.358,0.402 l 56.294,6.262 c 0.139,0.015 0.271,-0.041 0.356,-0.145 z"
                   style="fill:none;stroke:#820d07;stroke-width:1;stroke-linecap:butt;stroke-linejoin:miter;stroke-miterlimit:10;stroke-dasharray:none;stroke-opacity:1"
                   id="path8068"
                   inkscape:connector-curvature="0" />
              </g>
              <g
                 transform="translate(189.4507,740.7607)"
                 id="g8070">
                <path
                   d="M 0,0 54.77,6.092 -32.516,54.129 0,0 Z M 56.391,6.088 C 56.467,5.998 56.5,5.875 56.477,5.752 56.441,5.58 56.301,5.449 56.125,5.43 L -0.17,-0.832 c -0.156,-0.016 -0.308,0.061 -0.391,0.193 l -33.418,55.637 c -0.093,0.154 -0.072,0.356 0.056,0.486 0.125,0.133 0.325,0.162 0.485,0.075 L 56.274,6.186 C 56.319,6.16 56.359,6.127 56.391,6.088 Z"
                   style="fill:none;stroke:#820d07;stroke-width:1;stroke-linecap:butt;stroke-linejoin:miter;stroke-miterlimit:10;stroke-dasharray:none;stroke-opacity:1"
                   id="path8072"
                   inkscape:connector-curvature="0" />
              </g>
              <g
                 transform="translate(188.6519,740.5186)"
                 id="g8074">
                <path
                   d="M 0,0 -32.018,53.307 -20.307,-8.703 0,0 Z m -32.523,55.705 c 0.013,-0.016 0.025,-0.031 0.035,-0.051 L 0.93,0.02 C 0.991,-0.08 1.004,-0.201 0.969,-0.312 0.934,-0.424 0.852,-0.514 0.744,-0.559 l -21.195,-9.084 c -0.113,-0.048 -0.242,-0.043 -0.348,0.014 -0.109,0.059 -0.185,0.16 -0.207,0.281 l -12.212,64.651 c -0.068,0.16 -0.028,0.353 0.114,0.47 0.174,0.145 0.436,0.112 0.575,-0.058 l 0.006,-0.01 z"
                   style="fill:none;stroke:#820d07;stroke-width:1;stroke-linecap:butt;stroke-linejoin:miter;stroke-miterlimit:10;stroke-dasharray:none;stroke-opacity:1"
                   id="path8076"
                   inkscape:connector-curvature="0" />
              </g>
              <g
                 transform="translate(269.0581,734.6592)"
                 id="g8078">
                <path
                   d="M 0,0 52.776,6.994 -3.887,20.584 0,0 Z M 55.295,7.139 C 55.359,7.064 55.395,6.965 55.389,6.861 55.379,6.666 55.231,6.506 55.038,6.48 L -0.273,-0.852 c -0.213,-0.027 -0.411,0.116 -0.45,0.327 l -4.073,21.572 c -0.026,0.135 0.019,0.273 0.118,0.369 0.098,0.094 0.24,0.131 0.373,0.098 L 55.08,7.273 c 0.088,-0.021 0.162,-0.07 0.215,-0.134 z"
                   style="fill:none;stroke:#820d07;stroke-width:1;stroke-linecap:butt;stroke-linejoin:miter;stroke-miterlimit:10;stroke-dasharray:none;stroke-opacity:1"
                   id="path8080"
                   inkscape:connector-curvature="0" />
              </g>
              <g
                 transform="translate(323.7681,742.0205)"
                 id="g8082">
                <path
                   d="M 0,0 15.812,51.809 -57.956,13.9 0,0 Z m 16.788,52.863 c 0.086,-0.103 0.115,-0.244 0.075,-0.377 L 0.661,-0.598 C 0.6,-0.803 0.39,-0.922 0.181,-0.871 l -59.385,14.24 c -0.165,0.039 -0.287,0.178 -0.307,0.344 -0.019,0.168 0.067,0.33 0.217,0.408 l 75.586,38.844 c 0.145,0.072 0.318,0.053 0.443,-0.051 0.02,-0.016 0.037,-0.033 0.053,-0.051 z"
                   style="fill:none;stroke:#820d07;stroke-width:1;stroke-linecap:butt;stroke-linejoin:miter;stroke-miterlimit:10;stroke-dasharray:none;stroke-opacity:1"
                   id="path8084"
                   inkscape:connector-curvature="0" />
              </g>
              <g
                 transform="translate(264.7729,756.2939)"
                 id="g8086">
                <path
                   d="M 0,0 74.479,38.275 -72.791,93.961 0,0 Z m 75.783,38.59 c 0.053,-0.067 0.086,-0.149 0.092,-0.236 0.009,-0.159 -0.076,-0.309 -0.219,-0.381 L 0.07,-0.871 c -0.174,-0.09 -0.355,-0.057 -0.504,0.111 l -73.871,95.358 c -0.11,0.142 -0.112,0.341 -0.006,0.488 0.108,0.144 0.299,0.201 0.469,0.137 L 75.615,38.709 c 0.067,-0.027 0.123,-0.068 0.168,-0.119 z"
                   style="fill:none;stroke:#820d07;stroke-width:1;stroke-linecap:butt;stroke-linejoin:miter;stroke-miterlimit:10;stroke-dasharray:none;stroke-opacity:1"
                   id="path8088"
                   inkscape:connector-curvature="0" />
              </g>
              <g
                 transform="translate(264.0347,755.9307)"
                 id="g8090">
                <path
                   d="M 0,0 -70.775,91.359 -18.327,-8.805 0,0 Z m -72.949,95.482 c 0,0 0.008,-0.011 0.013,-0.015 0,0 0.006,-0.008 0.008,-0.012 L 0.943,0.1 C 1.019,0.002 1.045,-0.123 1.017,-0.24 0.988,-0.361 0.908,-0.459 0.799,-0.512 l -19.128,-9.189 c -0.196,-0.096 -0.433,-0.018 -0.532,0.174 L -73.587,94.986 c -0.124,0.172 -0.097,0.41 0.069,0.549 0.172,0.143 0.426,0.119 0.569,-0.053 z"
                   style="fill:none;stroke:#820d07;stroke-width:1;stroke-linecap:butt;stroke-linejoin:miter;stroke-miterlimit:10;stroke-dasharray:none;stroke-opacity:1"
                   id="path8092"
                   inkscape:connector-curvature="0" />
              </g>
              <g
                 transform="translate(244.5503,747.5928)"
                 id="g8094">
                <path
                   d="M 0,0 -53.797,102.738 -88.16,48.52 0,0 Z m -53.451,103.805 c 0.017,-0.022 0.033,-0.045 0.045,-0.071 L 1.338,-0.814 C 1.421,-0.973 1.391,-1.166 1.262,-1.289 1.135,-1.412 0.941,-1.439 0.785,-1.355 L -88.928,48.02 c -0.095,0.054 -0.168,0.146 -0.195,0.253 -0.027,0.108 -0.01,0.221 0.049,0.317 l 34.908,55.074 c 0.02,0.078 0.064,0.152 0.133,0.209 0.174,0.145 0.425,0.147 0.574,-0.06 0,0 0.004,-0.006 0.008,-0.008 z"
                   style="fill:none;stroke:#820d07;stroke-width:1;stroke-linecap:butt;stroke-linejoin:miter;stroke-miterlimit:10;stroke-dasharray:none;stroke-opacity:1"
                   id="path8096"
                   inkscape:connector-curvature="0" />
              </g>
              <g
                 transform="translate(123.3784,830.001)"
                 id="g8098">
                <path
                   d="M 0,0 66.684,21.33 38.971,51.475 0,0 Z m 67.721,21.396 c 0.082,-0.099 0.112,-0.234 0.078,-0.361 -0.035,-0.133 -0.136,-0.24 -0.268,-0.281 l -68.5,-21.912 c -0.168,-0.053 -0.343,0.008 -0.453,0.15 -0.101,0.145 -0.098,0.338 0.009,0.479 l 40.03,52.875 c 0.072,0.095 0.185,0.156 0.304,0.162 0.12,0.004 0.235,-0.043 0.315,-0.131 L 67.707,21.41 c 0,0 0.008,-0.01 0.014,-0.014 z"
                   style="fill:none;stroke:#820d07;stroke-width:1;stroke-linecap:butt;stroke-linejoin:miter;stroke-miterlimit:10;stroke-dasharray:none;stroke-opacity:1"
                   id="path8100"
                   inkscape:connector-curvature="0" />
              </g>
              <g
                 transform="translate(155.7466,796.6064)"
                 id="g8102">
                <path
                   d="M 0,0 34.104,53.809 -32.704,32.439 0,0 Z m 35.353,54.791 c 0,0 0.005,-0.008 0.007,-0.012 0.104,-0.133 0.114,-0.318 0.022,-0.463 L 0.413,-0.857 C 0.347,-0.959 0.237,-1.029 0.116,-1.041 c -0.121,-0.014 -0.242,0.027 -0.328,0.113 l -33.532,33.262 c -0.105,0.098 -0.142,0.242 -0.109,0.381 0.034,0.137 0.135,0.248 0.27,0.291 l 68.5,21.91 c 0.158,0.053 0.33,0 0.436,-0.125 z"
                   style="fill:none;stroke:#820d07;stroke-width:1;stroke-linecap:butt;stroke-linejoin:miter;stroke-miterlimit:10;stroke-dasharray:none;stroke-opacity:1"
                   id="path8104"
                   inkscape:connector-curvature="0" />
              </g>
              <g
                 transform="translate(191.1909,851.4189)"
                 id="g8106">
                <path
                   d="M 0,0 147.346,-55.717 0.291,85.236 0,0 Z m 149.365,-56.535 c 0.111,-0.133 0.123,-0.324 0.031,-0.475 -0.103,-0.162 -0.305,-0.23 -0.486,-0.162 L -0.546,-0.656 c -0.157,0.058 -0.263,0.211 -0.263,0.377 l 0.296,86.459 c 0.001,0.162 0.097,0.308 0.245,0.371 0.15,0.062 0.322,0.031 0.438,-0.08 L 149.334,-56.502 c 0.01,-0.012 0.021,-0.023 0.031,-0.033 z"
                   style="fill:none;stroke:#820d07;stroke-width:1;stroke-linecap:butt;stroke-linejoin:miter;stroke-miterlimit:10;stroke-dasharray:none;stroke-opacity:1"
                   id="path8108"
                   inkscape:connector-curvature="0" />
              </g>
              <g
                 transform="translate(190.3862,852.1689)"
                 id="g8110">
                <path
                   d="M 0,0 0.285,83.762 -27.58,30 0,0 Z M 1.006,85.688 C 1.064,85.617 1.1,85.523 1.099,85.426 L 0.805,-1.031 c 0,-0.166 -0.102,-0.317 -0.258,-0.375 -0.154,-0.059 -0.33,-0.02 -0.443,0.101 l -28.469,30.967 c -0.116,0.109 -0.141,0.309 -0.061,0.459 L 0.285,85.514 c 0.016,0.091 0.063,0.177 0.141,0.24 C 0.6,85.898 0.848,85.904 1,85.695 l 0.006,-0.007 z"
                   style="fill:none;stroke:#820d07;stroke-width:1;stroke-linecap:butt;stroke-linejoin:miter;stroke-miterlimit:10;stroke-dasharray:none;stroke-opacity:1"
                   id="path8112"
                   inkscape:connector-curvature="0" />
              </g>
              <g
                 transform="translate(190.605,937.5557)"
                 id="g8114">
                <path
                   d="M 0,0 -14.832,19.199 -27.437,-52.936 0,0 Z m -14.763,20.428 c 0.004,-0.004 0.007,-0.006 0.007,-0.006 L 0.797,0.289 c 0.096,-0.125 0.11,-0.293 0.037,-0.432 l -28.762,-55.494 c -0.092,-0.177 -0.299,-0.261 -0.488,-0.197 -0.188,0.063 -0.303,0.254 -0.268,0.451 l 13.213,75.621 c 0.028,0.158 0.146,0.285 0.301,0.323 0.15,0.039 0.309,-0.014 0.407,-0.133 z"
                   style="fill:none;stroke:#820d07;stroke-width:1;stroke-linecap:butt;stroke-linejoin:miter;stroke-miterlimit:10;stroke-dasharray:none;stroke-opacity:1"
                   id="path8116"
                   inkscape:connector-curvature="0" />
              </g>
              <g
                 transform="translate(218.8638,719.1318)"
                 id="g8118">
                <path
                   d="M 0,0 47.585,14.789 6.718,16.891 0,0 Z m 50.179,15.334 c 0.049,-0.059 0.08,-0.129 0.091,-0.207 0.024,-0.195 -0.095,-0.377 -0.283,-0.436 L -0.568,-1.021 c -0.15,-0.045 -0.312,-0.002 -0.416,0.111 -0.109,0.113 -0.136,0.279 -0.079,0.424 l 7.138,17.943 c 0.063,0.162 0.223,0.266 0.397,0.254 L 49.89,15.48 c 0.115,-0.007 0.218,-0.06 0.289,-0.146 z"
                   style="fill:none;stroke:#820d07;stroke-width:1;stroke-linecap:butt;stroke-linejoin:miter;stroke-miterlimit:10;stroke-dasharray:none;stroke-opacity:1"
                   id="path8120"
                   inkscape:connector-curvature="0" />
              </g>
              <g
                 transform="translate(217.9956,719.1377)"
                 id="g8122">
                <path
                   d="M 0,0 6.746,16.957 -27.35,20.635 0,0 Z M 7.629,17.561 C 7.642,17.545 7.653,17.529 7.664,17.512 7.729,17.404 7.74,17.271 7.693,17.154 L 0.555,-0.789 C 0.509,-0.906 0.41,-0.996 0.288,-1.031 c -0.12,-0.033 -0.25,-0.008 -0.35,0.068 l -28.94,21.834 c -0.144,0.108 -0.199,0.301 -0.133,0.471 0.068,0.168 0.239,0.271 0.419,0.25 L 7.361,17.703 c 0.106,-0.01 0.201,-0.062 0.268,-0.142 z"
                   style="fill:none;stroke:#820d07;stroke-width:1;stroke-linecap:butt;stroke-linejoin:miter;stroke-miterlimit:10;stroke-dasharray:none;stroke-opacity:1"
                   id="path8124"
                   inkscape:connector-curvature="0" />
              </g>
              <g
                 transform="translate(169.2944,731.3447)"
                 id="g8126">
                <path
                   d="M 0,0 47.037,-11.963 19.887,8.521 0,0 Z m 49.191,-12.59 c 0.1,-0.119 0.123,-0.289 0.054,-0.433 -0.083,-0.174 -0.276,-0.264 -0.464,-0.217 L -1.352,-0.488 c -0.168,0.043 -0.29,0.185 -0.302,0.357 -0.014,0.174 0.084,0.336 0.243,0.404 l 21.194,9.084 c 0.133,0.055 0.287,0.038 0.403,-0.05 l 28.939,-21.834 c 0.024,-0.018 0.047,-0.039 0.066,-0.063 z"
                   style="fill:none;stroke:#820d07;stroke-width:1;stroke-linecap:butt;stroke-linejoin:miter;stroke-miterlimit:10;stroke-dasharray:none;stroke-opacity:1"
                   id="path8128"
                   inkscape:connector-curvature="0" />
              </g>
              <g
                 transform="translate(167.5015,731.9287)"
                 id="g8130">
                <path
                   d="M 0,0 -11.947,63.264 -55.466,24.729 0,0 Z m -11.373,64.295 c 0.043,-0.051 0.073,-0.113 0.086,-0.182 L 0.937,-0.607 C 0.965,-0.756 0.91,-0.906 0.791,-1 0.674,-1.094 0.514,-1.111 0.375,-1.051 l -56.742,25.297 c -0.126,0.055 -0.214,0.172 -0.236,0.309 -0.02,0.136 0.031,0.273 0.132,0.363 l 44.52,39.422 c 0.109,0.096 0.26,0.125 0.398,0.078 0.073,-0.023 0.134,-0.066 0.18,-0.123 z"
                   style="fill:none;stroke:#820d07;stroke-width:1;stroke-linecap:butt;stroke-linejoin:miter;stroke-miterlimit:10;stroke-dasharray:none;stroke-opacity:1"
                   id="path8132"
                   inkscape:connector-curvature="0" />
              </g>
              <g
                 transform="translate(137.2671,715.0596)"
                 id="g8134">
                <path
                   d="M 0,0 29.861,16.152 -24.941,40.584 0,0 Z m 31.086,16.445 c 0.055,-0.068 0.09,-0.152 0.092,-0.244 0.006,-0.152 -0.076,-0.295 -0.211,-0.369 L 0.049,-0.893 c -0.19,-0.101 -0.43,-0.043 -0.536,0.145 l -25.825,42.021 c -0.094,0.151 -0.077,0.344 0.041,0.477 0.115,0.135 0.304,0.176 0.466,0.105 l 56.744,-25.3 c 0.059,-0.026 0.108,-0.063 0.147,-0.11 z"
                   style="fill:none;stroke:#820d07;stroke-width:1;stroke-linecap:butt;stroke-linejoin:miter;stroke-miterlimit:10;stroke-dasharray:none;stroke-opacity:1"
                   id="path8136"
                   inkscape:connector-curvature="0" />
              </g>
              <g
                 transform="translate(111.8638,757.585)"
                 id="g8138">
                <path
                   d="M 0,0 43.364,38.396 10.703,70.795 0,0 Z m 44.265,38.639 c 0.062,-0.075 0.095,-0.17 0.093,-0.27 -0.004,-0.111 -0.052,-0.217 -0.136,-0.291 L -0.298,-1.344 c -0.127,-0.109 -0.31,-0.133 -0.461,-0.052 -0.148,0.084 -0.232,0.25 -0.205,0.416 l 10.988,72.681 c 0.023,0.151 0.127,0.276 0.272,0.324 0.144,0.047 0.303,0.01 0.412,-0.097 l 33.53,-33.26 c 0.01,-0.01 0.019,-0.02 0.027,-0.029 z"
                   style="fill:none;stroke:#820d07;stroke-width:1;stroke-linecap:butt;stroke-linejoin:miter;stroke-miterlimit:10;stroke-dasharray:none;stroke-opacity:1"
                   id="path8140"
                   inkscape:connector-curvature="0" />
              </g>
              <g
                 transform="translate(136.5874,714.6221)"
                 id="g8142">
                <path
                   d="M 0,0 -23.359,38.012 -6.828,-5.168 0,0 Z m -24.979,42.182 c 0.012,-0.016 0.024,-0.032 0.034,-0.049 L 0.881,0.111 C 0.988,-0.066 0.945,-0.297 0.779,-0.422 L -6.77,-6.139 c -0.101,-0.074 -0.232,-0.099 -0.354,-0.064 -0.122,0.035 -0.22,0.125 -0.267,0.244 l -18.255,47.688 c -0.104,0.169 -0.07,0.39 0.087,0.519 0.17,0.143 0.426,0.119 0.569,-0.053 0.002,-0.006 0.008,-0.009 0.011,-0.013 z"
                   style="fill:none;stroke:#820d07;stroke-width:1;stroke-linecap:butt;stroke-linejoin:miter;stroke-miterlimit:10;stroke-dasharray:none;stroke-opacity:1"
                   id="path8144"
                   inkscape:connector-curvature="0" />
              </g>
              <g
                 transform="translate(128.8433,709.585)"
                 id="g8146">
                <path
                   d="M 0,0 -17.633,46.061 -36.148,16.582 0,0 Z m -17.234,47.219 c 0.028,-0.035 0.05,-0.074 0.066,-0.115 L 1.107,-0.635 C 1.166,-0.787 1.127,-0.961 1.008,-1.074 0.887,-1.186 0.711,-1.213 0.562,-1.145 l -37.464,17.186 c -0.106,0.047 -0.187,0.139 -0.219,0.252 -0.034,0.111 -0.018,0.23 0.044,0.33 l 19.128,30.453 c 0.021,0.08 0.066,0.154 0.135,0.209 0.172,0.145 0.418,0.125 0.574,-0.06 l 0.006,-0.006 z"
                   style="fill:none;stroke:#820d07;stroke-width:1;stroke-linecap:butt;stroke-linejoin:miter;stroke-miterlimit:10;stroke-dasharray:none;stroke-opacity:1"
                   id="path8148"
                   inkscape:connector-curvature="0" />
              </g>
              <g
                 transform="translate(110.9624,757.0205)"
                 id="g8150">
                <path
                   d="M 0,0 10.811,71.512 -97.939,19.047 0,0 Z m 11.635,72.465 c 0.072,-0.088 0.107,-0.203 0.089,-0.319 L 0.735,-0.537 C 0.719,-0.645 0.658,-0.742 0.568,-0.807 0.479,-0.869 0.367,-0.893 0.26,-0.873 l -99.545,19.359 c -0.174,0.035 -0.304,0.172 -0.325,0.346 -0.023,0.172 0.069,0.34 0.225,0.414 L 11.15,72.57 c 0.133,0.065 0.293,0.049 0.414,-0.039 0.027,-0.019 0.049,-0.041 0.071,-0.066 z"
                   style="fill:none;stroke:#820d07;stroke-width:1;stroke-linecap:butt;stroke-linejoin:miter;stroke-miterlimit:10;stroke-dasharray:none;stroke-opacity:1"
                   id="path8152"
                   inkscape:connector-curvature="0" />
              </g>
              <g
                 transform="translate(91.98,726.5479)"
                 id="g8154">
                <path
                   d="M 0,0 18.664,29.713 -78.148,48.541 0,0 Z m 19.629,30.256 c 0.024,-0.029 0.045,-0.063 0.059,-0.1 0.054,-0.121 0.043,-0.261 -0.027,-0.375 L 0.471,-0.77 C 0.352,-0.959 0.104,-1.016 -0.084,-0.898 l -80.355,49.912 c -0.165,0.099 -0.235,0.306 -0.165,0.488 0.072,0.182 0.262,0.287 0.454,0.25 L 19.396,30.395 c 0.092,-0.02 0.174,-0.071 0.233,-0.139 z"
                   style="fill:none;stroke:#820d07;stroke-width:1;stroke-linecap:butt;stroke-linejoin:miter;stroke-miterlimit:10;stroke-dasharray:none;stroke-opacity:1"
                   id="path8156"
                   inkscape:connector-curvature="0" />
              </g>
              <g
                 transform="translate(339.4565,795.9385)"
                 id="g8158">
                <path
                   d="M 0,0 -59.865,213.711 -147.767,141.637 0,0 Z m -59.334,214.674 c 0.036,-0.043 0.063,-0.094 0.078,-0.151 L 1.178,-1.205 C 1.227,-1.379 1.15,-1.566 0.996,-1.66 0.84,-1.754 0.641,-1.73 0.51,-1.605 l -149.164,142.972 c -0.082,0.08 -0.129,0.192 -0.124,0.307 0.005,0.115 0.057,0.224 0.147,0.297 l 88.731,72.756 c 0.106,0.087 0.248,0.115 0.377,0.074 0.076,-0.024 0.142,-0.071 0.189,-0.127 z"
                   style="fill:none;stroke:#820d07;stroke-width:1;stroke-linecap:butt;stroke-linejoin:miter;stroke-miterlimit:10;stroke-dasharray:none;stroke-opacity:1"
                   id="path8160"
                   inkscape:connector-curvature="0" />
              </g>
              <g
                 transform="translate(345.4214,783.1514)"
                 id="g8162">
                <path
                   d="M 0,0 -5.09,10.377 -19.734,-37.611 0,0 Z m -4.865,11.732 c 0.019,-0.025 0.037,-0.05 0.051,-0.08 L 0.816,0.172 C 0.872,0.057 0.871,-0.08 0.811,-0.193 L -21.02,-41.799 c -0.097,-0.185 -0.319,-0.265 -0.511,-0.185 -0.194,0.078 -0.294,0.291 -0.234,0.492 l 16.203,53.084 c 0.048,0.158 0.188,0.271 0.353,0.283 0.133,0.012 0.261,-0.043 0.344,-0.143 z"
                   style="fill:none;stroke:#820d07;stroke-width:1;stroke-linecap:butt;stroke-linejoin:miter;stroke-miterlimit:10;stroke-dasharray:none;stroke-opacity:1"
                   id="path8164"
                   inkscape:connector-curvature="0" />
              </g>
              <g
                 transform="translate(11.8374,777.9404)"
                 id="g8166">
                <path
                   d="M 0,0 33.445,136.09 -19.983,125.854 0,0 Z m 34.299,136.861 c 0.082,-0.097 0.112,-0.23 0.082,-0.353 L 0.307,-2.133 C 0.262,-2.32 0.09,-2.449 -0.102,-2.439 -0.295,-2.432 -0.453,-2.291 -0.484,-2.1 l -20.358,128.211 c -0.034,0.217 0.11,0.42 0.323,0.461 L 33.912,137 c 0.137,0.027 0.276,-0.02 0.369,-0.119 0.006,-0.006 0.013,-0.012 0.018,-0.02 z"
                   style="fill:none;stroke:#820d07;stroke-width:1;stroke-linecap:butt;stroke-linejoin:miter;stroke-miterlimit:10;stroke-dasharray:none;stroke-opacity:1"
                   id="path8168"
                   inkscape:connector-curvature="0" />
              </g>
              <g
                 transform="translate(12.3491,776.6396)"
                 id="g8170">
                <path
                   d="M 0,0 109.279,52.719 33.688,137.066 0,0 Z m 110.248,52.846 c 0.078,-0.094 0.109,-0.217 0.086,-0.336 -0.025,-0.125 -0.105,-0.231 -0.221,-0.285 L -0.422,-1.1 c -0.14,-0.068 -0.308,-0.048 -0.43,0.051 -0.119,0.098 -0.174,0.258 -0.136,0.408 L 33.084,138 c 0.037,0.146 0.15,0.26 0.295,0.295 0.144,0.037 0.299,-0.01 0.398,-0.121 l 76.461,-85.317 c 0.004,-0.005 0.007,-0.007 0.01,-0.011 z"
                   style="fill:none;stroke:#820d07;stroke-width:1;stroke-linecap:butt;stroke-linejoin:miter;stroke-miterlimit:10;stroke-dasharray:none;stroke-opacity:1"
                   id="path8172"
                   inkscape:connector-curvature="0" />
              </g>
              <g
                 transform="translate(279.7358,1011.626)"
                 id="g8174">
                <path
                   d="M 0,0 4.498,16.729 -4.031,10.023 0,0 Z m 5.514,18.055 c 0.083,-0.1 0.113,-0.235 0.08,-0.364 L 0.467,-1.377 C 0.422,-1.545 0.275,-1.666 0.102,-1.674 c -0.174,-0.013 -0.334,0.086 -0.4,0.252 l -4.595,11.426 c -0.067,0.166 -0.015,0.355 0.125,0.469 l 9.721,7.64 c 0.137,0.108 0.328,0.114 0.473,0.02 0.033,-0.024 0.062,-0.049 0.088,-0.078 z"
                   style="fill:none;stroke:#820d07;stroke-width:1;stroke-linecap:butt;stroke-linejoin:miter;stroke-miterlimit:10;stroke-dasharray:none;stroke-opacity:1"
                   id="path8176"
                   inkscape:connector-curvature="0" />
              </g>
              <g
                 transform="translate(279.3062,1010.5303)"
                 id="g8178">
                <path
                   d="M 0,0 -4.266,10.609 -73.35,-41.57 0,0 Z M -3.777,11.508 C -3.75,11.477 -3.729,11.439 -3.714,11.4 L 0.881,-0.027 c 0.076,-0.186 0,-0.401 -0.176,-0.5 l -79,-44.774 c -0.185,-0.105 -0.424,-0.047 -0.537,0.129 -0.115,0.178 -0.075,0.416 0.095,0.545 l 74.405,56.199 c 0.102,0.076 0.23,0.1 0.352,0.067 0.08,-0.022 0.151,-0.069 0.203,-0.131 z"
                   style="fill:none;stroke:#820d07;stroke-width:1;stroke-linecap:butt;stroke-linejoin:miter;stroke-miterlimit:10;stroke-dasharray:none;stroke-opacity:1"
                   id="path8180"
                   inkscape:connector-curvature="0" />
              </g>
              <g
                 transform="translate(191.9351,938.8174)"
                 id="g8182">
                <path
                   d="M 0,0 83.982,68.865 9.209,26.488 0,0 Z m 88.188,71.795 c 0.008,-0.01 0.015,-0.02 0.022,-0.029 0.118,-0.174 0.086,-0.409 -0.077,-0.541 L -0.597,-1.531 c -0.139,-0.115 -0.339,-0.123 -0.487,-0.02 -0.148,0.104 -0.21,0.293 -0.15,0.463 l 9.73,27.984 c 0.032,0.094 0.098,0.17 0.182,0.219 l 79,44.772 c 0.172,0.097 0.386,0.056 0.51,-0.092 z"
                   style="fill:none;stroke:#820d07;stroke-width:1;stroke-linecap:butt;stroke-linejoin:miter;stroke-miterlimit:10;stroke-dasharray:none;stroke-opacity:1"
                   id="path8184"
                   inkscape:connector-curvature="0" />
              </g>
              <g
                 transform="translate(190.9448,938.4346)"
                 id="g8186">
                <path
                   d="M 0,0 9.224,26.523 -14.738,19.078 0,0 Z m 10.178,27.404 c 0.09,-0.109 0.117,-0.258 0.07,-0.39 L 0.518,-0.969 C 0.47,-1.107 0.348,-1.211 0.201,-1.236 0.057,-1.26 -0.088,-1.189 -0.184,-1.084 l -15.548,20.127 c -0.082,0.105 -0.106,0.242 -0.067,0.369 0.041,0.127 0.14,0.227 0.266,0.264 l 25.281,7.855 c 0.145,0.045 0.305,0.006 0.41,-0.103 0.006,-0.008 0.014,-0.016 0.02,-0.024 z"
                   style="fill:none;stroke:#820d07;stroke-width:1;stroke-linecap:butt;stroke-linejoin:miter;stroke-miterlimit:10;stroke-dasharray:none;stroke-opacity:1"
                   id="path8188"
                   inkscape:connector-curvature="0" />
              </g>
              <g
                 transform="translate(45.5151,915.0732)"
                 id="g8190">
                <path
                   d="M 0,0 6.951,37.23 -63.414,21.064 0,0 Z M 7.772,38.02 C 7.849,37.928 7.881,37.807 7.857,37.688 L 0.707,-0.604 C 0.687,-0.719 0.617,-0.818 0.517,-0.877 0.416,-0.937 0.295,-0.949 0.184,-0.912 l -65.219,21.664 c -0.172,0.059 -0.285,0.221 -0.276,0.402 0.008,0.18 0.137,0.334 0.313,0.375 L 7.371,38.156 c 0.133,0.03 0.273,-0.01 0.369,-0.103 0.012,-0.01 0.022,-0.022 0.032,-0.033 z"
                   style="fill:none;stroke:#820d07;stroke-width:1;stroke-linecap:butt;stroke-linejoin:miter;stroke-miterlimit:10;stroke-dasharray:none;stroke-opacity:1"
                   id="path8192"
                   inkscape:connector-curvature="0" />
              </g>
              <g
                 transform="translate(-8.3345,904.5791)"
                 id="g8194">
                <path
                   d="M 0,0 52.564,10.07 -10.417,30.99 0,0 Z M 54.471,10.223 C 54.535,10.146 54.57,10.045 54.564,9.939 54.551,9.756 54.418,9.604 54.236,9.568 L -0.194,-0.859 c -0.2,-0.037 -0.394,0.074 -0.459,0.267 L -11.44,31.502 c -0.05,0.143 -0.011,0.305 0.096,0.414 0.108,0.107 0.268,0.147 0.414,0.096 L 54.289,10.348 c 0.072,-0.024 0.137,-0.069 0.182,-0.125 z"
                   style="fill:none;stroke:#820d07;stroke-width:1;stroke-linecap:butt;stroke-linejoin:miter;stroke-miterlimit:10;stroke-dasharray:none;stroke-opacity:1"
                   id="path8196"
                   inkscape:connector-curvature="0" />
              </g>
              <g
                 transform="translate(46.312,914.9502)"
                 id="g8198">
                <path
                   d="M 0,0 50.268,0.377 6.934,37.127 0,0 Z M 51.67,0.238 C 51.76,0.131 51.787,-0.02 51.738,-0.156 51.68,-0.316 51.53,-0.422 51.361,-0.424 L -0.482,-0.811 c -0.122,0 -0.237,0.053 -0.313,0.147 l -0.002,0 c -0.076,0.092 -0.108,0.213 -0.086,0.332 l 7.151,38.291 c 0.027,0.141 0.127,0.258 0.261,0.307 0.135,0.047 0.287,0.019 0.397,-0.073 L 51.619,0.289 C 51.638,0.273 51.654,0.256 51.67,0.238 Z"
                   style="fill:none;stroke:#820d07;stroke-width:1;stroke-linecap:butt;stroke-linejoin:miter;stroke-miterlimit:10;stroke-dasharray:none;stroke-opacity:1"
                   id="path8200"
                   inkscape:connector-curvature="0" />
              </g>
              <g
                 transform="translate(162.0151,882.7119)"
                 id="g8202">
                <path
                   d="M 0,0 12.975,74.254 -63.48,32.234 0,0 Z m 13.827,75.271 c 0.075,-0.089 0.109,-0.208 0.087,-0.328 L 0.701,-0.676 C 0.68,-0.805 0.598,-0.912 0.484,-0.969 c -0.115,-0.058 -0.25,-0.056 -0.363,0 l -64.648,32.828 c -0.134,0.069 -0.219,0.204 -0.222,0.354 -0.003,0.148 0.079,0.287 0.21,0.359 l 77.861,42.795 c 0.137,0.074 0.303,0.065 0.429,-0.025 0.03,-0.02 0.055,-0.045 0.076,-0.071 z"
                   style="fill:none;stroke:#820d07;stroke-width:1;stroke-linecap:butt;stroke-linejoin:miter;stroke-miterlimit:10;stroke-dasharray:none;stroke-opacity:1"
                   id="path8204"
                   inkscape:connector-curvature="0" />
              </g>
              <g
                 transform="translate(122.4526,830.1143)"
                 id="g8206">
                <path
                   d="M 0,0 39.252,51.85 -24.138,84.037 0,0 Z m 40.176,52.248 c 0.04,-0.047 0.069,-0.105 0.084,-0.168 0.025,-0.115 0,-0.238 -0.072,-0.334 L 0.156,-1.131 C 0.064,-1.254 -0.09,-1.312 -0.24,-1.283 c -0.15,0.027 -0.272,0.138 -0.313,0.285 L -25.17,84.705 c -0.045,0.154 0.006,0.32 0.131,0.422 0.123,0.103 0.297,0.123 0.439,0.049 L 40.049,52.35 c 0.049,-0.026 0.092,-0.059 0.127,-0.102 z"
                   style="fill:none;stroke:#820d07;stroke-width:1;stroke-linecap:butt;stroke-linejoin:miter;stroke-miterlimit:10;stroke-dasharray:none;stroke-opacity:1"
                   id="path8208"
                   inkscape:connector-curvature="0" />
              </g>
              <g
                 transform="translate(121.4116,830.8076)"
                 id="g8210">
                <path
                   d="M 0,0 -24.045,83.717 -74.688,83.34 0,0 Z m -23.43,84.381 c 0.034,-0.041 0.061,-0.092 0.076,-0.147 L 1.264,-1.469 C 1.315,-1.65 1.235,-1.842 1.071,-1.934 0.906,-2.023 0.699,-1.99 0.574,-1.85 l -76.461,85.317 c -0.117,0.125 -0.133,0.287 -0.068,0.433 0.064,0.145 0.209,0.239 0.367,0.241 l 51.844,0.386 c 0.123,0 0.238,-0.054 0.314,-0.146 z"
                   style="fill:none;stroke:#820d07;stroke-width:1;stroke-linecap:butt;stroke-linejoin:miter;stroke-miterlimit:10;stroke-dasharray:none;stroke-opacity:1"
                   id="path8212"
                   inkscape:connector-curvature="0" />
              </g>
            </g>
          </g>
        </g>
      </g>
    </g>
  </g>
</svg>
