<?xml version="1.0" encoding="UTF-8" standalone="no"?>
<!-- Created with Inkscape (http://www.inkscape.org/) -->

<svg
   xmlns:dc="http://purl.org/dc/elements/1.1/"
   xmlns:cc="http://creativecommons.org/ns#"
   xmlns:rdf="http://www.w3.org/1999/02/22-rdf-syntax-ns#"
   xmlns:svg="http://www.w3.org/2000/svg"
   xmlns="http://www.w3.org/2000/svg"
   xmlns:sodipodi="http://sodipodi.sourceforge.net/DTD/sodipodi-0.dtd"
   xmlns:inkscape="http://www.inkscape.org/namespaces/inkscape"
   width="126.34168mm"
   height="84.17807mm"
   viewBox="0 0 447.66738 298.26875"
   id="svg23327"
   version="1.1"
   inkscape:version="0.91 r13725"
   sodipodi:docname="background_spyderweb.svg">
  <defs
     id="defs23329">
    <clipPath
       clipPathUnits="userSpaceOnUse"
       id="clipPath8682">
      <path
         d="m 329.253,579.618 694.416,0 0,238.615 -694.416,0 0,-238.615 z"
         id="path8684"
         inkscape:connector-curvature="0" />
    </clipPath>
    <clipPath
       clipPathUnits="userSpaceOnUse"
       id="clipPath8690">
      <path
         d="m 665.535,873.041 408.745,0 0,-415.078 -408.745,0 0,415.078 z"
         id="path8692"
         inkscape:connector-curvature="0" />
    </clipPath>
  </defs>
  <sodipodi:namedview
     id="base"
     pagecolor="#ffffff"
     bordercolor="#666666"
     borderopacity="1.0"
     inkscape:pageopacity="0.0"
     inkscape:pageshadow="2"
     inkscape:zoom="0.35"
     inkscape:cx="-118.30921"
     inkscape:cy="-196.5799"
     inkscape:document-units="px"
     inkscape:current-layer="layer1"
     showgrid="false"
     fit-margin-top="0"
     fit-margin-left="0"
     fit-margin-right="0"
     fit-margin-bottom="0"
     inkscape:window-width="1366"
     inkscape:window-height="712"
     inkscape:window-x="0"
     inkscape:window-y="0"
     inkscape:window-maximized="1" />
  <metadata
     id="metadata23332">
    <rdf:RDF>
      <cc:Work
         rdf:about="">
        <dc:format>image/svg+xml</dc:format>
        <dc:type
           rdf:resource="http://purl.org/dc/dcmitype/StillImage" />
        <dc:title></dc:title>
      </cc:Work>
    </rdf:RDF>
  </metadata>
  <g
     inkscape:label="Layer 1"
     inkscape:groupmode="layer"
     id="layer1"
     transform="translate(-24.737785,-37.51355)">
    <g
       transform="matrix(1.25,0,0,-1.25,-807.18109,1060.3048)"
       id="g8678">
      <g
         id="g8680"
         clip-path="url(#clipPath8682)">
        <g
           id="g8686">
          <g
             id="g8688" />
          <g
             id="g8694">
            <g
               clip-path="url(#clipPath8690)"
               id="g8696"
               style="opacity:0.19999701">
              <g
                 transform="translate(739.6851,727.9932)"
                 id="g8698">
                <path
                   d="m 0,0 c 3.201,-0.469 38.775,-36.752 44.014,-42.523 14.998,-16.522 -44.285,-37.395 -54.621,-42.397 -2.42,23.322 4.847,56.811 9.22,80.203 L 0,0 Z m 56.383,-77.008 4.094,-3.265 c 0.136,-0.18 25.468,-50.766 25.615,-51.239 1.67,-5.564 -21.037,-68.363 -24.617,-70.355 -4.325,-2.395 -71.303,80.877 -78.469,89.463 22.312,10.99 44.574,21.867 66.721,33.191 l 6.656,2.205 z m 134.379,29.154 c 6.037,-7.419 -12.672,-52.492 -17.453,-61.367 -6.938,-12.9 -57.6,-14.006 -71.618,-13.164 -7.244,13.256 -18.074,51.055 -23.5,67.641 18.045,14.732 35.916,29.65 53.817,44.549 8.867,-5.524 54.888,-32.912 58.754,-37.659 M 84.176,-211.307 c -2.715,14.631 13.97,52.637 21.293,66.557 2.42,4.584 57.597,7.742 60.906,6.861 8.998,-2.381 25.232,-50.095 29.58,-60.509 -24.422,-10.61 -79.35,-12.161 -107.359,-13.649 l -4.42,0.74 z m 127.691,139.868 c 3.215,5.779 57.158,-20.92 64.049,-25.235 -13.449,-22.875 -27.408,-40.877 -43.27,-61.881 -12.037,-15.922 -14.828,-28.884 -23.589,-13.996 -25.737,47.567 -23.366,54.16 2.81,101.112 m 64.004,3.302 -9.902,4.283 c -65.512,33.506 -56.412,8.791 -17.705,80.036 9.773,-11.424 22.859,-64.172 27.642,-81.567 l -0.035,-2.752 z m -56.91,73.241 c -10.065,-17.813 -11.078,-32.387 -31.35,-22.321 -46.513,23.094 -47.193,17.451 -51.185,71.385 -0.309,2.928 -4.479,21.4 1.258,21.541 1.925,0.053 94.121,-32.625 103.55,-36.023 C 234.244,28.992 225.086,15.949 218.961,5.104 M 118.803,8.545 C 111.281,2.139 75.658,-30.123 69.184,-30.564 59.145,-31.262 20.146,14.414 12.545,22.736 44.268,40.273 76.213,57.404 107.988,74.859 111.514,52.738 115.229,30.652 118.803,8.545 M 253.9,55.646 c -30.396,12.165 -61.162,23.889 -91.695,35.79 -35.549,13.845 -29.73,4.228 -36.398,31.882 -6.643,27.549 0.179,23.243 -24.387,17.368 2.75,-11.651 5.447,-23.305 8.148,-34.969 C 70.818,83.779 31.811,62.373 -6.84,40.279 c -28.381,28.707 -18.414,29.723 -37.543,10.307 8.965,-9.293 17.924,-18.479 27.028,-27.637 -7.737,-40.623 -14.327,-81.234 -21.139,-121.996 -11.959,-4.857 -23.779,-9.873 -35.656,-14.92 10.627,-26.293 10.683,-18.619 39.127,-5.277 21.384,-24.213 45.252,-53.846 67.308,-76.422 8.406,-8.598 27.377,-20.85 22.713,-34.314 -11.135,-32.174 -25.937,-29.137 4.809,-40.051 5.291,13.662 10.644,27.295 16.033,40.922 31.096,2.455 61.476,5.535 92.39,9.726 31.834,4.321 30.731,12.682 44.364,-11.17 20.562,-35.98 12.607,-36.92 35.918,-22.213 -9.649,16.452 -19.325,32.803 -29.256,49.092 7.515,9.713 74.359,96.09 76.93,98.07 5.716,4.405 24.898,-18.339 33.291,-9.042 17.226,19.097 -13.541,22.462 -25.622,28.671 -6.279,3.233 -18.962,58.745 -21.564,68.702 -13.893,53.043 -23.506,41.056 1.811,89.259 -23.372,11.848 -14.774,14.35 -30.202,-16.34"
                   style="fill:#ffffff;fill-opacity:1;fill-rule:evenodd;stroke:none"
                   id="path8700"
                   inkscape:connector-curvature="0" />
              </g>
            </g>
          </g>
        </g>
      </g>
    </g>
  </g>
</svg>
